G04 #@! TF.GenerationSoftware,KiCad,Pcbnew,7.0.7*
G04 #@! TF.CreationDate,2023-09-27T05:56:12+07:00*
G04 #@! TF.ProjectId,Radianite-Micro-F1C200s,52616469-616e-4697-9465-2d4d6963726f,rev?*
G04 #@! TF.SameCoordinates,Original*
G04 #@! TF.FileFunction,Legend,Bot*
G04 #@! TF.FilePolarity,Positive*
%FSLAX46Y46*%
G04 Gerber Fmt 4.6, Leading zero omitted, Abs format (unit mm)*
G04 Created by KiCad (PCBNEW 7.0.7) date 2023-09-27 05:56:12*
%MOMM*%
%LPD*%
G01*
G04 APERTURE LIST*
%ADD10C,0.150000*%
%ADD11C,0.250000*%
G04 APERTURE END LIST*
D10*
X121100000Y-100500000D02*
X120500000Y-101100000D01*
X120500000Y-100500000D02*
X121100000Y-101100000D01*
X118600000Y-106400000D02*
X118000000Y-107000000D01*
X121100000Y-106400000D02*
X120500000Y-107000000D01*
X118000000Y-106400000D02*
X118600000Y-107000000D01*
X116000000Y-100500000D02*
X115400000Y-101100000D01*
X115400000Y-100500000D02*
X116000000Y-101100000D01*
X120500000Y-106400000D02*
X121100000Y-107000000D01*
X116309523Y-106432390D02*
X116385713Y-106394295D01*
X116385713Y-106394295D02*
X116499999Y-106394295D01*
X116499999Y-106394295D02*
X116614285Y-106432390D01*
X116614285Y-106432390D02*
X116690475Y-106508580D01*
X116690475Y-106508580D02*
X116728570Y-106584771D01*
X116728570Y-106584771D02*
X116766666Y-106737152D01*
X116766666Y-106737152D02*
X116766666Y-106851438D01*
X116766666Y-106851438D02*
X116728570Y-107003819D01*
X116728570Y-107003819D02*
X116690475Y-107080009D01*
X116690475Y-107080009D02*
X116614285Y-107156200D01*
X116614285Y-107156200D02*
X116499999Y-107194295D01*
X116499999Y-107194295D02*
X116423808Y-107194295D01*
X116423808Y-107194295D02*
X116309523Y-107156200D01*
X116309523Y-107156200D02*
X116271427Y-107118104D01*
X116271427Y-107118104D02*
X116271427Y-106851438D01*
X116271427Y-106851438D02*
X116423808Y-106851438D01*
X115928570Y-107194295D02*
X115928570Y-106394295D01*
X115928570Y-106394295D02*
X115471427Y-107194295D01*
X115471427Y-107194295D02*
X115471427Y-106394295D01*
X115090475Y-107194295D02*
X115090475Y-106394295D01*
X115090475Y-106394295D02*
X114899999Y-106394295D01*
X114899999Y-106394295D02*
X114785713Y-106432390D01*
X114785713Y-106432390D02*
X114709523Y-106508580D01*
X114709523Y-106508580D02*
X114671428Y-106584771D01*
X114671428Y-106584771D02*
X114633332Y-106737152D01*
X114633332Y-106737152D02*
X114633332Y-106851438D01*
X114633332Y-106851438D02*
X114671428Y-107003819D01*
X114671428Y-107003819D02*
X114709523Y-107080009D01*
X114709523Y-107080009D02*
X114785713Y-107156200D01*
X114785713Y-107156200D02*
X114899999Y-107194295D01*
X114899999Y-107194295D02*
X115090475Y-107194295D01*
X131871428Y-107194295D02*
X131871428Y-106394295D01*
X131871428Y-106394295D02*
X131680952Y-106394295D01*
X131680952Y-106394295D02*
X131566666Y-106432390D01*
X131566666Y-106432390D02*
X131490476Y-106508580D01*
X131490476Y-106508580D02*
X131452381Y-106584771D01*
X131452381Y-106584771D02*
X131414285Y-106737152D01*
X131414285Y-106737152D02*
X131414285Y-106851438D01*
X131414285Y-106851438D02*
X131452381Y-107003819D01*
X131452381Y-107003819D02*
X131490476Y-107080009D01*
X131490476Y-107080009D02*
X131566666Y-107156200D01*
X131566666Y-107156200D02*
X131680952Y-107194295D01*
X131680952Y-107194295D02*
X131871428Y-107194295D01*
X130652381Y-107194295D02*
X131109524Y-107194295D01*
X130880952Y-107194295D02*
X130880952Y-106394295D01*
X130880952Y-106394295D02*
X130957143Y-106508580D01*
X130957143Y-106508580D02*
X131033333Y-106584771D01*
X131033333Y-106584771D02*
X131109524Y-106622866D01*
X129928571Y-106394295D02*
X130309523Y-106394295D01*
X130309523Y-106394295D02*
X130347619Y-106775247D01*
X130347619Y-106775247D02*
X130309523Y-106737152D01*
X130309523Y-106737152D02*
X130233333Y-106699057D01*
X130233333Y-106699057D02*
X130042857Y-106699057D01*
X130042857Y-106699057D02*
X129966666Y-106737152D01*
X129966666Y-106737152D02*
X129928571Y-106775247D01*
X129928571Y-106775247D02*
X129890476Y-106851438D01*
X129890476Y-106851438D02*
X129890476Y-107041914D01*
X129890476Y-107041914D02*
X129928571Y-107118104D01*
X129928571Y-107118104D02*
X129966666Y-107156200D01*
X129966666Y-107156200D02*
X130042857Y-107194295D01*
X130042857Y-107194295D02*
X130233333Y-107194295D01*
X130233333Y-107194295D02*
X130309523Y-107156200D01*
X130309523Y-107156200D02*
X130347619Y-107118104D01*
X144190475Y-107194295D02*
X144190475Y-106394295D01*
X144190475Y-106394295D02*
X143999999Y-106394295D01*
X143999999Y-106394295D02*
X143885713Y-106432390D01*
X143885713Y-106432390D02*
X143809523Y-106508580D01*
X143809523Y-106508580D02*
X143771428Y-106584771D01*
X143771428Y-106584771D02*
X143733332Y-106737152D01*
X143733332Y-106737152D02*
X143733332Y-106851438D01*
X143733332Y-106851438D02*
X143771428Y-107003819D01*
X143771428Y-107003819D02*
X143809523Y-107080009D01*
X143809523Y-107080009D02*
X143885713Y-107156200D01*
X143885713Y-107156200D02*
X143999999Y-107194295D01*
X143999999Y-107194295D02*
X144190475Y-107194295D01*
X143466666Y-106394295D02*
X142971428Y-106394295D01*
X142971428Y-106394295D02*
X143238094Y-106699057D01*
X143238094Y-106699057D02*
X143123809Y-106699057D01*
X143123809Y-106699057D02*
X143047618Y-106737152D01*
X143047618Y-106737152D02*
X143009523Y-106775247D01*
X143009523Y-106775247D02*
X142971428Y-106851438D01*
X142971428Y-106851438D02*
X142971428Y-107041914D01*
X142971428Y-107041914D02*
X143009523Y-107118104D01*
X143009523Y-107118104D02*
X143047618Y-107156200D01*
X143047618Y-107156200D02*
X143123809Y-107194295D01*
X143123809Y-107194295D02*
X143352380Y-107194295D01*
X143352380Y-107194295D02*
X143428571Y-107156200D01*
X143428571Y-107156200D02*
X143466666Y-107118104D01*
X137071428Y-107194295D02*
X137071428Y-106394295D01*
X137071428Y-106394295D02*
X136880952Y-106394295D01*
X136880952Y-106394295D02*
X136766666Y-106432390D01*
X136766666Y-106432390D02*
X136690476Y-106508580D01*
X136690476Y-106508580D02*
X136652381Y-106584771D01*
X136652381Y-106584771D02*
X136614285Y-106737152D01*
X136614285Y-106737152D02*
X136614285Y-106851438D01*
X136614285Y-106851438D02*
X136652381Y-107003819D01*
X136652381Y-107003819D02*
X136690476Y-107080009D01*
X136690476Y-107080009D02*
X136766666Y-107156200D01*
X136766666Y-107156200D02*
X136880952Y-107194295D01*
X136880952Y-107194295D02*
X137071428Y-107194295D01*
X135852381Y-107194295D02*
X136309524Y-107194295D01*
X136080952Y-107194295D02*
X136080952Y-106394295D01*
X136080952Y-106394295D02*
X136157143Y-106508580D01*
X136157143Y-106508580D02*
X136233333Y-106584771D01*
X136233333Y-106584771D02*
X136309524Y-106622866D01*
X135547619Y-106470485D02*
X135509523Y-106432390D01*
X135509523Y-106432390D02*
X135433333Y-106394295D01*
X135433333Y-106394295D02*
X135242857Y-106394295D01*
X135242857Y-106394295D02*
X135166666Y-106432390D01*
X135166666Y-106432390D02*
X135128571Y-106470485D01*
X135128571Y-106470485D02*
X135090476Y-106546676D01*
X135090476Y-106546676D02*
X135090476Y-106622866D01*
X135090476Y-106622866D02*
X135128571Y-106737152D01*
X135128571Y-106737152D02*
X135585714Y-107194295D01*
X135585714Y-107194295D02*
X135090476Y-107194295D01*
X139190475Y-101294295D02*
X139190475Y-100494295D01*
X139190475Y-100494295D02*
X138999999Y-100494295D01*
X138999999Y-100494295D02*
X138885713Y-100532390D01*
X138885713Y-100532390D02*
X138809523Y-100608580D01*
X138809523Y-100608580D02*
X138771428Y-100684771D01*
X138771428Y-100684771D02*
X138733332Y-100837152D01*
X138733332Y-100837152D02*
X138733332Y-100951438D01*
X138733332Y-100951438D02*
X138771428Y-101103819D01*
X138771428Y-101103819D02*
X138809523Y-101180009D01*
X138809523Y-101180009D02*
X138885713Y-101256200D01*
X138885713Y-101256200D02*
X138999999Y-101294295D01*
X138999999Y-101294295D02*
X139190475Y-101294295D01*
X138009523Y-100494295D02*
X138390475Y-100494295D01*
X138390475Y-100494295D02*
X138428571Y-100875247D01*
X138428571Y-100875247D02*
X138390475Y-100837152D01*
X138390475Y-100837152D02*
X138314285Y-100799057D01*
X138314285Y-100799057D02*
X138123809Y-100799057D01*
X138123809Y-100799057D02*
X138047618Y-100837152D01*
X138047618Y-100837152D02*
X138009523Y-100875247D01*
X138009523Y-100875247D02*
X137971428Y-100951438D01*
X137971428Y-100951438D02*
X137971428Y-101141914D01*
X137971428Y-101141914D02*
X138009523Y-101218104D01*
X138009523Y-101218104D02*
X138047618Y-101256200D01*
X138047618Y-101256200D02*
X138123809Y-101294295D01*
X138123809Y-101294295D02*
X138314285Y-101294295D01*
X138314285Y-101294295D02*
X138390475Y-101256200D01*
X138390475Y-101256200D02*
X138428571Y-101218104D01*
X126771428Y-107194295D02*
X126771428Y-106394295D01*
X126771428Y-106394295D02*
X126580952Y-106394295D01*
X126580952Y-106394295D02*
X126466666Y-106432390D01*
X126466666Y-106432390D02*
X126390476Y-106508580D01*
X126390476Y-106508580D02*
X126352381Y-106584771D01*
X126352381Y-106584771D02*
X126314285Y-106737152D01*
X126314285Y-106737152D02*
X126314285Y-106851438D01*
X126314285Y-106851438D02*
X126352381Y-107003819D01*
X126352381Y-107003819D02*
X126390476Y-107080009D01*
X126390476Y-107080009D02*
X126466666Y-107156200D01*
X126466666Y-107156200D02*
X126580952Y-107194295D01*
X126580952Y-107194295D02*
X126771428Y-107194295D01*
X126009524Y-106470485D02*
X125971428Y-106432390D01*
X125971428Y-106432390D02*
X125895238Y-106394295D01*
X125895238Y-106394295D02*
X125704762Y-106394295D01*
X125704762Y-106394295D02*
X125628571Y-106432390D01*
X125628571Y-106432390D02*
X125590476Y-106470485D01*
X125590476Y-106470485D02*
X125552381Y-106546676D01*
X125552381Y-106546676D02*
X125552381Y-106622866D01*
X125552381Y-106622866D02*
X125590476Y-106737152D01*
X125590476Y-106737152D02*
X126047619Y-107194295D01*
X126047619Y-107194295D02*
X125552381Y-107194295D01*
X125057142Y-106394295D02*
X124980952Y-106394295D01*
X124980952Y-106394295D02*
X124904761Y-106432390D01*
X124904761Y-106432390D02*
X124866666Y-106470485D01*
X124866666Y-106470485D02*
X124828571Y-106546676D01*
X124828571Y-106546676D02*
X124790476Y-106699057D01*
X124790476Y-106699057D02*
X124790476Y-106889533D01*
X124790476Y-106889533D02*
X124828571Y-107041914D01*
X124828571Y-107041914D02*
X124866666Y-107118104D01*
X124866666Y-107118104D02*
X124904761Y-107156200D01*
X124904761Y-107156200D02*
X124980952Y-107194295D01*
X124980952Y-107194295D02*
X125057142Y-107194295D01*
X125057142Y-107194295D02*
X125133333Y-107156200D01*
X125133333Y-107156200D02*
X125171428Y-107118104D01*
X125171428Y-107118104D02*
X125209523Y-107041914D01*
X125209523Y-107041914D02*
X125247619Y-106889533D01*
X125247619Y-106889533D02*
X125247619Y-106699057D01*
X125247619Y-106699057D02*
X125209523Y-106546676D01*
X125209523Y-106546676D02*
X125171428Y-106470485D01*
X125171428Y-106470485D02*
X125133333Y-106432390D01*
X125133333Y-106432390D02*
X125057142Y-106394295D01*
D11*
X147226003Y-118669380D02*
X147273622Y-118717000D01*
X147273622Y-118717000D02*
X147416479Y-118764619D01*
X147416479Y-118764619D02*
X147511717Y-118764619D01*
X147511717Y-118764619D02*
X147654574Y-118717000D01*
X147654574Y-118717000D02*
X147749812Y-118621761D01*
X147749812Y-118621761D02*
X147797431Y-118526523D01*
X147797431Y-118526523D02*
X147845050Y-118336047D01*
X147845050Y-118336047D02*
X147845050Y-118193190D01*
X147845050Y-118193190D02*
X147797431Y-118002714D01*
X147797431Y-118002714D02*
X147749812Y-117907476D01*
X147749812Y-117907476D02*
X147654574Y-117812238D01*
X147654574Y-117812238D02*
X147511717Y-117764619D01*
X147511717Y-117764619D02*
X147416479Y-117764619D01*
X147416479Y-117764619D02*
X147273622Y-117812238D01*
X147273622Y-117812238D02*
X147226003Y-117859857D01*
D10*
X113352380Y-106394295D02*
X113733332Y-106394295D01*
X113733332Y-106394295D02*
X113771428Y-106775247D01*
X113771428Y-106775247D02*
X113733332Y-106737152D01*
X113733332Y-106737152D02*
X113657142Y-106699057D01*
X113657142Y-106699057D02*
X113466666Y-106699057D01*
X113466666Y-106699057D02*
X113390475Y-106737152D01*
X113390475Y-106737152D02*
X113352380Y-106775247D01*
X113352380Y-106775247D02*
X113314285Y-106851438D01*
X113314285Y-106851438D02*
X113314285Y-107041914D01*
X113314285Y-107041914D02*
X113352380Y-107118104D01*
X113352380Y-107118104D02*
X113390475Y-107156200D01*
X113390475Y-107156200D02*
X113466666Y-107194295D01*
X113466666Y-107194295D02*
X113657142Y-107194295D01*
X113657142Y-107194295D02*
X113733332Y-107156200D01*
X113733332Y-107156200D02*
X113771428Y-107118104D01*
X113085713Y-106394295D02*
X112819046Y-107194295D01*
X112819046Y-107194295D02*
X112552380Y-106394295D01*
X141263220Y-115569819D02*
X141263220Y-114903152D01*
X141263220Y-115093628D02*
X141215601Y-114998390D01*
X141215601Y-114998390D02*
X141167982Y-114950771D01*
X141167982Y-114950771D02*
X141072744Y-114903152D01*
X141072744Y-114903152D02*
X140977506Y-114903152D01*
X140691791Y-114665057D02*
X140644172Y-114617438D01*
X140644172Y-114617438D02*
X140548934Y-114569819D01*
X140548934Y-114569819D02*
X140310839Y-114569819D01*
X140310839Y-114569819D02*
X140215601Y-114617438D01*
X140215601Y-114617438D02*
X140167982Y-114665057D01*
X140167982Y-114665057D02*
X140120363Y-114760295D01*
X140120363Y-114760295D02*
X140120363Y-114855533D01*
X140120363Y-114855533D02*
X140167982Y-114998390D01*
X140167982Y-114998390D02*
X140739410Y-115569819D01*
X140739410Y-115569819D02*
X140120363Y-115569819D01*
X139691791Y-115474580D02*
X139644172Y-115522200D01*
X139644172Y-115522200D02*
X139691791Y-115569819D01*
X139691791Y-115569819D02*
X139739410Y-115522200D01*
X139739410Y-115522200D02*
X139691791Y-115474580D01*
X139691791Y-115474580D02*
X139691791Y-115569819D01*
X139025125Y-114569819D02*
X138929887Y-114569819D01*
X138929887Y-114569819D02*
X138834649Y-114617438D01*
X138834649Y-114617438D02*
X138787030Y-114665057D01*
X138787030Y-114665057D02*
X138739411Y-114760295D01*
X138739411Y-114760295D02*
X138691792Y-114950771D01*
X138691792Y-114950771D02*
X138691792Y-115188866D01*
X138691792Y-115188866D02*
X138739411Y-115379342D01*
X138739411Y-115379342D02*
X138787030Y-115474580D01*
X138787030Y-115474580D02*
X138834649Y-115522200D01*
X138834649Y-115522200D02*
X138929887Y-115569819D01*
X138929887Y-115569819D02*
X139025125Y-115569819D01*
X139025125Y-115569819D02*
X139120363Y-115522200D01*
X139120363Y-115522200D02*
X139167982Y-115474580D01*
X139167982Y-115474580D02*
X139215601Y-115379342D01*
X139215601Y-115379342D02*
X139263220Y-115188866D01*
X139263220Y-115188866D02*
X139263220Y-114950771D01*
X139263220Y-114950771D02*
X139215601Y-114760295D01*
X139215601Y-114760295D02*
X139167982Y-114665057D01*
X139167982Y-114665057D02*
X139120363Y-114617438D01*
X139120363Y-114617438D02*
X139025125Y-114569819D01*
X124271428Y-101294295D02*
X124271428Y-100494295D01*
X124271428Y-100494295D02*
X124080952Y-100494295D01*
X124080952Y-100494295D02*
X123966666Y-100532390D01*
X123966666Y-100532390D02*
X123890476Y-100608580D01*
X123890476Y-100608580D02*
X123852381Y-100684771D01*
X123852381Y-100684771D02*
X123814285Y-100837152D01*
X123814285Y-100837152D02*
X123814285Y-100951438D01*
X123814285Y-100951438D02*
X123852381Y-101103819D01*
X123852381Y-101103819D02*
X123890476Y-101180009D01*
X123890476Y-101180009D02*
X123966666Y-101256200D01*
X123966666Y-101256200D02*
X124080952Y-101294295D01*
X124080952Y-101294295D02*
X124271428Y-101294295D01*
X123509524Y-100570485D02*
X123471428Y-100532390D01*
X123471428Y-100532390D02*
X123395238Y-100494295D01*
X123395238Y-100494295D02*
X123204762Y-100494295D01*
X123204762Y-100494295D02*
X123128571Y-100532390D01*
X123128571Y-100532390D02*
X123090476Y-100570485D01*
X123090476Y-100570485D02*
X123052381Y-100646676D01*
X123052381Y-100646676D02*
X123052381Y-100722866D01*
X123052381Y-100722866D02*
X123090476Y-100837152D01*
X123090476Y-100837152D02*
X123547619Y-101294295D01*
X123547619Y-101294295D02*
X123052381Y-101294295D01*
X122290476Y-101294295D02*
X122747619Y-101294295D01*
X122519047Y-101294295D02*
X122519047Y-100494295D01*
X122519047Y-100494295D02*
X122595238Y-100608580D01*
X122595238Y-100608580D02*
X122671428Y-100684771D01*
X122671428Y-100684771D02*
X122747619Y-100722866D01*
D11*
X141797431Y-117764619D02*
X141797431Y-118574142D01*
X141797431Y-118574142D02*
X141749812Y-118669380D01*
X141749812Y-118669380D02*
X141702193Y-118717000D01*
X141702193Y-118717000D02*
X141606955Y-118764619D01*
X141606955Y-118764619D02*
X141416479Y-118764619D01*
X141416479Y-118764619D02*
X141321241Y-118717000D01*
X141321241Y-118717000D02*
X141273622Y-118669380D01*
X141273622Y-118669380D02*
X141226003Y-118574142D01*
X141226003Y-118574142D02*
X141226003Y-117764619D01*
X140797431Y-118717000D02*
X140654574Y-118764619D01*
X140654574Y-118764619D02*
X140416479Y-118764619D01*
X140416479Y-118764619D02*
X140321241Y-118717000D01*
X140321241Y-118717000D02*
X140273622Y-118669380D01*
X140273622Y-118669380D02*
X140226003Y-118574142D01*
X140226003Y-118574142D02*
X140226003Y-118478904D01*
X140226003Y-118478904D02*
X140273622Y-118383666D01*
X140273622Y-118383666D02*
X140321241Y-118336047D01*
X140321241Y-118336047D02*
X140416479Y-118288428D01*
X140416479Y-118288428D02*
X140606955Y-118240809D01*
X140606955Y-118240809D02*
X140702193Y-118193190D01*
X140702193Y-118193190D02*
X140749812Y-118145571D01*
X140749812Y-118145571D02*
X140797431Y-118050333D01*
X140797431Y-118050333D02*
X140797431Y-117955095D01*
X140797431Y-117955095D02*
X140749812Y-117859857D01*
X140749812Y-117859857D02*
X140702193Y-117812238D01*
X140702193Y-117812238D02*
X140606955Y-117764619D01*
X140606955Y-117764619D02*
X140368860Y-117764619D01*
X140368860Y-117764619D02*
X140226003Y-117812238D01*
D10*
X114190476Y-100494295D02*
X113695238Y-100494295D01*
X113695238Y-100494295D02*
X113961904Y-100799057D01*
X113961904Y-100799057D02*
X113847619Y-100799057D01*
X113847619Y-100799057D02*
X113771428Y-100837152D01*
X113771428Y-100837152D02*
X113733333Y-100875247D01*
X113733333Y-100875247D02*
X113695238Y-100951438D01*
X113695238Y-100951438D02*
X113695238Y-101141914D01*
X113695238Y-101141914D02*
X113733333Y-101218104D01*
X113733333Y-101218104D02*
X113771428Y-101256200D01*
X113771428Y-101256200D02*
X113847619Y-101294295D01*
X113847619Y-101294295D02*
X114076190Y-101294295D01*
X114076190Y-101294295D02*
X114152381Y-101256200D01*
X114152381Y-101256200D02*
X114190476Y-101218104D01*
X113466666Y-100494295D02*
X113199999Y-101294295D01*
X113199999Y-101294295D02*
X112933333Y-100494295D01*
X112742857Y-100494295D02*
X112247619Y-100494295D01*
X112247619Y-100494295D02*
X112514285Y-100799057D01*
X112514285Y-100799057D02*
X112400000Y-100799057D01*
X112400000Y-100799057D02*
X112323809Y-100837152D01*
X112323809Y-100837152D02*
X112285714Y-100875247D01*
X112285714Y-100875247D02*
X112247619Y-100951438D01*
X112247619Y-100951438D02*
X112247619Y-101141914D01*
X112247619Y-101141914D02*
X112285714Y-101218104D01*
X112285714Y-101218104D02*
X112323809Y-101256200D01*
X112323809Y-101256200D02*
X112400000Y-101294295D01*
X112400000Y-101294295D02*
X112628571Y-101294295D01*
X112628571Y-101294295D02*
X112704762Y-101256200D01*
X112704762Y-101256200D02*
X112742857Y-101218104D01*
X141709523Y-106432390D02*
X141785713Y-106394295D01*
X141785713Y-106394295D02*
X141899999Y-106394295D01*
X141899999Y-106394295D02*
X142014285Y-106432390D01*
X142014285Y-106432390D02*
X142090475Y-106508580D01*
X142090475Y-106508580D02*
X142128570Y-106584771D01*
X142128570Y-106584771D02*
X142166666Y-106737152D01*
X142166666Y-106737152D02*
X142166666Y-106851438D01*
X142166666Y-106851438D02*
X142128570Y-107003819D01*
X142128570Y-107003819D02*
X142090475Y-107080009D01*
X142090475Y-107080009D02*
X142014285Y-107156200D01*
X142014285Y-107156200D02*
X141899999Y-107194295D01*
X141899999Y-107194295D02*
X141823808Y-107194295D01*
X141823808Y-107194295D02*
X141709523Y-107156200D01*
X141709523Y-107156200D02*
X141671427Y-107118104D01*
X141671427Y-107118104D02*
X141671427Y-106851438D01*
X141671427Y-106851438D02*
X141823808Y-106851438D01*
X141328570Y-107194295D02*
X141328570Y-106394295D01*
X141328570Y-106394295D02*
X140871427Y-107194295D01*
X140871427Y-107194295D02*
X140871427Y-106394295D01*
X140490475Y-107194295D02*
X140490475Y-106394295D01*
X140490475Y-106394295D02*
X140299999Y-106394295D01*
X140299999Y-106394295D02*
X140185713Y-106432390D01*
X140185713Y-106432390D02*
X140109523Y-106508580D01*
X140109523Y-106508580D02*
X140071428Y-106584771D01*
X140071428Y-106584771D02*
X140033332Y-106737152D01*
X140033332Y-106737152D02*
X140033332Y-106851438D01*
X140033332Y-106851438D02*
X140071428Y-107003819D01*
X140071428Y-107003819D02*
X140109523Y-107080009D01*
X140109523Y-107080009D02*
X140185713Y-107156200D01*
X140185713Y-107156200D02*
X140299999Y-107194295D01*
X140299999Y-107194295D02*
X140490475Y-107194295D01*
X146790475Y-107194295D02*
X146790475Y-106394295D01*
X146790475Y-106394295D02*
X146599999Y-106394295D01*
X146599999Y-106394295D02*
X146485713Y-106432390D01*
X146485713Y-106432390D02*
X146409523Y-106508580D01*
X146409523Y-106508580D02*
X146371428Y-106584771D01*
X146371428Y-106584771D02*
X146333332Y-106737152D01*
X146333332Y-106737152D02*
X146333332Y-106851438D01*
X146333332Y-106851438D02*
X146371428Y-107003819D01*
X146371428Y-107003819D02*
X146409523Y-107080009D01*
X146409523Y-107080009D02*
X146485713Y-107156200D01*
X146485713Y-107156200D02*
X146599999Y-107194295D01*
X146599999Y-107194295D02*
X146790475Y-107194295D01*
X146028571Y-106470485D02*
X145990475Y-106432390D01*
X145990475Y-106432390D02*
X145914285Y-106394295D01*
X145914285Y-106394295D02*
X145723809Y-106394295D01*
X145723809Y-106394295D02*
X145647618Y-106432390D01*
X145647618Y-106432390D02*
X145609523Y-106470485D01*
X145609523Y-106470485D02*
X145571428Y-106546676D01*
X145571428Y-106546676D02*
X145571428Y-106622866D01*
X145571428Y-106622866D02*
X145609523Y-106737152D01*
X145609523Y-106737152D02*
X146066666Y-107194295D01*
X146066666Y-107194295D02*
X145571428Y-107194295D01*
X141790475Y-101294295D02*
X141790475Y-100494295D01*
X141790475Y-100494295D02*
X141599999Y-100494295D01*
X141599999Y-100494295D02*
X141485713Y-100532390D01*
X141485713Y-100532390D02*
X141409523Y-100608580D01*
X141409523Y-100608580D02*
X141371428Y-100684771D01*
X141371428Y-100684771D02*
X141333332Y-100837152D01*
X141333332Y-100837152D02*
X141333332Y-100951438D01*
X141333332Y-100951438D02*
X141371428Y-101103819D01*
X141371428Y-101103819D02*
X141409523Y-101180009D01*
X141409523Y-101180009D02*
X141485713Y-101256200D01*
X141485713Y-101256200D02*
X141599999Y-101294295D01*
X141599999Y-101294295D02*
X141790475Y-101294295D01*
X140647618Y-100760961D02*
X140647618Y-101294295D01*
X140838094Y-100456200D02*
X141028571Y-101027628D01*
X141028571Y-101027628D02*
X140533332Y-101027628D01*
X126409523Y-100532390D02*
X126485713Y-100494295D01*
X126485713Y-100494295D02*
X126599999Y-100494295D01*
X126599999Y-100494295D02*
X126714285Y-100532390D01*
X126714285Y-100532390D02*
X126790475Y-100608580D01*
X126790475Y-100608580D02*
X126828570Y-100684771D01*
X126828570Y-100684771D02*
X126866666Y-100837152D01*
X126866666Y-100837152D02*
X126866666Y-100951438D01*
X126866666Y-100951438D02*
X126828570Y-101103819D01*
X126828570Y-101103819D02*
X126790475Y-101180009D01*
X126790475Y-101180009D02*
X126714285Y-101256200D01*
X126714285Y-101256200D02*
X126599999Y-101294295D01*
X126599999Y-101294295D02*
X126523808Y-101294295D01*
X126523808Y-101294295D02*
X126409523Y-101256200D01*
X126409523Y-101256200D02*
X126371427Y-101218104D01*
X126371427Y-101218104D02*
X126371427Y-100951438D01*
X126371427Y-100951438D02*
X126523808Y-100951438D01*
X126028570Y-101294295D02*
X126028570Y-100494295D01*
X126028570Y-100494295D02*
X125571427Y-101294295D01*
X125571427Y-101294295D02*
X125571427Y-100494295D01*
X125190475Y-101294295D02*
X125190475Y-100494295D01*
X125190475Y-100494295D02*
X124999999Y-100494295D01*
X124999999Y-100494295D02*
X124885713Y-100532390D01*
X124885713Y-100532390D02*
X124809523Y-100608580D01*
X124809523Y-100608580D02*
X124771428Y-100684771D01*
X124771428Y-100684771D02*
X124733332Y-100837152D01*
X124733332Y-100837152D02*
X124733332Y-100951438D01*
X124733332Y-100951438D02*
X124771428Y-101103819D01*
X124771428Y-101103819D02*
X124809523Y-101180009D01*
X124809523Y-101180009D02*
X124885713Y-101256200D01*
X124885713Y-101256200D02*
X124999999Y-101294295D01*
X124999999Y-101294295D02*
X125190475Y-101294295D01*
X144309523Y-100532390D02*
X144385713Y-100494295D01*
X144385713Y-100494295D02*
X144499999Y-100494295D01*
X144499999Y-100494295D02*
X144614285Y-100532390D01*
X144614285Y-100532390D02*
X144690475Y-100608580D01*
X144690475Y-100608580D02*
X144728570Y-100684771D01*
X144728570Y-100684771D02*
X144766666Y-100837152D01*
X144766666Y-100837152D02*
X144766666Y-100951438D01*
X144766666Y-100951438D02*
X144728570Y-101103819D01*
X144728570Y-101103819D02*
X144690475Y-101180009D01*
X144690475Y-101180009D02*
X144614285Y-101256200D01*
X144614285Y-101256200D02*
X144499999Y-101294295D01*
X144499999Y-101294295D02*
X144423808Y-101294295D01*
X144423808Y-101294295D02*
X144309523Y-101256200D01*
X144309523Y-101256200D02*
X144271427Y-101218104D01*
X144271427Y-101218104D02*
X144271427Y-100951438D01*
X144271427Y-100951438D02*
X144423808Y-100951438D01*
X143928570Y-101294295D02*
X143928570Y-100494295D01*
X143928570Y-100494295D02*
X143471427Y-101294295D01*
X143471427Y-101294295D02*
X143471427Y-100494295D01*
X143090475Y-101294295D02*
X143090475Y-100494295D01*
X143090475Y-100494295D02*
X142899999Y-100494295D01*
X142899999Y-100494295D02*
X142785713Y-100532390D01*
X142785713Y-100532390D02*
X142709523Y-100608580D01*
X142709523Y-100608580D02*
X142671428Y-100684771D01*
X142671428Y-100684771D02*
X142633332Y-100837152D01*
X142633332Y-100837152D02*
X142633332Y-100951438D01*
X142633332Y-100951438D02*
X142671428Y-101103819D01*
X142671428Y-101103819D02*
X142709523Y-101180009D01*
X142709523Y-101180009D02*
X142785713Y-101256200D01*
X142785713Y-101256200D02*
X142899999Y-101294295D01*
X142899999Y-101294295D02*
X143090475Y-101294295D01*
X139190475Y-107194295D02*
X139190475Y-106394295D01*
X139190475Y-106394295D02*
X138999999Y-106394295D01*
X138999999Y-106394295D02*
X138885713Y-106432390D01*
X138885713Y-106432390D02*
X138809523Y-106508580D01*
X138809523Y-106508580D02*
X138771428Y-106584771D01*
X138771428Y-106584771D02*
X138733332Y-106737152D01*
X138733332Y-106737152D02*
X138733332Y-106851438D01*
X138733332Y-106851438D02*
X138771428Y-107003819D01*
X138771428Y-107003819D02*
X138809523Y-107080009D01*
X138809523Y-107080009D02*
X138885713Y-107156200D01*
X138885713Y-107156200D02*
X138999999Y-107194295D01*
X138999999Y-107194295D02*
X139190475Y-107194295D01*
X138047618Y-106394295D02*
X138199999Y-106394295D01*
X138199999Y-106394295D02*
X138276190Y-106432390D01*
X138276190Y-106432390D02*
X138314285Y-106470485D01*
X138314285Y-106470485D02*
X138390475Y-106584771D01*
X138390475Y-106584771D02*
X138428571Y-106737152D01*
X138428571Y-106737152D02*
X138428571Y-107041914D01*
X138428571Y-107041914D02*
X138390475Y-107118104D01*
X138390475Y-107118104D02*
X138352380Y-107156200D01*
X138352380Y-107156200D02*
X138276190Y-107194295D01*
X138276190Y-107194295D02*
X138123809Y-107194295D01*
X138123809Y-107194295D02*
X138047618Y-107156200D01*
X138047618Y-107156200D02*
X138009523Y-107118104D01*
X138009523Y-107118104D02*
X137971428Y-107041914D01*
X137971428Y-107041914D02*
X137971428Y-106851438D01*
X137971428Y-106851438D02*
X138009523Y-106775247D01*
X138009523Y-106775247D02*
X138047618Y-106737152D01*
X138047618Y-106737152D02*
X138123809Y-106699057D01*
X138123809Y-106699057D02*
X138276190Y-106699057D01*
X138276190Y-106699057D02*
X138352380Y-106737152D01*
X138352380Y-106737152D02*
X138390475Y-106775247D01*
X138390475Y-106775247D02*
X138428571Y-106851438D01*
G36*
X121730429Y-110806768D02*
G01*
X120642864Y-110806768D01*
X120642864Y-111326908D01*
X121115718Y-111326908D01*
X121115718Y-112036189D01*
X120666507Y-112036189D01*
X120666507Y-112556329D01*
X121115718Y-112556329D01*
X121115718Y-113785750D01*
X121730429Y-113785750D01*
X121730429Y-110806768D01*
G37*
G36*
X119690506Y-110759483D02*
G01*
X119690506Y-113785750D01*
X120249804Y-113785750D01*
X120249804Y-111461376D01*
X120533517Y-111461376D01*
X120533517Y-111043934D01*
X120500742Y-111040252D01*
X120469654Y-111035484D01*
X120440250Y-111029631D01*
X120405866Y-111020789D01*
X120374116Y-111010251D01*
X120344999Y-110998018D01*
X120318516Y-110984089D01*
X120293367Y-110967620D01*
X120268255Y-110948229D01*
X120243178Y-110925916D01*
X120218138Y-110900681D01*
X120198132Y-110878389D01*
X120178149Y-110854227D01*
X120158189Y-110828195D01*
X120107209Y-110759483D01*
X119690506Y-110759483D01*
G37*
G36*
X118642100Y-112434421D02*
G01*
X118027390Y-112434421D01*
X118027390Y-113212414D01*
X118027927Y-113246096D01*
X118029540Y-113278710D01*
X118032227Y-113310254D01*
X118035990Y-113340729D01*
X118040828Y-113370134D01*
X118053729Y-113425737D01*
X118070930Y-113477063D01*
X118092431Y-113524112D01*
X118118232Y-113566883D01*
X118148334Y-113605378D01*
X118182736Y-113639595D01*
X118221438Y-113669535D01*
X118264441Y-113695198D01*
X118311744Y-113716584D01*
X118363346Y-113733693D01*
X118419250Y-113746524D01*
X118448814Y-113751336D01*
X118479453Y-113755078D01*
X118511168Y-113757752D01*
X118543957Y-113759356D01*
X118577821Y-113759890D01*
X118942806Y-113759890D01*
X118976670Y-113759355D01*
X119009460Y-113757749D01*
X119041174Y-113755072D01*
X119071813Y-113751324D01*
X119101377Y-113746506D01*
X119157281Y-113733657D01*
X119208884Y-113716526D01*
X119256186Y-113695111D01*
X119299189Y-113669413D01*
X119337891Y-113639433D01*
X119372293Y-113605169D01*
X119402395Y-113566623D01*
X119428196Y-113523794D01*
X119449697Y-113476681D01*
X119466898Y-113425286D01*
X119479799Y-113369608D01*
X119484637Y-113340163D01*
X119488400Y-113309647D01*
X119491087Y-113278060D01*
X119492700Y-113245403D01*
X119493237Y-113211675D01*
X119493237Y-111307698D01*
X119492696Y-111273970D01*
X119491073Y-111241313D01*
X119488367Y-111209726D01*
X119484579Y-111179210D01*
X119479709Y-111149765D01*
X119466722Y-111094087D01*
X119449405Y-111042692D01*
X119427760Y-110995580D01*
X119401785Y-110952750D01*
X119371481Y-110914204D01*
X119336848Y-110879940D01*
X119297886Y-110849960D01*
X119254595Y-110824262D01*
X119206975Y-110802848D01*
X119155026Y-110785716D01*
X119098747Y-110772867D01*
X119068985Y-110768049D01*
X119038140Y-110764301D01*
X119006213Y-110761624D01*
X118973203Y-110760018D01*
X118939112Y-110759483D01*
X118582254Y-110759483D01*
X118548117Y-110760017D01*
X118515064Y-110761619D01*
X118483094Y-110764288D01*
X118452208Y-110768026D01*
X118422406Y-110772831D01*
X118366052Y-110785645D01*
X118314034Y-110802731D01*
X118266350Y-110824088D01*
X118223001Y-110849716D01*
X118183987Y-110879616D01*
X118149308Y-110913787D01*
X118118964Y-110952229D01*
X118092955Y-110994943D01*
X118071280Y-111041928D01*
X118053941Y-111093185D01*
X118040936Y-111148713D01*
X118036059Y-111178079D01*
X118032266Y-111208513D01*
X118029557Y-111240014D01*
X118027931Y-111272583D01*
X118027390Y-111306221D01*
X118027390Y-111995553D01*
X118642100Y-111995553D01*
X118642100Y-111360894D01*
X118644301Y-111330031D01*
X118652751Y-111299901D01*
X118670620Y-111274269D01*
X118697116Y-111258890D01*
X118726692Y-111253868D01*
X118732238Y-111253763D01*
X118788389Y-111253763D01*
X118819022Y-111257530D01*
X118846750Y-111271444D01*
X118865851Y-111295611D01*
X118875358Y-111324486D01*
X118878439Y-111354303D01*
X118878527Y-111360894D01*
X118878527Y-113158479D01*
X118876399Y-113189342D01*
X118868225Y-113219472D01*
X118850942Y-113245104D01*
X118825315Y-113260484D01*
X118791345Y-113265610D01*
X118728544Y-113265610D01*
X118699166Y-113261844D01*
X118672575Y-113247929D01*
X118654256Y-113223762D01*
X118645139Y-113194887D01*
X118642184Y-113165070D01*
X118642100Y-113158479D01*
X118642100Y-112434421D01*
G37*
G36*
X117602560Y-112597703D02*
G01*
X117127489Y-111984471D01*
X117109400Y-111959420D01*
X117093090Y-111934695D01*
X117074111Y-111902232D01*
X117058295Y-111870347D01*
X117045643Y-111839039D01*
X117036153Y-111808308D01*
X117029827Y-111778154D01*
X117026664Y-111748578D01*
X117026269Y-111734006D01*
X117026269Y-111362372D01*
X117028902Y-111331083D01*
X117039015Y-111300537D01*
X117060399Y-111274552D01*
X117086945Y-111260551D01*
X117121076Y-111254188D01*
X117134139Y-111253763D01*
X117171819Y-111253763D01*
X117202682Y-111256451D01*
X117232813Y-111266772D01*
X117258445Y-111288595D01*
X117272254Y-111315687D01*
X117278532Y-111350519D01*
X117278950Y-111363850D01*
X117278950Y-111872168D01*
X117838248Y-111872168D01*
X117838248Y-111313609D01*
X117837719Y-111279517D01*
X117836132Y-111246508D01*
X117833488Y-111214581D01*
X117829786Y-111183736D01*
X117825026Y-111153973D01*
X117812333Y-111097695D01*
X117795409Y-111045745D01*
X117774254Y-110998125D01*
X117748868Y-110954834D01*
X117719252Y-110915872D01*
X117685404Y-110881239D01*
X117647325Y-110850935D01*
X117605015Y-110824961D01*
X117558474Y-110803315D01*
X117507702Y-110785999D01*
X117452700Y-110773011D01*
X117393466Y-110764353D01*
X117362262Y-110761647D01*
X117330001Y-110760024D01*
X117296682Y-110759483D01*
X117008537Y-110759483D01*
X116975218Y-110760036D01*
X116942956Y-110761694D01*
X116911753Y-110764457D01*
X116881607Y-110768326D01*
X116824489Y-110779380D01*
X116771602Y-110794855D01*
X116722945Y-110814751D01*
X116678520Y-110839069D01*
X116638326Y-110867809D01*
X116602362Y-110900970D01*
X116570630Y-110938552D01*
X116543129Y-110980556D01*
X116519858Y-111026981D01*
X116500819Y-111077828D01*
X116486010Y-111133097D01*
X116480193Y-111162389D01*
X116475433Y-111192786D01*
X116471731Y-111224289D01*
X116469086Y-111256898D01*
X116467500Y-111290611D01*
X116466971Y-111325430D01*
X116466971Y-111782769D01*
X116467892Y-111821269D01*
X116470654Y-111859746D01*
X116475257Y-111898200D01*
X116481701Y-111936631D01*
X116489987Y-111975039D01*
X116500115Y-112013424D01*
X116512083Y-112051785D01*
X116525893Y-112090124D01*
X116541544Y-112128440D01*
X116559037Y-112166732D01*
X116578370Y-112205001D01*
X116599546Y-112243248D01*
X116622562Y-112281471D01*
X116647420Y-112319671D01*
X116674119Y-112357848D01*
X116702659Y-112396002D01*
X117177730Y-113013667D01*
X117195819Y-113038856D01*
X117212129Y-113063720D01*
X117231108Y-113096368D01*
X117246923Y-113128438D01*
X117259576Y-113159931D01*
X117269065Y-113190846D01*
X117275392Y-113221185D01*
X117278555Y-113250946D01*
X117278950Y-113265610D01*
X116466971Y-113265610D01*
X116466971Y-113785750D01*
X117838248Y-113785750D01*
X117838248Y-113206503D01*
X117837806Y-113175223D01*
X117836482Y-113144554D01*
X117834274Y-113114494D01*
X117831183Y-113085046D01*
X117825688Y-113046730D01*
X117818623Y-113009500D01*
X117809988Y-112973355D01*
X117799782Y-112938295D01*
X117788007Y-112904320D01*
X117773958Y-112870276D01*
X117757299Y-112835008D01*
X117743093Y-112807754D01*
X117727420Y-112779812D01*
X117710279Y-112751181D01*
X117691670Y-112721862D01*
X117671594Y-112691855D01*
X117650050Y-112661160D01*
X117627039Y-112629776D01*
X117602560Y-112597703D01*
G37*
G36*
X115776039Y-110760018D02*
G01*
X115808828Y-110761624D01*
X115840542Y-110764301D01*
X115871182Y-110768049D01*
X115900746Y-110772867D01*
X115956649Y-110785716D01*
X116008252Y-110802848D01*
X116055555Y-110824262D01*
X116098557Y-110849960D01*
X116137259Y-110879940D01*
X116171661Y-110914204D01*
X116201763Y-110952750D01*
X116227565Y-110995580D01*
X116249066Y-111042692D01*
X116266267Y-111094087D01*
X116279168Y-111149765D01*
X116284005Y-111179210D01*
X116287768Y-111209726D01*
X116290456Y-111241313D01*
X116292068Y-111273970D01*
X116292606Y-111307698D01*
X116292606Y-113211675D01*
X116292068Y-113245403D01*
X116290456Y-113278060D01*
X116287768Y-113309647D01*
X116284005Y-113340163D01*
X116279168Y-113369608D01*
X116266267Y-113425286D01*
X116249066Y-113476681D01*
X116227565Y-113523794D01*
X116201763Y-113566623D01*
X116171661Y-113605169D01*
X116137259Y-113639433D01*
X116098557Y-113669413D01*
X116055555Y-113695111D01*
X116008252Y-113716526D01*
X115956649Y-113733657D01*
X115900746Y-113746506D01*
X115871182Y-113751324D01*
X115840542Y-113755072D01*
X115808828Y-113757749D01*
X115776039Y-113759355D01*
X115742174Y-113759890D01*
X115377190Y-113759890D01*
X115343325Y-113759355D01*
X115310536Y-113757749D01*
X115278822Y-113755072D01*
X115248182Y-113751324D01*
X115218618Y-113746506D01*
X115162715Y-113733657D01*
X115111112Y-113716526D01*
X115063809Y-113695111D01*
X115020807Y-113669413D01*
X114982105Y-113639433D01*
X114947703Y-113605169D01*
X114917601Y-113566623D01*
X114891799Y-113523794D01*
X114870298Y-113476681D01*
X114853097Y-113425286D01*
X114840196Y-113369608D01*
X114835359Y-113340163D01*
X114831596Y-113309647D01*
X114828908Y-113278060D01*
X114827296Y-113245403D01*
X114826758Y-113211675D01*
X114826758Y-113158479D01*
X115394183Y-113158479D01*
X115396088Y-113183588D01*
X115406088Y-113214974D01*
X115424660Y-113238827D01*
X115451803Y-113255148D01*
X115480971Y-113262994D01*
X115516091Y-113265610D01*
X115603273Y-113265610D01*
X115631845Y-113263936D01*
X115662203Y-113257136D01*
X115690775Y-113242070D01*
X115710776Y-113219472D01*
X115722205Y-113189342D01*
X115725181Y-113158479D01*
X115725181Y-111360894D01*
X115723276Y-111335785D01*
X115713276Y-111304399D01*
X115694704Y-111280546D01*
X115667560Y-111264225D01*
X115638393Y-111256379D01*
X115603273Y-111253763D01*
X115516091Y-111253763D01*
X115487519Y-111255437D01*
X115457161Y-111262238D01*
X115428589Y-111277303D01*
X115408588Y-111299901D01*
X115397159Y-111330031D01*
X115394183Y-111360894D01*
X115394183Y-113158479D01*
X114826758Y-113158479D01*
X114826758Y-111307698D01*
X114827296Y-111273970D01*
X114828908Y-111241313D01*
X114831596Y-111209726D01*
X114835359Y-111179210D01*
X114840196Y-111149765D01*
X114853097Y-111094087D01*
X114870298Y-111042692D01*
X114891799Y-110995580D01*
X114917601Y-110952750D01*
X114947703Y-110914204D01*
X114982105Y-110879940D01*
X115020807Y-110849960D01*
X115063809Y-110824262D01*
X115111112Y-110802848D01*
X115162715Y-110785716D01*
X115218618Y-110772867D01*
X115248182Y-110768049D01*
X115278822Y-110764301D01*
X115310536Y-110761624D01*
X115343325Y-110760018D01*
X115377190Y-110759483D01*
X115742174Y-110759483D01*
X115776039Y-110760018D01*
G37*
G36*
X114118094Y-110760018D02*
G01*
X114150883Y-110761624D01*
X114182597Y-110764301D01*
X114213237Y-110768049D01*
X114242801Y-110772867D01*
X114298704Y-110785716D01*
X114350307Y-110802848D01*
X114397610Y-110824262D01*
X114440612Y-110849960D01*
X114479315Y-110879940D01*
X114513717Y-110914204D01*
X114543818Y-110952750D01*
X114569620Y-110995580D01*
X114591121Y-111042692D01*
X114608322Y-111094087D01*
X114621223Y-111149765D01*
X114626061Y-111179210D01*
X114629823Y-111209726D01*
X114632511Y-111241313D01*
X114634124Y-111273970D01*
X114634661Y-111307698D01*
X114634661Y-113211675D01*
X114634124Y-113245403D01*
X114632511Y-113278060D01*
X114629823Y-113309647D01*
X114626061Y-113340163D01*
X114621223Y-113369608D01*
X114608322Y-113425286D01*
X114591121Y-113476681D01*
X114569620Y-113523794D01*
X114543818Y-113566623D01*
X114513717Y-113605169D01*
X114479315Y-113639433D01*
X114440612Y-113669413D01*
X114397610Y-113695111D01*
X114350307Y-113716526D01*
X114298704Y-113733657D01*
X114242801Y-113746506D01*
X114213237Y-113751324D01*
X114182597Y-113755072D01*
X114150883Y-113757749D01*
X114118094Y-113759355D01*
X114084229Y-113759890D01*
X113719245Y-113759890D01*
X113685381Y-113759355D01*
X113652591Y-113757749D01*
X113620877Y-113755072D01*
X113590238Y-113751324D01*
X113560673Y-113746506D01*
X113504770Y-113733657D01*
X113453167Y-113716526D01*
X113405864Y-113695111D01*
X113362862Y-113669413D01*
X113324160Y-113639433D01*
X113289758Y-113605169D01*
X113259656Y-113566623D01*
X113233854Y-113523794D01*
X113212353Y-113476681D01*
X113195152Y-113425286D01*
X113182251Y-113369608D01*
X113177414Y-113340163D01*
X113173651Y-113309647D01*
X113170963Y-113278060D01*
X113169351Y-113245403D01*
X113168813Y-113211675D01*
X113168813Y-113158479D01*
X113736238Y-113158479D01*
X113738143Y-113183588D01*
X113748143Y-113214974D01*
X113766715Y-113238827D01*
X113793859Y-113255148D01*
X113823026Y-113262994D01*
X113858146Y-113265610D01*
X113945328Y-113265610D01*
X113973900Y-113263936D01*
X114004258Y-113257136D01*
X114032830Y-113242070D01*
X114052831Y-113219472D01*
X114064260Y-113189342D01*
X114067236Y-113158479D01*
X114067236Y-111360894D01*
X114065331Y-111335785D01*
X114055331Y-111304399D01*
X114036759Y-111280546D01*
X114009616Y-111264225D01*
X113980448Y-111256379D01*
X113945328Y-111253763D01*
X113858146Y-111253763D01*
X113829574Y-111255437D01*
X113799216Y-111262238D01*
X113770644Y-111277303D01*
X113750643Y-111299901D01*
X113739214Y-111330031D01*
X113736238Y-111360894D01*
X113736238Y-113158479D01*
X113168813Y-113158479D01*
X113168813Y-111307698D01*
X113169351Y-111273970D01*
X113170963Y-111241313D01*
X113173651Y-111209726D01*
X113177414Y-111179210D01*
X113182251Y-111149765D01*
X113195152Y-111094087D01*
X113212353Y-111042692D01*
X113233854Y-110995580D01*
X113259656Y-110952750D01*
X113289758Y-110914204D01*
X113324160Y-110879940D01*
X113362862Y-110849960D01*
X113405864Y-110824262D01*
X113453167Y-110802848D01*
X113504770Y-110785716D01*
X113560673Y-110772867D01*
X113590238Y-110768049D01*
X113620877Y-110764301D01*
X113652591Y-110761624D01*
X113685381Y-110760018D01*
X113719245Y-110759483D01*
X114084229Y-110759483D01*
X114118094Y-110760018D01*
G37*
G36*
X112220150Y-112276310D02*
G01*
X112220150Y-111982254D01*
X112223033Y-111951621D01*
X112233684Y-111923893D01*
X112255469Y-111902767D01*
X112287504Y-111892909D01*
X112302160Y-111892116D01*
X112335408Y-111892116D01*
X112367363Y-111896500D01*
X112394273Y-111912247D01*
X112410931Y-111939445D01*
X112417098Y-111972638D01*
X112417418Y-111983732D01*
X112417418Y-112145537D01*
X112414613Y-112175901D01*
X112404249Y-112208240D01*
X112386249Y-112237256D01*
X112364742Y-112259482D01*
X112337624Y-112279266D01*
X111911317Y-112541552D01*
X111879235Y-112563555D01*
X111849485Y-112585605D01*
X111822068Y-112607701D01*
X111796982Y-112629843D01*
X111774228Y-112652031D01*
X111753806Y-112674265D01*
X111731558Y-112702123D01*
X111719959Y-112718872D01*
X111702931Y-112748415D01*
X111688789Y-112781168D01*
X111679553Y-112809683D01*
X111672165Y-112840252D01*
X111666624Y-112872876D01*
X111662930Y-112907555D01*
X111661083Y-112944289D01*
X111660852Y-112963427D01*
X111660852Y-113300335D01*
X111661363Y-113331654D01*
X111662895Y-113361979D01*
X111669025Y-113419645D01*
X111679242Y-113473335D01*
X111693545Y-113523048D01*
X111711935Y-113568783D01*
X111734412Y-113610542D01*
X111760975Y-113648323D01*
X111791625Y-113682128D01*
X111826362Y-113711956D01*
X111865186Y-113737806D01*
X111908096Y-113759680D01*
X111955093Y-113777576D01*
X112006176Y-113791496D01*
X112061346Y-113801438D01*
X112120603Y-113807404D01*
X112151764Y-113808895D01*
X112183947Y-113809392D01*
X112454360Y-113809392D01*
X112486497Y-113808884D01*
X112517614Y-113807360D01*
X112547711Y-113804821D01*
X112604844Y-113796693D01*
X112657895Y-113784503D01*
X112706866Y-113768248D01*
X112751756Y-113747930D01*
X112792565Y-113723549D01*
X112829293Y-113695104D01*
X112861941Y-113662595D01*
X112890507Y-113626023D01*
X112914992Y-113585387D01*
X112935397Y-113540687D01*
X112951721Y-113491924D01*
X112963963Y-113439098D01*
X112972125Y-113382207D01*
X112974676Y-113352238D01*
X112976206Y-113321253D01*
X112976716Y-113289253D01*
X112976716Y-112913925D01*
X112417418Y-112913925D01*
X112417418Y-113224974D01*
X112414094Y-113255607D01*
X112401810Y-113283335D01*
X112376690Y-113304461D01*
X112345013Y-113313703D01*
X112322848Y-113315112D01*
X112275562Y-113315112D01*
X112243423Y-113311891D01*
X112214331Y-113299992D01*
X112192166Y-113275656D01*
X112182469Y-113244969D01*
X112180991Y-113223496D01*
X112180991Y-113048393D01*
X112183926Y-113018253D01*
X112194770Y-112986045D01*
X112210424Y-112960971D01*
X112231949Y-112938235D01*
X112259343Y-112917836D01*
X112264480Y-112914663D01*
X112712952Y-112652377D01*
X112738710Y-112636011D01*
X112770873Y-112614129D01*
X112800542Y-112592177D01*
X112827717Y-112570157D01*
X112852399Y-112548067D01*
X112874587Y-112525907D01*
X112894281Y-112503679D01*
X112915393Y-112475796D01*
X112933059Y-112446058D01*
X112947731Y-112413182D01*
X112957313Y-112384622D01*
X112964979Y-112354053D01*
X112970728Y-112321475D01*
X112974560Y-112286888D01*
X112976477Y-112250292D01*
X112976716Y-112231241D01*
X112976716Y-111906154D01*
X112976202Y-111874881D01*
X112974661Y-111844600D01*
X112968497Y-111787017D01*
X112958222Y-111733405D01*
X112943838Y-111683765D01*
X112925344Y-111638096D01*
X112902740Y-111596398D01*
X112876027Y-111558671D01*
X112845204Y-111524916D01*
X112810271Y-111495131D01*
X112771228Y-111469318D01*
X112728075Y-111447476D01*
X112680813Y-111429606D01*
X112629441Y-111415707D01*
X112573959Y-111405779D01*
X112514367Y-111399822D01*
X112483030Y-111398332D01*
X112450666Y-111397836D01*
X112186902Y-111397836D01*
X112154538Y-111398344D01*
X112123201Y-111399868D01*
X112092891Y-111402408D01*
X112035354Y-111410535D01*
X111981927Y-111422726D01*
X111932610Y-111438980D01*
X111887403Y-111459298D01*
X111846305Y-111483679D01*
X111809317Y-111512125D01*
X111776439Y-111544633D01*
X111747671Y-111581206D01*
X111723012Y-111621841D01*
X111702463Y-111666541D01*
X111686024Y-111715304D01*
X111673695Y-111768131D01*
X111665475Y-111825021D01*
X111662907Y-111854990D01*
X111661365Y-111885975D01*
X111660852Y-111917976D01*
X111660852Y-112276310D01*
X112220150Y-112276310D01*
G37*
X134109523Y-106432390D02*
X134185713Y-106394295D01*
X134185713Y-106394295D02*
X134299999Y-106394295D01*
X134299999Y-106394295D02*
X134414285Y-106432390D01*
X134414285Y-106432390D02*
X134490475Y-106508580D01*
X134490475Y-106508580D02*
X134528570Y-106584771D01*
X134528570Y-106584771D02*
X134566666Y-106737152D01*
X134566666Y-106737152D02*
X134566666Y-106851438D01*
X134566666Y-106851438D02*
X134528570Y-107003819D01*
X134528570Y-107003819D02*
X134490475Y-107080009D01*
X134490475Y-107080009D02*
X134414285Y-107156200D01*
X134414285Y-107156200D02*
X134299999Y-107194295D01*
X134299999Y-107194295D02*
X134223808Y-107194295D01*
X134223808Y-107194295D02*
X134109523Y-107156200D01*
X134109523Y-107156200D02*
X134071427Y-107118104D01*
X134071427Y-107118104D02*
X134071427Y-106851438D01*
X134071427Y-106851438D02*
X134223808Y-106851438D01*
X133728570Y-107194295D02*
X133728570Y-106394295D01*
X133728570Y-106394295D02*
X133271427Y-107194295D01*
X133271427Y-107194295D02*
X133271427Y-106394295D01*
X132890475Y-107194295D02*
X132890475Y-106394295D01*
X132890475Y-106394295D02*
X132699999Y-106394295D01*
X132699999Y-106394295D02*
X132585713Y-106432390D01*
X132585713Y-106432390D02*
X132509523Y-106508580D01*
X132509523Y-106508580D02*
X132471428Y-106584771D01*
X132471428Y-106584771D02*
X132433332Y-106737152D01*
X132433332Y-106737152D02*
X132433332Y-106851438D01*
X132433332Y-106851438D02*
X132471428Y-107003819D01*
X132471428Y-107003819D02*
X132509523Y-107080009D01*
X132509523Y-107080009D02*
X132585713Y-107156200D01*
X132585713Y-107156200D02*
X132699999Y-107194295D01*
X132699999Y-107194295D02*
X132890475Y-107194295D01*
D11*
X147574812Y-120844619D02*
X147384336Y-120844619D01*
X147384336Y-120844619D02*
X147289098Y-120797000D01*
X147289098Y-120797000D02*
X147241479Y-120749380D01*
X147241479Y-120749380D02*
X147146241Y-120606523D01*
X147146241Y-120606523D02*
X147098622Y-120416047D01*
X147098622Y-120416047D02*
X147098622Y-120035095D01*
X147098622Y-120035095D02*
X147146241Y-119939857D01*
X147146241Y-119939857D02*
X147193860Y-119892238D01*
X147193860Y-119892238D02*
X147289098Y-119844619D01*
X147289098Y-119844619D02*
X147479574Y-119844619D01*
X147479574Y-119844619D02*
X147574812Y-119892238D01*
X147574812Y-119892238D02*
X147622431Y-119939857D01*
X147622431Y-119939857D02*
X147670050Y-120035095D01*
X147670050Y-120035095D02*
X147670050Y-120273190D01*
X147670050Y-120273190D02*
X147622431Y-120368428D01*
X147622431Y-120368428D02*
X147574812Y-120416047D01*
X147574812Y-120416047D02*
X147479574Y-120463666D01*
X147479574Y-120463666D02*
X147289098Y-120463666D01*
X147289098Y-120463666D02*
X147193860Y-120416047D01*
X147193860Y-120416047D02*
X147146241Y-120368428D01*
X147146241Y-120368428D02*
X147098622Y-120273190D01*
X146241479Y-120177952D02*
X146241479Y-120844619D01*
X146479574Y-119797000D02*
X146717669Y-120511285D01*
X146717669Y-120511285D02*
X146098622Y-120511285D01*
X145860526Y-119844619D02*
X145527193Y-120844619D01*
X145527193Y-120844619D02*
X145193860Y-119844619D01*
X144860526Y-120463666D02*
X144098622Y-120463666D01*
X143431955Y-119844619D02*
X143336717Y-119844619D01*
X143336717Y-119844619D02*
X143241479Y-119892238D01*
X143241479Y-119892238D02*
X143193860Y-119939857D01*
X143193860Y-119939857D02*
X143146241Y-120035095D01*
X143146241Y-120035095D02*
X143098622Y-120225571D01*
X143098622Y-120225571D02*
X143098622Y-120463666D01*
X143098622Y-120463666D02*
X143146241Y-120654142D01*
X143146241Y-120654142D02*
X143193860Y-120749380D01*
X143193860Y-120749380D02*
X143241479Y-120797000D01*
X143241479Y-120797000D02*
X143336717Y-120844619D01*
X143336717Y-120844619D02*
X143431955Y-120844619D01*
X143431955Y-120844619D02*
X143527193Y-120797000D01*
X143527193Y-120797000D02*
X143574812Y-120749380D01*
X143574812Y-120749380D02*
X143622431Y-120654142D01*
X143622431Y-120654142D02*
X143670050Y-120463666D01*
X143670050Y-120463666D02*
X143670050Y-120225571D01*
X143670050Y-120225571D02*
X143622431Y-120035095D01*
X143622431Y-120035095D02*
X143574812Y-119939857D01*
X143574812Y-119939857D02*
X143527193Y-119892238D01*
X143527193Y-119892238D02*
X143431955Y-119844619D01*
X147622431Y-121930809D02*
X147289098Y-121930809D01*
X147146241Y-122454619D02*
X147622431Y-122454619D01*
X147622431Y-122454619D02*
X147622431Y-121454619D01*
X147622431Y-121454619D02*
X147146241Y-121454619D01*
X146289098Y-121787952D02*
X146289098Y-122454619D01*
X146527193Y-121407000D02*
X146765288Y-122121285D01*
X146765288Y-122121285D02*
X146146241Y-122121285D01*
X145860526Y-121454619D02*
X145193860Y-121454619D01*
X145193860Y-121454619D02*
X145622431Y-122454619D01*
X144765288Y-122454619D02*
X144574812Y-122454619D01*
X144574812Y-122454619D02*
X144479574Y-122407000D01*
X144479574Y-122407000D02*
X144431955Y-122359380D01*
X144431955Y-122359380D02*
X144336717Y-122216523D01*
X144336717Y-122216523D02*
X144289098Y-122026047D01*
X144289098Y-122026047D02*
X144289098Y-121645095D01*
X144289098Y-121645095D02*
X144336717Y-121549857D01*
X144336717Y-121549857D02*
X144384336Y-121502238D01*
X144384336Y-121502238D02*
X144479574Y-121454619D01*
X144479574Y-121454619D02*
X144670050Y-121454619D01*
X144670050Y-121454619D02*
X144765288Y-121502238D01*
X144765288Y-121502238D02*
X144812907Y-121549857D01*
X144812907Y-121549857D02*
X144860526Y-121645095D01*
X144860526Y-121645095D02*
X144860526Y-121883190D01*
X144860526Y-121883190D02*
X144812907Y-121978428D01*
X144812907Y-121978428D02*
X144765288Y-122026047D01*
X144765288Y-122026047D02*
X144670050Y-122073666D01*
X144670050Y-122073666D02*
X144479574Y-122073666D01*
X144479574Y-122073666D02*
X144384336Y-122026047D01*
X144384336Y-122026047D02*
X144336717Y-121978428D01*
X144336717Y-121978428D02*
X144289098Y-121883190D01*
X143717669Y-121883190D02*
X143812907Y-121835571D01*
X143812907Y-121835571D02*
X143860526Y-121787952D01*
X143860526Y-121787952D02*
X143908145Y-121692714D01*
X143908145Y-121692714D02*
X143908145Y-121645095D01*
X143908145Y-121645095D02*
X143860526Y-121549857D01*
X143860526Y-121549857D02*
X143812907Y-121502238D01*
X143812907Y-121502238D02*
X143717669Y-121454619D01*
X143717669Y-121454619D02*
X143527193Y-121454619D01*
X143527193Y-121454619D02*
X143431955Y-121502238D01*
X143431955Y-121502238D02*
X143384336Y-121549857D01*
X143384336Y-121549857D02*
X143336717Y-121645095D01*
X143336717Y-121645095D02*
X143336717Y-121692714D01*
X143336717Y-121692714D02*
X143384336Y-121787952D01*
X143384336Y-121787952D02*
X143431955Y-121835571D01*
X143431955Y-121835571D02*
X143527193Y-121883190D01*
X143527193Y-121883190D02*
X143717669Y-121883190D01*
X143717669Y-121883190D02*
X143812907Y-121930809D01*
X143812907Y-121930809D02*
X143860526Y-121978428D01*
X143860526Y-121978428D02*
X143908145Y-122073666D01*
X143908145Y-122073666D02*
X143908145Y-122264142D01*
X143908145Y-122264142D02*
X143860526Y-122359380D01*
X143860526Y-122359380D02*
X143812907Y-122407000D01*
X143812907Y-122407000D02*
X143717669Y-122454619D01*
X143717669Y-122454619D02*
X143527193Y-122454619D01*
X143527193Y-122454619D02*
X143431955Y-122407000D01*
X143431955Y-122407000D02*
X143384336Y-122359380D01*
X143384336Y-122359380D02*
X143336717Y-122264142D01*
X143336717Y-122264142D02*
X143336717Y-122073666D01*
X143336717Y-122073666D02*
X143384336Y-121978428D01*
X143384336Y-121978428D02*
X143431955Y-121930809D01*
X143431955Y-121930809D02*
X143527193Y-121883190D01*
X142860526Y-122454619D02*
X142670050Y-122454619D01*
X142670050Y-122454619D02*
X142574812Y-122407000D01*
X142574812Y-122407000D02*
X142527193Y-122359380D01*
X142527193Y-122359380D02*
X142431955Y-122216523D01*
X142431955Y-122216523D02*
X142384336Y-122026047D01*
X142384336Y-122026047D02*
X142384336Y-121645095D01*
X142384336Y-121645095D02*
X142431955Y-121549857D01*
X142431955Y-121549857D02*
X142479574Y-121502238D01*
X142479574Y-121502238D02*
X142574812Y-121454619D01*
X142574812Y-121454619D02*
X142765288Y-121454619D01*
X142765288Y-121454619D02*
X142860526Y-121502238D01*
X142860526Y-121502238D02*
X142908145Y-121549857D01*
X142908145Y-121549857D02*
X142955764Y-121645095D01*
X142955764Y-121645095D02*
X142955764Y-121883190D01*
X142955764Y-121883190D02*
X142908145Y-121978428D01*
X142908145Y-121978428D02*
X142860526Y-122026047D01*
X142860526Y-122026047D02*
X142765288Y-122073666D01*
X142765288Y-122073666D02*
X142574812Y-122073666D01*
X142574812Y-122073666D02*
X142479574Y-122026047D01*
X142479574Y-122026047D02*
X142431955Y-121978428D01*
X142431955Y-121978428D02*
X142384336Y-121883190D01*
X142003383Y-121549857D02*
X141955764Y-121502238D01*
X141955764Y-121502238D02*
X141860526Y-121454619D01*
X141860526Y-121454619D02*
X141622431Y-121454619D01*
X141622431Y-121454619D02*
X141527193Y-121502238D01*
X141527193Y-121502238D02*
X141479574Y-121549857D01*
X141479574Y-121549857D02*
X141431955Y-121645095D01*
X141431955Y-121645095D02*
X141431955Y-121740333D01*
X141431955Y-121740333D02*
X141479574Y-121883190D01*
X141479574Y-121883190D02*
X142051002Y-122454619D01*
X142051002Y-122454619D02*
X141431955Y-122454619D01*
X147336717Y-123064619D02*
X147336717Y-123778904D01*
X147336717Y-123778904D02*
X147384336Y-123921761D01*
X147384336Y-123921761D02*
X147479574Y-124017000D01*
X147479574Y-124017000D02*
X147622431Y-124064619D01*
X147622431Y-124064619D02*
X147717669Y-124064619D01*
X146384336Y-124064619D02*
X146860526Y-124064619D01*
X146860526Y-124064619D02*
X146860526Y-123064619D01*
X145479574Y-123969380D02*
X145527193Y-124017000D01*
X145527193Y-124017000D02*
X145670050Y-124064619D01*
X145670050Y-124064619D02*
X145765288Y-124064619D01*
X145765288Y-124064619D02*
X145908145Y-124017000D01*
X145908145Y-124017000D02*
X146003383Y-123921761D01*
X146003383Y-123921761D02*
X146051002Y-123826523D01*
X146051002Y-123826523D02*
X146098621Y-123636047D01*
X146098621Y-123636047D02*
X146098621Y-123493190D01*
X146098621Y-123493190D02*
X146051002Y-123302714D01*
X146051002Y-123302714D02*
X146003383Y-123207476D01*
X146003383Y-123207476D02*
X145908145Y-123112238D01*
X145908145Y-123112238D02*
X145765288Y-123064619D01*
X145765288Y-123064619D02*
X145670050Y-123064619D01*
X145670050Y-123064619D02*
X145527193Y-123112238D01*
X145527193Y-123112238D02*
X145479574Y-123159857D01*
X145051002Y-123683666D02*
X144289098Y-123683666D01*
X143860526Y-123159857D02*
X143812907Y-123112238D01*
X143812907Y-123112238D02*
X143717669Y-123064619D01*
X143717669Y-123064619D02*
X143479574Y-123064619D01*
X143479574Y-123064619D02*
X143384336Y-123112238D01*
X143384336Y-123112238D02*
X143336717Y-123159857D01*
X143336717Y-123159857D02*
X143289098Y-123255095D01*
X143289098Y-123255095D02*
X143289098Y-123350333D01*
X143289098Y-123350333D02*
X143336717Y-123493190D01*
X143336717Y-123493190D02*
X143908145Y-124064619D01*
X143908145Y-124064619D02*
X143289098Y-124064619D01*
D10*
X129371428Y-101294295D02*
X129371428Y-100494295D01*
X129371428Y-100494295D02*
X129180952Y-100494295D01*
X129180952Y-100494295D02*
X129066666Y-100532390D01*
X129066666Y-100532390D02*
X128990476Y-100608580D01*
X128990476Y-100608580D02*
X128952381Y-100684771D01*
X128952381Y-100684771D02*
X128914285Y-100837152D01*
X128914285Y-100837152D02*
X128914285Y-100951438D01*
X128914285Y-100951438D02*
X128952381Y-101103819D01*
X128952381Y-101103819D02*
X128990476Y-101180009D01*
X128990476Y-101180009D02*
X129066666Y-101256200D01*
X129066666Y-101256200D02*
X129180952Y-101294295D01*
X129180952Y-101294295D02*
X129371428Y-101294295D01*
X128152381Y-101294295D02*
X128609524Y-101294295D01*
X128380952Y-101294295D02*
X128380952Y-100494295D01*
X128380952Y-100494295D02*
X128457143Y-100608580D01*
X128457143Y-100608580D02*
X128533333Y-100684771D01*
X128533333Y-100684771D02*
X128609524Y-100722866D01*
X127466666Y-100494295D02*
X127619047Y-100494295D01*
X127619047Y-100494295D02*
X127695238Y-100532390D01*
X127695238Y-100532390D02*
X127733333Y-100570485D01*
X127733333Y-100570485D02*
X127809523Y-100684771D01*
X127809523Y-100684771D02*
X127847619Y-100837152D01*
X127847619Y-100837152D02*
X127847619Y-101141914D01*
X127847619Y-101141914D02*
X127809523Y-101218104D01*
X127809523Y-101218104D02*
X127771428Y-101256200D01*
X127771428Y-101256200D02*
X127695238Y-101294295D01*
X127695238Y-101294295D02*
X127542857Y-101294295D01*
X127542857Y-101294295D02*
X127466666Y-101256200D01*
X127466666Y-101256200D02*
X127428571Y-101218104D01*
X127428571Y-101218104D02*
X127390476Y-101141914D01*
X127390476Y-101141914D02*
X127390476Y-100951438D01*
X127390476Y-100951438D02*
X127428571Y-100875247D01*
X127428571Y-100875247D02*
X127466666Y-100837152D01*
X127466666Y-100837152D02*
X127542857Y-100799057D01*
X127542857Y-100799057D02*
X127695238Y-100799057D01*
X127695238Y-100799057D02*
X127771428Y-100837152D01*
X127771428Y-100837152D02*
X127809523Y-100875247D01*
X127809523Y-100875247D02*
X127847619Y-100951438D01*
X118909523Y-100532390D02*
X118985713Y-100494295D01*
X118985713Y-100494295D02*
X119099999Y-100494295D01*
X119099999Y-100494295D02*
X119214285Y-100532390D01*
X119214285Y-100532390D02*
X119290475Y-100608580D01*
X119290475Y-100608580D02*
X119328570Y-100684771D01*
X119328570Y-100684771D02*
X119366666Y-100837152D01*
X119366666Y-100837152D02*
X119366666Y-100951438D01*
X119366666Y-100951438D02*
X119328570Y-101103819D01*
X119328570Y-101103819D02*
X119290475Y-101180009D01*
X119290475Y-101180009D02*
X119214285Y-101256200D01*
X119214285Y-101256200D02*
X119099999Y-101294295D01*
X119099999Y-101294295D02*
X119023808Y-101294295D01*
X119023808Y-101294295D02*
X118909523Y-101256200D01*
X118909523Y-101256200D02*
X118871427Y-101218104D01*
X118871427Y-101218104D02*
X118871427Y-100951438D01*
X118871427Y-100951438D02*
X119023808Y-100951438D01*
X118528570Y-101294295D02*
X118528570Y-100494295D01*
X118528570Y-100494295D02*
X118071427Y-101294295D01*
X118071427Y-101294295D02*
X118071427Y-100494295D01*
X117690475Y-101294295D02*
X117690475Y-100494295D01*
X117690475Y-100494295D02*
X117499999Y-100494295D01*
X117499999Y-100494295D02*
X117385713Y-100532390D01*
X117385713Y-100532390D02*
X117309523Y-100608580D01*
X117309523Y-100608580D02*
X117271428Y-100684771D01*
X117271428Y-100684771D02*
X117233332Y-100837152D01*
X117233332Y-100837152D02*
X117233332Y-100951438D01*
X117233332Y-100951438D02*
X117271428Y-101103819D01*
X117271428Y-101103819D02*
X117309523Y-101180009D01*
X117309523Y-101180009D02*
X117385713Y-101256200D01*
X117385713Y-101256200D02*
X117499999Y-101294295D01*
X117499999Y-101294295D02*
X117690475Y-101294295D01*
X134471428Y-101294295D02*
X134471428Y-100494295D01*
X134471428Y-100494295D02*
X134280952Y-100494295D01*
X134280952Y-100494295D02*
X134166666Y-100532390D01*
X134166666Y-100532390D02*
X134090476Y-100608580D01*
X134090476Y-100608580D02*
X134052381Y-100684771D01*
X134052381Y-100684771D02*
X134014285Y-100837152D01*
X134014285Y-100837152D02*
X134014285Y-100951438D01*
X134014285Y-100951438D02*
X134052381Y-101103819D01*
X134052381Y-101103819D02*
X134090476Y-101180009D01*
X134090476Y-101180009D02*
X134166666Y-101256200D01*
X134166666Y-101256200D02*
X134280952Y-101294295D01*
X134280952Y-101294295D02*
X134471428Y-101294295D01*
X133252381Y-101294295D02*
X133709524Y-101294295D01*
X133480952Y-101294295D02*
X133480952Y-100494295D01*
X133480952Y-100494295D02*
X133557143Y-100608580D01*
X133557143Y-100608580D02*
X133633333Y-100684771D01*
X133633333Y-100684771D02*
X133709524Y-100722866D01*
X132985714Y-100494295D02*
X132490476Y-100494295D01*
X132490476Y-100494295D02*
X132757142Y-100799057D01*
X132757142Y-100799057D02*
X132642857Y-100799057D01*
X132642857Y-100799057D02*
X132566666Y-100837152D01*
X132566666Y-100837152D02*
X132528571Y-100875247D01*
X132528571Y-100875247D02*
X132490476Y-100951438D01*
X132490476Y-100951438D02*
X132490476Y-101141914D01*
X132490476Y-101141914D02*
X132528571Y-101218104D01*
X132528571Y-101218104D02*
X132566666Y-101256200D01*
X132566666Y-101256200D02*
X132642857Y-101294295D01*
X132642857Y-101294295D02*
X132871428Y-101294295D01*
X132871428Y-101294295D02*
X132947619Y-101256200D01*
X132947619Y-101256200D02*
X132985714Y-101218104D01*
X136709523Y-100532390D02*
X136785713Y-100494295D01*
X136785713Y-100494295D02*
X136899999Y-100494295D01*
X136899999Y-100494295D02*
X137014285Y-100532390D01*
X137014285Y-100532390D02*
X137090475Y-100608580D01*
X137090475Y-100608580D02*
X137128570Y-100684771D01*
X137128570Y-100684771D02*
X137166666Y-100837152D01*
X137166666Y-100837152D02*
X137166666Y-100951438D01*
X137166666Y-100951438D02*
X137128570Y-101103819D01*
X137128570Y-101103819D02*
X137090475Y-101180009D01*
X137090475Y-101180009D02*
X137014285Y-101256200D01*
X137014285Y-101256200D02*
X136899999Y-101294295D01*
X136899999Y-101294295D02*
X136823808Y-101294295D01*
X136823808Y-101294295D02*
X136709523Y-101256200D01*
X136709523Y-101256200D02*
X136671427Y-101218104D01*
X136671427Y-101218104D02*
X136671427Y-100951438D01*
X136671427Y-100951438D02*
X136823808Y-100951438D01*
X136328570Y-101294295D02*
X136328570Y-100494295D01*
X136328570Y-100494295D02*
X135871427Y-101294295D01*
X135871427Y-101294295D02*
X135871427Y-100494295D01*
X135490475Y-101294295D02*
X135490475Y-100494295D01*
X135490475Y-100494295D02*
X135299999Y-100494295D01*
X135299999Y-100494295D02*
X135185713Y-100532390D01*
X135185713Y-100532390D02*
X135109523Y-100608580D01*
X135109523Y-100608580D02*
X135071428Y-100684771D01*
X135071428Y-100684771D02*
X135033332Y-100837152D01*
X135033332Y-100837152D02*
X135033332Y-100951438D01*
X135033332Y-100951438D02*
X135071428Y-101103819D01*
X135071428Y-101103819D02*
X135109523Y-101180009D01*
X135109523Y-101180009D02*
X135185713Y-101256200D01*
X135185713Y-101256200D02*
X135299999Y-101294295D01*
X135299999Y-101294295D02*
X135490475Y-101294295D01*
X131871428Y-101294295D02*
X131871428Y-100494295D01*
X131871428Y-100494295D02*
X131680952Y-100494295D01*
X131680952Y-100494295D02*
X131566666Y-100532390D01*
X131566666Y-100532390D02*
X131490476Y-100608580D01*
X131490476Y-100608580D02*
X131452381Y-100684771D01*
X131452381Y-100684771D02*
X131414285Y-100837152D01*
X131414285Y-100837152D02*
X131414285Y-100951438D01*
X131414285Y-100951438D02*
X131452381Y-101103819D01*
X131452381Y-101103819D02*
X131490476Y-101180009D01*
X131490476Y-101180009D02*
X131566666Y-101256200D01*
X131566666Y-101256200D02*
X131680952Y-101294295D01*
X131680952Y-101294295D02*
X131871428Y-101294295D01*
X130652381Y-101294295D02*
X131109524Y-101294295D01*
X130880952Y-101294295D02*
X130880952Y-100494295D01*
X130880952Y-100494295D02*
X130957143Y-100608580D01*
X130957143Y-100608580D02*
X131033333Y-100684771D01*
X131033333Y-100684771D02*
X131109524Y-100722866D01*
X129966666Y-100760961D02*
X129966666Y-101294295D01*
X130157142Y-100456200D02*
X130347619Y-101027628D01*
X130347619Y-101027628D02*
X129852380Y-101027628D01*
X146790475Y-101244295D02*
X146790475Y-100444295D01*
X146790475Y-100444295D02*
X146599999Y-100444295D01*
X146599999Y-100444295D02*
X146485713Y-100482390D01*
X146485713Y-100482390D02*
X146409523Y-100558580D01*
X146409523Y-100558580D02*
X146371428Y-100634771D01*
X146371428Y-100634771D02*
X146333332Y-100787152D01*
X146333332Y-100787152D02*
X146333332Y-100901438D01*
X146333332Y-100901438D02*
X146371428Y-101053819D01*
X146371428Y-101053819D02*
X146409523Y-101130009D01*
X146409523Y-101130009D02*
X146485713Y-101206200D01*
X146485713Y-101206200D02*
X146599999Y-101244295D01*
X146599999Y-101244295D02*
X146790475Y-101244295D01*
X145571428Y-101244295D02*
X146028571Y-101244295D01*
X145799999Y-101244295D02*
X145799999Y-100444295D01*
X145799999Y-100444295D02*
X145876190Y-100558580D01*
X145876190Y-100558580D02*
X145952380Y-100634771D01*
X145952380Y-100634771D02*
X146028571Y-100672866D01*
X129371428Y-107194295D02*
X129371428Y-106394295D01*
X129371428Y-106394295D02*
X129180952Y-106394295D01*
X129180952Y-106394295D02*
X129066666Y-106432390D01*
X129066666Y-106432390D02*
X128990476Y-106508580D01*
X128990476Y-106508580D02*
X128952381Y-106584771D01*
X128952381Y-106584771D02*
X128914285Y-106737152D01*
X128914285Y-106737152D02*
X128914285Y-106851438D01*
X128914285Y-106851438D02*
X128952381Y-107003819D01*
X128952381Y-107003819D02*
X128990476Y-107080009D01*
X128990476Y-107080009D02*
X129066666Y-107156200D01*
X129066666Y-107156200D02*
X129180952Y-107194295D01*
X129180952Y-107194295D02*
X129371428Y-107194295D01*
X128152381Y-107194295D02*
X128609524Y-107194295D01*
X128380952Y-107194295D02*
X128380952Y-106394295D01*
X128380952Y-106394295D02*
X128457143Y-106508580D01*
X128457143Y-106508580D02*
X128533333Y-106584771D01*
X128533333Y-106584771D02*
X128609524Y-106622866D01*
X127695238Y-106737152D02*
X127771428Y-106699057D01*
X127771428Y-106699057D02*
X127809523Y-106660961D01*
X127809523Y-106660961D02*
X127847619Y-106584771D01*
X127847619Y-106584771D02*
X127847619Y-106546676D01*
X127847619Y-106546676D02*
X127809523Y-106470485D01*
X127809523Y-106470485D02*
X127771428Y-106432390D01*
X127771428Y-106432390D02*
X127695238Y-106394295D01*
X127695238Y-106394295D02*
X127542857Y-106394295D01*
X127542857Y-106394295D02*
X127466666Y-106432390D01*
X127466666Y-106432390D02*
X127428571Y-106470485D01*
X127428571Y-106470485D02*
X127390476Y-106546676D01*
X127390476Y-106546676D02*
X127390476Y-106584771D01*
X127390476Y-106584771D02*
X127428571Y-106660961D01*
X127428571Y-106660961D02*
X127466666Y-106699057D01*
X127466666Y-106699057D02*
X127542857Y-106737152D01*
X127542857Y-106737152D02*
X127695238Y-106737152D01*
X127695238Y-106737152D02*
X127771428Y-106775247D01*
X127771428Y-106775247D02*
X127809523Y-106813342D01*
X127809523Y-106813342D02*
X127847619Y-106889533D01*
X127847619Y-106889533D02*
X127847619Y-107041914D01*
X127847619Y-107041914D02*
X127809523Y-107118104D01*
X127809523Y-107118104D02*
X127771428Y-107156200D01*
X127771428Y-107156200D02*
X127695238Y-107194295D01*
X127695238Y-107194295D02*
X127542857Y-107194295D01*
X127542857Y-107194295D02*
X127466666Y-107156200D01*
X127466666Y-107156200D02*
X127428571Y-107118104D01*
X127428571Y-107118104D02*
X127390476Y-107041914D01*
X127390476Y-107041914D02*
X127390476Y-106889533D01*
X127390476Y-106889533D02*
X127428571Y-106813342D01*
X127428571Y-106813342D02*
X127466666Y-106775247D01*
X127466666Y-106775247D02*
X127542857Y-106737152D01*
X123909523Y-106432390D02*
X123985713Y-106394295D01*
X123985713Y-106394295D02*
X124099999Y-106394295D01*
X124099999Y-106394295D02*
X124214285Y-106432390D01*
X124214285Y-106432390D02*
X124290475Y-106508580D01*
X124290475Y-106508580D02*
X124328570Y-106584771D01*
X124328570Y-106584771D02*
X124366666Y-106737152D01*
X124366666Y-106737152D02*
X124366666Y-106851438D01*
X124366666Y-106851438D02*
X124328570Y-107003819D01*
X124328570Y-107003819D02*
X124290475Y-107080009D01*
X124290475Y-107080009D02*
X124214285Y-107156200D01*
X124214285Y-107156200D02*
X124099999Y-107194295D01*
X124099999Y-107194295D02*
X124023808Y-107194295D01*
X124023808Y-107194295D02*
X123909523Y-107156200D01*
X123909523Y-107156200D02*
X123871427Y-107118104D01*
X123871427Y-107118104D02*
X123871427Y-106851438D01*
X123871427Y-106851438D02*
X124023808Y-106851438D01*
X123528570Y-107194295D02*
X123528570Y-106394295D01*
X123528570Y-106394295D02*
X123071427Y-107194295D01*
X123071427Y-107194295D02*
X123071427Y-106394295D01*
X122690475Y-107194295D02*
X122690475Y-106394295D01*
X122690475Y-106394295D02*
X122499999Y-106394295D01*
X122499999Y-106394295D02*
X122385713Y-106432390D01*
X122385713Y-106432390D02*
X122309523Y-106508580D01*
X122309523Y-106508580D02*
X122271428Y-106584771D01*
X122271428Y-106584771D02*
X122233332Y-106737152D01*
X122233332Y-106737152D02*
X122233332Y-106851438D01*
X122233332Y-106851438D02*
X122271428Y-107003819D01*
X122271428Y-107003819D02*
X122309523Y-107080009D01*
X122309523Y-107080009D02*
X122385713Y-107156200D01*
X122385713Y-107156200D02*
X122499999Y-107194295D01*
X122499999Y-107194295D02*
X122690475Y-107194295D01*
G04 #@! TO.C,G\u002A\u002A\u002A*
G36*
X156119955Y-120587440D02*
G01*
X156154076Y-120626199D01*
X156197914Y-120687276D01*
X156244370Y-120759450D01*
X156286343Y-120831500D01*
X156316734Y-120892205D01*
X156328442Y-120930345D01*
X156323946Y-120949118D01*
X156287332Y-120981132D01*
X156225126Y-120993659D01*
X156222735Y-120993301D01*
X156193704Y-120970590D01*
X156150593Y-120919513D01*
X156101804Y-120849864D01*
X156058160Y-120777425D01*
X156018371Y-120688260D01*
X156013138Y-120626704D01*
X156042492Y-120591036D01*
X156106462Y-120579529D01*
X156119955Y-120587440D01*
G37*
G36*
X154821467Y-119762772D02*
G01*
X154821467Y-120107881D01*
X154821467Y-120452989D01*
X154674015Y-120459934D01*
X154613110Y-120461066D01*
X154543183Y-120455310D01*
X154510694Y-120441201D01*
X154508664Y-120419720D01*
X154514221Y-120360272D01*
X154527015Y-120274286D01*
X154545035Y-120171935D01*
X154566271Y-120063395D01*
X154588712Y-119958839D01*
X154610348Y-119868443D01*
X154629169Y-119802379D01*
X154643163Y-119770823D01*
X154644744Y-119769407D01*
X154684266Y-119756515D01*
X154743768Y-119755344D01*
X154821467Y-119762772D01*
G37*
G36*
X154815024Y-118939362D02*
G01*
X154824060Y-118977467D01*
X154828846Y-119047865D01*
X154829940Y-119155104D01*
X154827899Y-119303735D01*
X154821467Y-119624728D01*
X154743355Y-119632187D01*
X154736793Y-119632717D01*
X154680853Y-119629224D01*
X154649055Y-119613454D01*
X154646788Y-119592133D01*
X154652102Y-119532611D01*
X154664838Y-119446463D01*
X154682966Y-119343867D01*
X154704453Y-119235001D01*
X154727269Y-119130042D01*
X154749383Y-119039169D01*
X154768763Y-118972559D01*
X154783378Y-118940390D01*
X154801180Y-118928997D01*
X154815024Y-118939362D01*
G37*
G36*
X156205863Y-119763829D02*
G01*
X156316574Y-119768353D01*
X156386597Y-119776252D01*
X156413317Y-119787323D01*
X156405725Y-119805180D01*
X156368400Y-119841569D01*
X156309462Y-119884472D01*
X156181836Y-119982951D01*
X156044323Y-120131873D01*
X155915553Y-120321676D01*
X155898164Y-120350209D01*
X155852804Y-120417676D01*
X155816609Y-120461775D01*
X155796178Y-120474082D01*
X155792644Y-120466822D01*
X155786450Y-120421400D01*
X155782299Y-120341769D01*
X155780517Y-120235937D01*
X155781430Y-120111910D01*
X155787772Y-119762772D01*
X156096452Y-119762772D01*
X156205863Y-119763829D01*
G37*
G36*
X156439936Y-120410145D02*
G01*
X156487031Y-120451923D01*
X156557974Y-120521897D01*
X156584525Y-120548636D01*
X156645738Y-120613562D01*
X156679223Y-120657468D01*
X156689836Y-120687769D01*
X156682434Y-120711879D01*
X156669897Y-120729452D01*
X156632573Y-120755767D01*
X156585682Y-120749878D01*
X156523586Y-120709974D01*
X156440649Y-120634247D01*
X156420589Y-120614085D01*
X156361870Y-120550979D01*
X156320857Y-120500559D01*
X156305435Y-120472269D01*
X156318582Y-120444289D01*
X156356815Y-120408107D01*
X156358527Y-120406912D01*
X156384005Y-120392346D01*
X156408367Y-120391854D01*
X156439936Y-120410145D01*
G37*
G36*
X156648132Y-120094841D02*
G01*
X156657098Y-120097171D01*
X156747509Y-120120660D01*
X156834602Y-120143278D01*
X156836537Y-120143782D01*
X156894999Y-120163418D01*
X156920825Y-120189331D01*
X156926630Y-120233949D01*
X156920636Y-120283632D01*
X156904946Y-120314128D01*
X156896838Y-120315798D01*
X156850947Y-120312037D01*
X156776961Y-120298857D01*
X156686377Y-120278150D01*
X156594182Y-120254330D01*
X156535337Y-120235487D01*
X156504071Y-120217217D01*
X156491688Y-120194384D01*
X156489493Y-120161852D01*
X156492332Y-120128188D01*
X156514657Y-120090100D01*
X156564488Y-120079873D01*
X156648132Y-120094841D01*
G37*
G36*
X155393481Y-104106733D02*
G01*
X155412645Y-104117751D01*
X155422012Y-104136771D01*
X155428953Y-104228747D01*
X155395274Y-104328808D01*
X155323557Y-104428899D01*
X155217024Y-104522948D01*
X155125161Y-104589493D01*
X155255153Y-104589493D01*
X155385145Y-104589493D01*
X155385145Y-104808062D01*
X155385145Y-105026631D01*
X154614402Y-105026631D01*
X153843659Y-105026631D01*
X153843659Y-104808062D01*
X153843659Y-104589493D01*
X154287059Y-104589493D01*
X154730458Y-104589493D01*
X154819084Y-104516440D01*
X154824019Y-104512322D01*
X154909410Y-104418090D01*
X154955232Y-104315791D01*
X154958415Y-104212124D01*
X154944185Y-104136273D01*
X155176340Y-104115226D01*
X155189651Y-104114024D01*
X155290741Y-104105638D01*
X155355765Y-104102952D01*
X155393481Y-104106733D01*
G37*
G36*
X154460979Y-113750756D02*
G01*
X155078298Y-113757881D01*
X155190199Y-113827108D01*
X155284224Y-113901148D01*
X155358509Y-114005949D01*
X155388437Y-114078960D01*
X155414264Y-114212880D01*
X155411889Y-114352580D01*
X155383106Y-114486382D01*
X155329710Y-114602609D01*
X155253493Y-114689584D01*
X155194882Y-114735688D01*
X155600611Y-114735688D01*
X156006341Y-114735688D01*
X156006341Y-114954257D01*
X156006341Y-115172826D01*
X154925000Y-115172826D01*
X153843659Y-115172826D01*
X153843659Y-114954257D01*
X153843659Y-114735688D01*
X154318888Y-114735688D01*
X154794117Y-114735688D01*
X154873566Y-114675089D01*
X154915214Y-114636323D01*
X154977087Y-114551742D01*
X155021885Y-114457342D01*
X155039531Y-114371555D01*
X155038445Y-114360391D01*
X155015748Y-114306356D01*
X154972784Y-114250767D01*
X154905532Y-114183515D01*
X154374596Y-114183515D01*
X153843659Y-114183515D01*
X153843659Y-113963573D01*
X153843659Y-113743632D01*
X154460979Y-113750756D01*
G37*
G36*
X155383869Y-119751590D02*
G01*
X155486974Y-119754313D01*
X155556251Y-119760580D01*
X155599639Y-119771310D01*
X155625078Y-119787422D01*
X155636981Y-119803826D01*
X155648864Y-119840039D01*
X155656301Y-119899062D01*
X155660141Y-119988617D01*
X155661232Y-120116426D01*
X155660720Y-120192440D01*
X155656302Y-120318138D01*
X155647295Y-120399328D01*
X155633623Y-120436884D01*
X155623815Y-120442393D01*
X155572821Y-120453045D01*
X155491455Y-120460457D01*
X155390612Y-120464628D01*
X155281189Y-120465560D01*
X155174082Y-120463251D01*
X155080187Y-120457702D01*
X155010399Y-120448913D01*
X154975616Y-120436884D01*
X154967022Y-120419915D01*
X154956383Y-120358213D01*
X154950083Y-120253389D01*
X154948007Y-120104089D01*
X154948246Y-120012500D01*
X154949924Y-119915285D01*
X154954130Y-119850769D01*
X154961923Y-119811119D01*
X154974363Y-119788502D01*
X154992509Y-119775085D01*
X155029455Y-119766152D01*
X155102874Y-119758424D01*
X155201013Y-119753192D01*
X155312967Y-119751268D01*
X155383869Y-119751590D01*
G37*
G36*
X155383869Y-118923329D02*
G01*
X155486974Y-118926053D01*
X155556251Y-118932320D01*
X155599639Y-118943049D01*
X155625078Y-118959162D01*
X155636981Y-118975565D01*
X155648864Y-119011778D01*
X155656301Y-119070802D01*
X155660141Y-119160357D01*
X155661232Y-119288165D01*
X155660720Y-119364179D01*
X155656302Y-119489877D01*
X155647295Y-119571068D01*
X155633623Y-119608623D01*
X155623815Y-119614132D01*
X155572821Y-119624784D01*
X155491455Y-119632196D01*
X155390612Y-119636367D01*
X155281189Y-119637299D01*
X155174082Y-119634990D01*
X155080187Y-119629441D01*
X155010399Y-119620652D01*
X154975616Y-119608623D01*
X154967022Y-119591654D01*
X154956383Y-119529952D01*
X154950083Y-119425128D01*
X154948007Y-119275828D01*
X154948246Y-119184239D01*
X154949924Y-119087024D01*
X154954130Y-119022508D01*
X154961923Y-118982858D01*
X154974363Y-118960241D01*
X154992509Y-118946824D01*
X155029455Y-118937891D01*
X155102874Y-118930163D01*
X155201013Y-118924931D01*
X155312967Y-118923007D01*
X155383869Y-118923329D01*
G37*
G36*
X156212130Y-118923329D02*
G01*
X156315235Y-118926053D01*
X156384512Y-118932320D01*
X156427900Y-118943049D01*
X156453339Y-118959162D01*
X156465242Y-118975565D01*
X156477125Y-119011778D01*
X156484562Y-119070802D01*
X156488401Y-119160357D01*
X156489493Y-119288165D01*
X156488980Y-119364179D01*
X156484563Y-119489877D01*
X156475556Y-119571068D01*
X156461884Y-119608623D01*
X156452075Y-119614132D01*
X156401082Y-119624784D01*
X156319716Y-119632196D01*
X156218873Y-119636367D01*
X156109450Y-119637299D01*
X156002343Y-119634990D01*
X155908447Y-119629441D01*
X155838660Y-119620652D01*
X155803877Y-119608623D01*
X155795283Y-119591654D01*
X155784644Y-119529952D01*
X155778343Y-119425128D01*
X155776268Y-119275828D01*
X155776506Y-119184239D01*
X155778185Y-119087024D01*
X155782391Y-119022508D01*
X155790184Y-118982858D01*
X155802624Y-118960241D01*
X155820770Y-118946824D01*
X155857716Y-118937891D01*
X155931135Y-118930163D01*
X156029274Y-118924931D01*
X156141228Y-118923007D01*
X156212130Y-118923329D01*
G37*
G36*
X155383869Y-118095068D02*
G01*
X155486974Y-118097792D01*
X155556251Y-118104059D01*
X155599639Y-118114788D01*
X155625078Y-118130901D01*
X155636981Y-118147305D01*
X155648864Y-118183517D01*
X155656301Y-118242541D01*
X155660141Y-118332096D01*
X155661232Y-118459904D01*
X155660720Y-118535918D01*
X155656302Y-118661616D01*
X155647295Y-118742807D01*
X155633623Y-118780362D01*
X155623815Y-118785871D01*
X155572821Y-118796523D01*
X155491455Y-118803935D01*
X155390612Y-118808106D01*
X155281189Y-118809038D01*
X155174082Y-118806729D01*
X155080187Y-118801180D01*
X155010399Y-118792391D01*
X154975616Y-118780362D01*
X154967022Y-118763393D01*
X154956383Y-118701691D01*
X154950083Y-118596867D01*
X154948007Y-118447567D01*
X154948246Y-118355978D01*
X154949924Y-118258763D01*
X154954130Y-118194247D01*
X154961923Y-118154597D01*
X154974363Y-118131980D01*
X154992509Y-118118563D01*
X155029455Y-118109631D01*
X155102874Y-118101902D01*
X155201013Y-118096670D01*
X155312967Y-118094746D01*
X155383869Y-118095068D01*
G37*
G36*
X156212130Y-118095068D02*
G01*
X156315235Y-118097792D01*
X156384512Y-118104059D01*
X156427900Y-118114788D01*
X156453339Y-118130901D01*
X156465242Y-118147305D01*
X156477125Y-118183517D01*
X156484562Y-118242541D01*
X156488401Y-118332096D01*
X156489493Y-118459904D01*
X156488980Y-118535918D01*
X156484563Y-118661616D01*
X156475556Y-118742807D01*
X156461884Y-118780362D01*
X156452075Y-118785871D01*
X156401082Y-118796523D01*
X156319716Y-118803935D01*
X156218873Y-118808106D01*
X156109450Y-118809038D01*
X156002343Y-118806729D01*
X155908447Y-118801180D01*
X155838660Y-118792391D01*
X155803877Y-118780362D01*
X155795283Y-118763393D01*
X155784644Y-118701691D01*
X155778343Y-118596867D01*
X155776268Y-118447567D01*
X155776506Y-118355978D01*
X155778185Y-118258763D01*
X155782391Y-118194247D01*
X155790184Y-118154597D01*
X155802624Y-118131980D01*
X155820770Y-118118563D01*
X155857716Y-118109631D01*
X155931135Y-118101902D01*
X156029274Y-118096670D01*
X156141228Y-118094746D01*
X156212130Y-118095068D01*
G37*
G36*
X154476359Y-118157044D02*
G01*
X154467695Y-118183947D01*
X154430758Y-118244451D01*
X154368562Y-118327537D01*
X154285199Y-118427415D01*
X154094040Y-118646992D01*
X154161963Y-119538487D01*
X154165468Y-119584691D01*
X154179914Y-119779835D01*
X154192650Y-119959427D01*
X154203355Y-120118413D01*
X154211710Y-120251740D01*
X154217394Y-120354355D01*
X154220089Y-120421205D01*
X154219473Y-120447237D01*
X154207002Y-120450535D01*
X154154834Y-120454728D01*
X154068833Y-120458167D01*
X153956228Y-120460842D01*
X153824248Y-120462743D01*
X153680124Y-120463861D01*
X153531085Y-120464186D01*
X153384360Y-120463709D01*
X153247180Y-120462419D01*
X153126774Y-120460308D01*
X153030372Y-120457365D01*
X152965204Y-120453581D01*
X152938499Y-120448946D01*
X152937731Y-120446732D01*
X152934914Y-120410505D01*
X152932515Y-120333779D01*
X152930571Y-120220962D01*
X152929116Y-120076464D01*
X152928187Y-119904693D01*
X152927819Y-119710057D01*
X152928049Y-119496964D01*
X152928913Y-119269825D01*
X152934873Y-118106250D01*
X153705616Y-118106250D01*
X154476359Y-118106250D01*
X154476359Y-118157044D01*
G37*
G36*
X154767108Y-118114091D02*
G01*
X154764870Y-118152596D01*
X154755692Y-118230815D01*
X154740217Y-118344415D01*
X154719090Y-118489060D01*
X154692954Y-118660416D01*
X154662453Y-118854150D01*
X154628232Y-119065926D01*
X154590934Y-119291410D01*
X154579115Y-119362072D01*
X154542145Y-119583199D01*
X154507780Y-119788861D01*
X154476734Y-119974786D01*
X154449719Y-120136698D01*
X154427449Y-120270324D01*
X154410637Y-120371389D01*
X154399994Y-120435620D01*
X154396235Y-120458741D01*
X154392269Y-120461352D01*
X154361323Y-120464493D01*
X154345532Y-120459216D01*
X154330431Y-120425967D01*
X154324928Y-120355208D01*
X154323319Y-120312063D01*
X154318875Y-120225843D01*
X154312084Y-120107677D01*
X154303390Y-119965038D01*
X154293239Y-119805399D01*
X154282077Y-119636232D01*
X154273361Y-119502709D01*
X154262685Y-119328163D01*
X154253379Y-119163584D01*
X154245923Y-119017955D01*
X154240795Y-118900258D01*
X154238476Y-118819475D01*
X154235841Y-118612409D01*
X154491633Y-118352217D01*
X154547695Y-118296104D01*
X154629560Y-118217704D01*
X154697168Y-118157300D01*
X154744697Y-118120004D01*
X154766327Y-118110929D01*
X154767108Y-118114091D01*
G37*
G36*
X154597147Y-105400184D02*
G01*
X155350634Y-105406250D01*
X155380303Y-105544294D01*
X155387347Y-105583595D01*
X155399413Y-105684925D01*
X155408177Y-105804467D01*
X155412106Y-105923913D01*
X155410567Y-106028211D01*
X155393498Y-106190316D01*
X155355245Y-106324256D01*
X155292557Y-106439673D01*
X155202183Y-106546204D01*
X155079482Y-106640905D01*
X154920566Y-106714115D01*
X154738681Y-106758630D01*
X154541874Y-106772516D01*
X154521780Y-106770674D01*
X154338191Y-106753841D01*
X154180173Y-106715091D01*
X154026522Y-106645438D01*
X153911228Y-106550376D01*
X153834295Y-106429908D01*
X153799699Y-106297064D01*
X153807783Y-106160312D01*
X153821888Y-106123291D01*
X154190280Y-106123291D01*
X154197400Y-106198598D01*
X154247273Y-106264079D01*
X154338357Y-106315553D01*
X154343225Y-106317340D01*
X154419167Y-106333147D01*
X154521780Y-106340940D01*
X154633937Y-106340702D01*
X154738511Y-106332413D01*
X154818375Y-106316057D01*
X154842486Y-106306931D01*
X154935763Y-106243920D01*
X155001174Y-106151331D01*
X155034132Y-106037912D01*
X155030051Y-105912409D01*
X155014944Y-105831884D01*
X154759169Y-105831884D01*
X154694224Y-105832008D01*
X154600928Y-105833810D01*
X154535726Y-105839584D01*
X154486917Y-105851616D01*
X154442796Y-105872189D01*
X154391658Y-105903585D01*
X154346933Y-105934345D01*
X154279863Y-105987785D01*
X154234345Y-106033228D01*
X154227453Y-106042339D01*
X154190280Y-106123291D01*
X153821888Y-106123291D01*
X153857849Y-106028908D01*
X153948312Y-105910079D01*
X154049514Y-105808877D01*
X153946587Y-105808877D01*
X153843659Y-105808877D01*
X153843659Y-105601497D01*
X153843659Y-105394118D01*
X154597147Y-105400184D01*
G37*
G36*
X154809855Y-111912164D02*
G01*
X154958151Y-111951422D01*
X154966449Y-111954693D01*
X155122765Y-112040430D01*
X155247370Y-112158252D01*
X155338527Y-112305390D01*
X155394496Y-112479075D01*
X155413539Y-112676540D01*
X155403052Y-112825435D01*
X155356103Y-113003357D01*
X155271943Y-113154770D01*
X155151079Y-113278826D01*
X154994022Y-113374679D01*
X154918070Y-113403133D01*
X154772904Y-113434332D01*
X154613534Y-113447243D01*
X154586929Y-113446149D01*
X154457600Y-113440830D01*
X154322743Y-113414060D01*
X154308161Y-113409314D01*
X154142736Y-113330585D01*
X154005281Y-113216589D01*
X153899130Y-113070810D01*
X153827620Y-112896734D01*
X153822325Y-112876386D01*
X153804294Y-112737630D01*
X153806181Y-112669310D01*
X154185483Y-112669310D01*
X154196829Y-112773337D01*
X154238726Y-112860386D01*
X154256170Y-112880646D01*
X154348319Y-112950228D01*
X154461954Y-112993238D01*
X154586929Y-113010138D01*
X154713100Y-113001390D01*
X154830323Y-112967456D01*
X154928455Y-112908796D01*
X154997350Y-112825873D01*
X155020884Y-112773747D01*
X155041567Y-112662093D01*
X155021821Y-112559985D01*
X154965449Y-112472220D01*
X154876250Y-112403592D01*
X154758027Y-112358898D01*
X154614580Y-112342935D01*
X154551032Y-112344694D01*
X154426584Y-112364050D01*
X154329873Y-112407779D01*
X154250964Y-112479615D01*
X154204142Y-112565247D01*
X154185483Y-112669310D01*
X153806181Y-112669310D01*
X153808541Y-112583840D01*
X153833441Y-112434226D01*
X153877372Y-112307996D01*
X153895244Y-112274284D01*
X153995185Y-112140785D01*
X154126305Y-112029196D01*
X154277413Y-111949545D01*
X154313989Y-111936898D01*
X154469389Y-111904852D01*
X154640807Y-111896624D01*
X154809855Y-111912164D01*
G37*
G36*
X154742901Y-107010583D02*
G01*
X154922449Y-107029797D01*
X155067877Y-107069489D01*
X155187678Y-107132953D01*
X155290345Y-107223481D01*
X155359351Y-107320375D01*
X155408824Y-107455337D01*
X155420118Y-107600581D01*
X155392736Y-107746949D01*
X155326183Y-107885281D01*
X155269456Y-107971558D01*
X155637898Y-107971558D01*
X156006341Y-107971558D01*
X156006341Y-108190127D01*
X156006341Y-108408696D01*
X154937546Y-108408696D01*
X154525239Y-108408696D01*
X153868752Y-108408696D01*
X153854924Y-108333922D01*
X153850305Y-108308766D01*
X153835881Y-108229145D01*
X153820668Y-108144112D01*
X153817952Y-108127739D01*
X153806031Y-107997857D01*
X153805589Y-107851104D01*
X153805865Y-107847039D01*
X154186299Y-107847039D01*
X154189632Y-107916126D01*
X154204106Y-107956220D01*
X154206406Y-107957484D01*
X154242527Y-107962995D01*
X154313721Y-107967465D01*
X154410966Y-107970463D01*
X154525239Y-107971558D01*
X154831034Y-107971558D01*
X154922281Y-107884756D01*
X154922796Y-107884266D01*
X155000852Y-107789247D01*
X155035323Y-107698629D01*
X155028619Y-107616166D01*
X154983152Y-107545609D01*
X154901333Y-107490711D01*
X154785574Y-107455222D01*
X154638286Y-107442897D01*
X154571024Y-107445383D01*
X154424330Y-107471638D01*
X154311924Y-107526005D01*
X154235344Y-107607856D01*
X154229436Y-107618707D01*
X154207571Y-107683041D01*
X154192735Y-107764248D01*
X154186299Y-107847039D01*
X153805865Y-107847039D01*
X153815647Y-107703045D01*
X153835227Y-107569244D01*
X153863351Y-107465266D01*
X153911309Y-107363623D01*
X154014378Y-107228248D01*
X154149828Y-107124751D01*
X154316706Y-107053629D01*
X154514057Y-107015375D01*
X154740926Y-107010484D01*
X154742901Y-107010583D01*
G37*
G36*
X154711870Y-108719534D02*
G01*
X154801756Y-108721830D01*
X154866964Y-108728563D01*
X154919824Y-108742111D01*
X154972670Y-108764852D01*
X155037832Y-108799163D01*
X155084820Y-108826846D01*
X155221629Y-108940068D01*
X155324089Y-109080963D01*
X155390318Y-109245305D01*
X155418436Y-109428871D01*
X155406562Y-109627437D01*
X155401264Y-109657603D01*
X155346281Y-109834710D01*
X155256391Y-109983106D01*
X155133776Y-110101110D01*
X154980618Y-110187038D01*
X154799097Y-110239210D01*
X154614580Y-110254076D01*
X154591395Y-110255944D01*
X154509441Y-110252441D01*
X154317874Y-110217556D01*
X154152795Y-110146434D01*
X154016085Y-110040386D01*
X153909626Y-109900724D01*
X153835300Y-109728760D01*
X153832262Y-109718657D01*
X153798736Y-109532666D01*
X153801119Y-109475404D01*
X154187427Y-109475404D01*
X154201729Y-109583517D01*
X154250964Y-109675457D01*
X154282877Y-109709581D01*
X154368120Y-109769047D01*
X154475376Y-109801987D01*
X154614580Y-109812138D01*
X154742791Y-109800412D01*
X154867090Y-109758748D01*
X154960546Y-109689724D01*
X155019415Y-109596253D01*
X155039950Y-109481248D01*
X155022057Y-109376264D01*
X154965423Y-109280817D01*
X154874978Y-109207878D01*
X154755781Y-109161424D01*
X154612890Y-109145433D01*
X154550872Y-109148400D01*
X154416988Y-109176507D01*
X154309306Y-109231599D01*
X154235344Y-109310392D01*
X154208677Y-109365601D01*
X154187427Y-109475404D01*
X153801119Y-109475404D01*
X153806270Y-109351606D01*
X153852454Y-109181635D01*
X153934880Y-109028910D01*
X154051138Y-108899585D01*
X154198818Y-108799819D01*
X154248952Y-108774629D01*
X154308183Y-108748277D01*
X154362540Y-108731979D01*
X154424745Y-108723324D01*
X154507520Y-108719899D01*
X154623586Y-108719294D01*
X154711870Y-108719534D01*
G37*
G36*
X153939219Y-115465601D02*
G01*
X154003694Y-115478755D01*
X154083230Y-115493556D01*
X154145040Y-115505180D01*
X154201766Y-115517398D01*
X154226401Y-115524892D01*
X154227366Y-115528700D01*
X154222732Y-115563814D01*
X154208813Y-115621564D01*
X154198641Y-115678578D01*
X154192010Y-115770622D01*
X154192892Y-115866862D01*
X154206419Y-115978442D01*
X154240623Y-116071672D01*
X154301618Y-116142533D01*
X154396303Y-116202400D01*
X154438805Y-116221323D01*
X154564890Y-116249607D01*
X154691612Y-116242815D01*
X154810288Y-116204573D01*
X154912235Y-116138504D01*
X154988771Y-116048232D01*
X155031211Y-115937383D01*
X155035397Y-115876911D01*
X155028283Y-115778534D01*
X155010042Y-115674320D01*
X154983479Y-115584976D01*
X154982795Y-115566793D01*
X155004194Y-115549035D01*
X155056280Y-115531075D01*
X155146445Y-115509492D01*
X155156156Y-115507389D01*
X155246227Y-115491207D01*
X155312342Y-115485391D01*
X155344307Y-115490901D01*
X155347917Y-115496454D01*
X155362658Y-115539384D01*
X155380359Y-115611827D01*
X155397950Y-115701705D01*
X155399674Y-115711815D01*
X155415680Y-115921866D01*
X155391702Y-116111424D01*
X155329389Y-116278101D01*
X155230393Y-116419509D01*
X155096365Y-116533259D01*
X154928956Y-116616965D01*
X154729815Y-116668237D01*
X154648161Y-116677008D01*
X154492596Y-116675692D01*
X154339591Y-116654717D01*
X154209515Y-116616124D01*
X154121481Y-116569929D01*
X153997404Y-116464675D01*
X153899625Y-116326313D01*
X153832630Y-116160266D01*
X153826773Y-116137316D01*
X153811174Y-116039016D01*
X153804913Y-115927740D01*
X153807052Y-115811903D01*
X153816652Y-115699920D01*
X153832773Y-115600206D01*
X153854478Y-115521178D01*
X153880826Y-115471250D01*
X153910881Y-115458838D01*
X153939219Y-115465601D01*
G37*
G36*
X153976761Y-110468781D02*
G01*
X154061544Y-110480722D01*
X154148702Y-110496241D01*
X154200865Y-110510444D01*
X154222520Y-110525967D01*
X154221402Y-110545964D01*
X154219528Y-110551407D01*
X154210561Y-110599452D01*
X154201678Y-110676414D01*
X154194558Y-110768394D01*
X154190629Y-110864144D01*
X154194136Y-110936417D01*
X154207694Y-110993749D01*
X154233473Y-111051962D01*
X154273193Y-111111075D01*
X154360258Y-111182489D01*
X154468146Y-111225942D01*
X154587381Y-111241680D01*
X154708486Y-111229950D01*
X154821986Y-111190996D01*
X154918406Y-111125063D01*
X154988270Y-111032399D01*
X155005201Y-110996282D01*
X155034210Y-110898350D01*
X155034389Y-110796714D01*
X155006595Y-110674638D01*
X154995484Y-110634595D01*
X154983464Y-110577014D01*
X154983027Y-110547546D01*
X155003837Y-110536935D01*
X155058666Y-110520717D01*
X155133835Y-110503843D01*
X155200451Y-110490144D01*
X155267070Y-110475041D01*
X155304208Y-110464819D01*
X155310375Y-110463568D01*
X155337967Y-110483359D01*
X155363894Y-110538069D01*
X155386442Y-110618616D01*
X155403897Y-110715918D01*
X155414544Y-110820895D01*
X155416668Y-110924463D01*
X155408555Y-111017543D01*
X155404191Y-111042452D01*
X155350738Y-111221193D01*
X155262140Y-111370945D01*
X155136666Y-111493991D01*
X154972584Y-111592613D01*
X154971612Y-111593074D01*
X154899012Y-111625660D01*
X154837850Y-111646453D01*
X154773767Y-111658068D01*
X154692406Y-111663119D01*
X154579408Y-111664221D01*
X154562686Y-111664211D01*
X154455618Y-111662883D01*
X154378526Y-111657425D01*
X154317213Y-111645139D01*
X154257484Y-111623327D01*
X154185144Y-111589292D01*
X154074830Y-111524685D01*
X153964395Y-111423937D01*
X153884754Y-111296647D01*
X153829838Y-111135054D01*
X153805241Y-110977014D01*
X153804010Y-110789515D01*
X153829741Y-110610579D01*
X153844787Y-110550759D01*
X153861993Y-110492277D01*
X153873534Y-110464811D01*
X153875855Y-110463649D01*
X153910886Y-110462754D01*
X153976761Y-110468781D01*
G37*
G36*
X142655504Y-116306301D02*
G01*
X142655484Y-116312995D01*
X142653010Y-116376243D01*
X142647029Y-116419259D01*
X142638457Y-116435134D01*
X142635976Y-116434487D01*
X142625614Y-116414189D01*
X142621410Y-116374284D01*
X142619438Y-116337642D01*
X142608710Y-116319595D01*
X142583054Y-116318881D01*
X142550170Y-116336265D01*
X142524352Y-116383993D01*
X142504005Y-116443657D01*
X142503043Y-116389261D01*
X142503024Y-116387817D01*
X142507763Y-116347028D01*
X142519956Y-116323817D01*
X142528292Y-116314340D01*
X142518647Y-116289655D01*
X142508341Y-116268163D01*
X142506181Y-116241434D01*
X142526901Y-116241434D01*
X142536175Y-116273188D01*
X142551738Y-116286377D01*
X142589403Y-116298758D01*
X142595417Y-116298459D01*
X142615725Y-116285474D01*
X142621410Y-116247617D01*
X142621223Y-116238008D01*
X142613096Y-116205559D01*
X142589403Y-116196476D01*
X142579613Y-116197092D01*
X142543765Y-116212632D01*
X142526901Y-116241434D01*
X142506181Y-116241434D01*
X142505034Y-116227247D01*
X142513020Y-116203106D01*
X142535901Y-116189143D01*
X142583054Y-116182711D01*
X142655504Y-116177469D01*
X142655504Y-116247617D01*
X142655504Y-116306301D01*
G37*
G36*
X142839600Y-116354785D02*
G01*
X142819561Y-116429985D01*
X142775121Y-116497429D01*
X142704849Y-116551111D01*
X142671626Y-116567395D01*
X142616144Y-116583165D01*
X142556032Y-116581496D01*
X142476582Y-116560251D01*
X142407603Y-116516570D01*
X142359894Y-116457282D01*
X142333085Y-116387927D01*
X142329502Y-116345786D01*
X142367753Y-116345786D01*
X142388007Y-116422461D01*
X142430781Y-116486674D01*
X142493383Y-116529918D01*
X142556961Y-116549703D01*
X142621389Y-116548219D01*
X142691547Y-116520394D01*
X142694160Y-116518983D01*
X142752754Y-116469248D01*
X142793592Y-116400249D01*
X142808927Y-116324893D01*
X142801136Y-116272751D01*
X142765742Y-116202314D01*
X142708075Y-116145309D01*
X142635108Y-116110340D01*
X142576639Y-116104836D01*
X142502639Y-116121113D01*
X142437324Y-116158195D01*
X142392486Y-116211183D01*
X142372711Y-116265154D01*
X142367753Y-116345786D01*
X142329502Y-116345786D01*
X142326804Y-116314044D01*
X142340679Y-116241173D01*
X142374339Y-116174852D01*
X142427412Y-116120622D01*
X142499526Y-116084022D01*
X142590309Y-116070591D01*
X142623893Y-116072594D01*
X142704384Y-116096508D01*
X142767632Y-116142689D01*
X142812205Y-116205132D01*
X142836672Y-116277832D01*
X142838463Y-116324893D01*
X142839600Y-116354785D01*
G37*
G36*
X146896308Y-116727620D02*
G01*
X146871861Y-116793232D01*
X146855211Y-116842699D01*
X146849061Y-116868375D01*
X146848974Y-116870728D01*
X146841022Y-116905379D01*
X146824099Y-116950227D01*
X146815631Y-116969570D01*
X146788224Y-117035711D01*
X146759829Y-117108319D01*
X146733993Y-117177921D01*
X146714269Y-117235042D01*
X146704205Y-117270207D01*
X146697774Y-117293372D01*
X146680347Y-117345109D01*
X146655239Y-117414580D01*
X146625328Y-117494029D01*
X146593493Y-117575697D01*
X146562613Y-117651829D01*
X146526815Y-117709062D01*
X146467721Y-117762471D01*
X146464828Y-117764379D01*
X146436433Y-117781537D01*
X146407838Y-117793625D01*
X146372264Y-117801749D01*
X146322932Y-117807016D01*
X146253066Y-117810534D01*
X146155887Y-117813411D01*
X146118384Y-117814479D01*
X146023739Y-117818543D01*
X145959539Y-117823983D01*
X145923034Y-117831100D01*
X145911477Y-117840195D01*
X145911679Y-117843193D01*
X145917420Y-117874379D01*
X145929465Y-117926878D01*
X145945655Y-117991149D01*
X145947264Y-117997328D01*
X145964978Y-118070091D01*
X145979575Y-118137931D01*
X145988032Y-118186888D01*
X145990985Y-118204978D01*
X146002088Y-118259035D01*
X146019202Y-118334546D01*
X146040625Y-118424117D01*
X146064659Y-118520349D01*
X146078749Y-118576669D01*
X146100291Y-118667513D01*
X146117519Y-118746227D01*
X146128948Y-118805873D01*
X146133088Y-118839512D01*
X146133088Y-118890465D01*
X145687139Y-118885920D01*
X145241191Y-118881376D01*
X145210582Y-118745000D01*
X145201615Y-118705575D01*
X145182977Y-118625077D01*
X145159867Y-118526400D01*
X145134385Y-118418492D01*
X145108628Y-118310302D01*
X145089274Y-118227932D01*
X145067604Y-118131981D01*
X145049709Y-118048575D01*
X145037051Y-117984566D01*
X145031092Y-117946808D01*
X145022638Y-117889435D01*
X145003807Y-117844481D01*
X144970673Y-117822135D01*
X144917891Y-117816230D01*
X144846041Y-117816520D01*
X144772042Y-118016532D01*
X144747523Y-118082634D01*
X144706671Y-118192252D01*
X144665625Y-118301888D01*
X144630369Y-118395537D01*
X144607269Y-118457511D01*
X144582477Y-118526255D01*
X144564285Y-118579313D01*
X144555524Y-118608624D01*
X144554857Y-118611515D01*
X144543989Y-118647180D01*
X144524864Y-118702381D01*
X144501157Y-118766447D01*
X144453960Y-118890176D01*
X143468484Y-118885776D01*
X142483009Y-118881376D01*
X142390977Y-118785598D01*
X142298946Y-118689820D01*
X142304708Y-118563987D01*
X142309925Y-118499727D01*
X142322411Y-118433586D01*
X142344958Y-118361656D01*
X142380705Y-118271870D01*
X142402576Y-118219097D01*
X142427562Y-118155827D01*
X142444625Y-118108864D01*
X142450940Y-118085691D01*
X142452642Y-118076064D01*
X142464321Y-118038088D01*
X142484334Y-117981837D01*
X142509434Y-117915964D01*
X142536373Y-117849125D01*
X142561904Y-117789972D01*
X142580136Y-117742837D01*
X142593085Y-117696214D01*
X142594832Y-117688512D01*
X142607893Y-117645988D01*
X142629296Y-117585544D01*
X142655398Y-117517617D01*
X142655846Y-117516494D01*
X142689739Y-117429277D01*
X142726257Y-117331768D01*
X142757572Y-117244866D01*
X142763066Y-117229160D01*
X142793701Y-117141610D01*
X142827820Y-117044136D01*
X142859010Y-116955067D01*
X142919076Y-116788214D01*
X143011654Y-116545939D01*
X143017920Y-116529389D01*
X143034897Y-116482419D01*
X143054437Y-116426610D01*
X143056813Y-116419736D01*
X143078434Y-116358079D01*
X143105653Y-116281519D01*
X143133161Y-116205000D01*
X143182517Y-116068624D01*
X143635020Y-116064084D01*
X144087523Y-116059543D01*
X144051475Y-116149319D01*
X144038397Y-116182818D01*
X144013585Y-116250546D01*
X143994659Y-116307282D01*
X143990915Y-116319413D01*
X143974000Y-116371247D01*
X143960177Y-116409563D01*
X143949542Y-116436096D01*
X143908049Y-116541611D01*
X143875177Y-116628630D01*
X143852511Y-116692864D01*
X143841639Y-116730027D01*
X143835588Y-116751157D01*
X143818529Y-116800479D01*
X143793905Y-116866671D01*
X143764745Y-116941403D01*
X143741526Y-117000609D01*
X143717636Y-117064162D01*
X143701374Y-117110656D01*
X143695370Y-117132839D01*
X143691211Y-117149209D01*
X143676521Y-117192005D01*
X143653724Y-117253175D01*
X143625440Y-117325496D01*
X143602482Y-117384103D01*
X143576478Y-117453579D01*
X143557393Y-117508260D01*
X143548242Y-117539774D01*
X143543351Y-117558012D01*
X143527175Y-117606058D01*
X143503205Y-117671078D01*
X143474584Y-117744338D01*
X143456001Y-117791678D01*
X143428904Y-117864715D01*
X143408098Y-117925769D01*
X143397006Y-117965100D01*
X143385815Y-118020503D01*
X143625170Y-118020503D01*
X143864525Y-118020503D01*
X143881845Y-117956577D01*
X143885732Y-117943401D01*
X143904103Y-117889885D01*
X143930166Y-117820809D01*
X143959609Y-117747751D01*
X143971673Y-117718360D01*
X143997975Y-117650792D01*
X144017881Y-117594800D01*
X144027808Y-117560235D01*
X144030053Y-117550712D01*
X144044169Y-117507079D01*
X144066982Y-117445994D01*
X144094789Y-117377555D01*
X144103047Y-117357773D01*
X144132490Y-117283397D01*
X144157509Y-117214717D01*
X144173406Y-117164468D01*
X144177089Y-117151143D01*
X144178279Y-117147423D01*
X145096256Y-117147423D01*
X145097633Y-117148582D01*
X145122860Y-117152791D01*
X145174801Y-117155490D01*
X145247455Y-117156802D01*
X145334820Y-117156849D01*
X145430898Y-117155752D01*
X145529688Y-117153634D01*
X145625189Y-117150617D01*
X145711400Y-117146823D01*
X145782322Y-117142374D01*
X145831954Y-117137392D01*
X145854295Y-117132000D01*
X145856923Y-117129470D01*
X145874608Y-117097578D01*
X145887928Y-117051374D01*
X145888280Y-117049523D01*
X145900996Y-117001189D01*
X145922395Y-116935813D01*
X145948044Y-116866992D01*
X145952287Y-116856256D01*
X145974828Y-116795984D01*
X145990710Y-116748076D01*
X145996720Y-116722093D01*
X145996252Y-116719686D01*
X145986243Y-116712542D01*
X145960424Y-116707200D01*
X145915141Y-116703435D01*
X145846738Y-116701023D01*
X145751559Y-116699740D01*
X145625948Y-116699362D01*
X145255168Y-116699362D01*
X145216036Y-116793121D01*
X145191654Y-116854181D01*
X145161525Y-116933937D01*
X145133835Y-117011047D01*
X145129482Y-117023740D01*
X145110742Y-117082428D01*
X145098863Y-117126570D01*
X145096256Y-117147423D01*
X144178279Y-117147423D01*
X144196413Y-117090733D01*
X144216060Y-117040302D01*
X144238903Y-116987434D01*
X144264659Y-116923720D01*
X144288975Y-116860352D01*
X144307884Y-116807673D01*
X144317419Y-116776027D01*
X144321429Y-116762231D01*
X144336134Y-116719953D01*
X144358568Y-116659359D01*
X144385772Y-116588557D01*
X144403773Y-116541954D01*
X144428214Y-116476726D01*
X144445955Y-116426905D01*
X144454040Y-116400625D01*
X144457716Y-116387956D01*
X144472494Y-116346616D01*
X144495413Y-116286999D01*
X144523365Y-116217323D01*
X144587668Y-116060100D01*
X145685117Y-116060100D01*
X145710589Y-116060099D01*
X145933008Y-116060040D01*
X146124184Y-116060063D01*
X146286694Y-116060414D01*
X146423116Y-116061339D01*
X146536028Y-116063084D01*
X146628006Y-116065894D01*
X146701629Y-116070017D01*
X146759474Y-116075697D01*
X146804119Y-116083180D01*
X146838140Y-116092713D01*
X146864116Y-116104541D01*
X146884624Y-116118910D01*
X146902241Y-116136066D01*
X146919546Y-116156255D01*
X146939115Y-116179722D01*
X146954032Y-116197379D01*
X146978799Y-116231346D01*
X146991513Y-116263879D01*
X146995572Y-116306805D01*
X146994377Y-116371947D01*
X146994357Y-116372542D01*
X146989228Y-116440679D01*
X146976965Y-116505213D01*
X146954723Y-116577439D01*
X146919659Y-116668652D01*
X146898497Y-116722093D01*
X146896308Y-116727620D01*
G37*
G36*
X138811322Y-112290845D02*
G01*
X138811322Y-113772380D01*
X138510262Y-113772380D01*
X138209201Y-113772380D01*
X138209201Y-112290845D01*
X138209201Y-110809311D01*
X138510262Y-110809311D01*
X138811322Y-110809311D01*
X138811322Y-112290845D01*
G37*
G36*
X134707392Y-112290845D02*
G01*
X134707392Y-113772380D01*
X134406332Y-113772380D01*
X134105271Y-113772380D01*
X134105271Y-112290845D01*
X134105271Y-110809311D01*
X134406332Y-110809311D01*
X134707392Y-110809311D01*
X134707392Y-112290845D01*
G37*
G36*
X128345508Y-112290845D02*
G01*
X128345508Y-113772380D01*
X128044448Y-113772380D01*
X127743387Y-113772380D01*
X127743387Y-112290845D01*
X127743387Y-110809311D01*
X128044448Y-110809311D01*
X128345508Y-110809311D01*
X128345508Y-112290845D01*
G37*
G36*
X133962664Y-111074719D02*
G01*
X133962664Y-111340128D01*
X133780443Y-111340128D01*
X133598222Y-111340128D01*
X133598222Y-112556254D01*
X133598222Y-113772380D01*
X133301123Y-113772380D01*
X133004024Y-113772380D01*
X133004024Y-112556254D01*
X133004024Y-111340128D01*
X132821803Y-111340128D01*
X132639582Y-111340128D01*
X132639582Y-111074719D01*
X132639582Y-110809311D01*
X133301123Y-110809311D01*
X133962664Y-110809311D01*
X133962664Y-111074719D01*
G37*
G36*
X132504897Y-112290845D02*
G01*
X132504897Y-113772380D01*
X131946350Y-113772380D01*
X131387804Y-113772380D01*
X131387804Y-113506971D01*
X131387804Y-113241563D01*
X131645290Y-113241563D01*
X131902776Y-113241563D01*
X131902776Y-112889005D01*
X131902776Y-112536447D01*
X131657174Y-112536447D01*
X131411572Y-112536447D01*
X131411572Y-112267077D01*
X131411572Y-111997707D01*
X131657174Y-111997707D01*
X131902776Y-111997707D01*
X131902776Y-111668918D01*
X131902776Y-111340128D01*
X131649251Y-111340128D01*
X131395727Y-111340128D01*
X131395727Y-111074719D01*
X131395727Y-110809311D01*
X131950312Y-110809311D01*
X132504897Y-110809311D01*
X132504897Y-112290845D01*
G37*
G36*
X140483000Y-112290845D02*
G01*
X140483000Y-113773245D01*
X139981893Y-113770514D01*
X139939352Y-113770280D01*
X139843688Y-113769728D01*
X139762049Y-113769183D01*
X139693137Y-113768597D01*
X139635651Y-113767925D01*
X139588293Y-113767119D01*
X139549764Y-113766133D01*
X139518763Y-113764921D01*
X139493993Y-113763435D01*
X139474153Y-113761629D01*
X139457945Y-113759457D01*
X139444068Y-113756871D01*
X139431225Y-113753826D01*
X139418115Y-113750274D01*
X139364608Y-113733337D01*
X139280639Y-113696524D01*
X139208959Y-113650123D01*
X139148860Y-113593409D01*
X139099631Y-113525657D01*
X139060564Y-113446142D01*
X139030951Y-113354138D01*
X139013350Y-113285137D01*
X139013350Y-112290845D01*
X139013350Y-111430634D01*
X139611509Y-111430634D01*
X139611640Y-112294505D01*
X139611770Y-113158375D01*
X139629498Y-113190066D01*
X139646950Y-113213589D01*
X139682544Y-113239582D01*
X139690044Y-113243210D01*
X139709185Y-113250438D01*
X139730827Y-113254762D01*
X139759408Y-113256859D01*
X139799370Y-113257408D01*
X139880879Y-113257408D01*
X139880879Y-112290845D01*
X139880879Y-111324283D01*
X139799370Y-111324283D01*
X139745303Y-111326384D01*
X139703229Y-111333492D01*
X139671540Y-111346651D01*
X139647740Y-111366901D01*
X139629335Y-111395285D01*
X139611509Y-111430634D01*
X139013350Y-111430634D01*
X139013350Y-111296553D01*
X139030951Y-111227553D01*
X139048552Y-111168002D01*
X139083655Y-111084612D01*
X139128504Y-111013171D01*
X139183899Y-110952863D01*
X139250642Y-110902876D01*
X139329531Y-110862397D01*
X139421366Y-110830611D01*
X139423689Y-110829962D01*
X139436212Y-110826658D01*
X139449063Y-110823828D01*
X139463535Y-110821428D01*
X139480921Y-110819412D01*
X139502515Y-110817736D01*
X139529608Y-110816355D01*
X139563495Y-110815224D01*
X139605469Y-110814298D01*
X139656822Y-110813532D01*
X139718848Y-110812882D01*
X139792840Y-110812303D01*
X139880090Y-110811749D01*
X139981893Y-110811177D01*
X140483000Y-110808445D01*
X140483000Y-111324283D01*
X140483000Y-112290845D01*
G37*
G36*
X136371148Y-112290752D02*
G01*
X136371148Y-113772380D01*
X136109597Y-113772380D01*
X135848046Y-113772380D01*
X135852027Y-113651560D01*
X135852757Y-113625766D01*
X135853721Y-113580124D01*
X135854625Y-113524129D01*
X135855468Y-113459091D01*
X135856245Y-113386321D01*
X135856953Y-113307128D01*
X135857587Y-113222823D01*
X135858146Y-113134714D01*
X135858624Y-113044112D01*
X135859019Y-112952326D01*
X135859326Y-112860667D01*
X135859542Y-112770445D01*
X135859664Y-112682968D01*
X135859688Y-112599548D01*
X135859610Y-112521494D01*
X135859427Y-112450115D01*
X135859135Y-112386722D01*
X135858731Y-112332625D01*
X135858211Y-112289133D01*
X135857571Y-112257556D01*
X135856807Y-112239204D01*
X135855917Y-112235387D01*
X135855509Y-112237078D01*
X135851828Y-112252710D01*
X135844895Y-112282357D01*
X135834972Y-112324904D01*
X135822316Y-112379237D01*
X135807187Y-112444242D01*
X135789844Y-112518803D01*
X135770547Y-112601808D01*
X135749555Y-112692140D01*
X135727127Y-112788686D01*
X135703522Y-112890331D01*
X135679000Y-112995961D01*
X135671948Y-113026341D01*
X135647703Y-113130762D01*
X135624473Y-113230776D01*
X135602515Y-113325279D01*
X135582085Y-113413168D01*
X135563440Y-113493342D01*
X135546836Y-113564697D01*
X135532530Y-113626130D01*
X135520778Y-113676539D01*
X135511838Y-113714821D01*
X135505965Y-113739873D01*
X135503417Y-113750593D01*
X135497939Y-113772380D01*
X135205660Y-113772380D01*
X134913381Y-113772380D01*
X134913381Y-112290845D01*
X134913381Y-110809311D01*
X135175006Y-110809311D01*
X135436631Y-110809311D01*
X135432449Y-111274766D01*
X135432156Y-111307255D01*
X135431269Y-111403130D01*
X135430335Y-111501318D01*
X135429380Y-111599224D01*
X135428429Y-111694255D01*
X135427508Y-111783816D01*
X135426645Y-111865314D01*
X135425865Y-111936156D01*
X135425194Y-111993746D01*
X135424796Y-112029337D01*
X135424294Y-112096744D01*
X135424323Y-112148986D01*
X135424891Y-112186528D01*
X135426008Y-112209832D01*
X135427686Y-112219361D01*
X135429932Y-112215580D01*
X135432394Y-112205266D01*
X135438314Y-112180139D01*
X135447315Y-112141785D01*
X135459125Y-112091371D01*
X135473471Y-112030059D01*
X135490082Y-111959015D01*
X135508684Y-111879404D01*
X135529006Y-111792391D01*
X135550775Y-111699139D01*
X135573719Y-111600814D01*
X135597566Y-111498581D01*
X135757387Y-110813272D01*
X136064267Y-110811198D01*
X136371148Y-110809125D01*
X136371148Y-112290752D01*
G37*
G36*
X129424711Y-110842982D02*
G01*
X129425764Y-110853074D01*
X129428336Y-110878429D01*
X129432265Y-110917515D01*
X129437444Y-110969248D01*
X129443765Y-111032543D01*
X129451119Y-111106318D01*
X129459399Y-111189488D01*
X129468497Y-111280970D01*
X129478306Y-111379678D01*
X129488716Y-111484530D01*
X129499619Y-111594442D01*
X129510909Y-111708329D01*
X129522361Y-111823530D01*
X129535501Y-111954619D01*
X129547273Y-112070684D01*
X129557724Y-112172144D01*
X129566899Y-112259421D01*
X129574846Y-112332935D01*
X129581610Y-112393105D01*
X129587239Y-112440352D01*
X129591778Y-112475096D01*
X129595274Y-112497758D01*
X129597774Y-112508758D01*
X129599324Y-112508516D01*
X129600157Y-112502247D01*
X129602540Y-112480784D01*
X129606221Y-112445738D01*
X129611073Y-112398385D01*
X129616974Y-112340002D01*
X129623798Y-112271864D01*
X129631421Y-112195249D01*
X129639720Y-112111431D01*
X129648570Y-112021687D01*
X129657846Y-111927293D01*
X129667424Y-111829526D01*
X129677181Y-111729661D01*
X129686991Y-111628974D01*
X129696731Y-111528742D01*
X129706275Y-111430241D01*
X129715501Y-111334747D01*
X129724283Y-111243536D01*
X129732497Y-111157883D01*
X129740020Y-111079066D01*
X129746726Y-111008361D01*
X129752491Y-110947043D01*
X129757192Y-110896388D01*
X129760703Y-110857674D01*
X129762901Y-110832175D01*
X129763662Y-110821168D01*
X129763671Y-110820935D01*
X129765454Y-110818372D01*
X129771151Y-110816208D01*
X129781957Y-110814411D01*
X129799063Y-110812948D01*
X129823663Y-110811786D01*
X129856950Y-110810893D01*
X129900117Y-110810236D01*
X129954357Y-110809782D01*
X130020863Y-110809498D01*
X130100829Y-110809352D01*
X130195446Y-110809311D01*
X130627230Y-110809311D01*
X130627230Y-112290845D01*
X130627230Y-113772380D01*
X130385622Y-113772380D01*
X130144015Y-113772380D01*
X130142001Y-112852280D01*
X130139987Y-111932181D01*
X130038021Y-112826532D01*
X130033341Y-112867571D01*
X130020038Y-112984109D01*
X130007224Y-113096202D01*
X129995018Y-113202821D01*
X129983536Y-113302940D01*
X129972899Y-113395531D01*
X129963224Y-113479568D01*
X129954630Y-113554023D01*
X129947235Y-113617870D01*
X129941157Y-113670081D01*
X129936514Y-113709630D01*
X129933426Y-113735489D01*
X129932009Y-113746631D01*
X129927964Y-113772380D01*
X129645766Y-113772372D01*
X129363568Y-113772365D01*
X129256612Y-112845118D01*
X129149657Y-111917872D01*
X129147643Y-112845126D01*
X129145630Y-113772380D01*
X128848563Y-113772380D01*
X128551497Y-113772380D01*
X128551497Y-112290845D01*
X128551497Y-110809311D01*
X128986212Y-110809311D01*
X129420927Y-110809311D01*
X129424711Y-110842982D01*
G37*
G36*
X145623530Y-110928042D02*
G01*
X145636582Y-110929665D01*
X145663180Y-110933576D01*
X145701528Y-110939491D01*
X145749833Y-110947127D01*
X145806299Y-110956201D01*
X145869134Y-110966430D01*
X145936541Y-110977530D01*
X146236401Y-111027183D01*
X146230629Y-111336212D01*
X146224857Y-111645241D01*
X146308692Y-111684808D01*
X146329549Y-111694709D01*
X146358711Y-111709157D01*
X146377183Y-111719888D01*
X146387405Y-111728739D01*
X146391817Y-111737546D01*
X146392857Y-111748144D01*
X146392523Y-111754690D01*
X146390712Y-111776603D01*
X146387462Y-111811751D01*
X146382923Y-111858626D01*
X146377247Y-111915722D01*
X146370583Y-111981534D01*
X146363081Y-112054554D01*
X146354892Y-112133278D01*
X146346166Y-112216197D01*
X146299145Y-112660482D01*
X146233322Y-112851201D01*
X146167498Y-113041919D01*
X146000687Y-113122370D01*
X145833876Y-113202821D01*
X145782814Y-113315087D01*
X145777450Y-113326768D01*
X145742141Y-113397594D01*
X145703545Y-113463663D01*
X145657304Y-113532524D01*
X145639997Y-113556777D01*
X145616567Y-113588934D01*
X145597289Y-113614581D01*
X145583798Y-113631556D01*
X145577732Y-113637695D01*
X145576730Y-113636592D01*
X145570795Y-113624279D01*
X145560710Y-113600036D01*
X145547330Y-113566016D01*
X145531509Y-113524373D01*
X145514101Y-113477261D01*
X145455593Y-113316828D01*
X145399568Y-113262945D01*
X145389682Y-113253742D01*
X145356449Y-113225859D01*
X145321882Y-113200448D01*
X145292046Y-113182071D01*
X145289892Y-113180941D01*
X145263525Y-113166895D01*
X145242446Y-113155306D01*
X145231049Y-113148587D01*
X145229097Y-113144328D01*
X145224026Y-113125977D01*
X145216706Y-113094724D01*
X145207478Y-113052190D01*
X145196680Y-112999994D01*
X145184653Y-112939757D01*
X145171736Y-112873098D01*
X145158269Y-112801638D01*
X145094989Y-112461182D01*
X145086562Y-112226008D01*
X145086290Y-112218382D01*
X145084123Y-112154846D01*
X145082182Y-112093173D01*
X145080543Y-112036156D01*
X145079284Y-111986589D01*
X145078480Y-111947268D01*
X145078208Y-111920986D01*
X145078282Y-111851139D01*
X145150453Y-111811670D01*
X145222623Y-111772202D01*
X145217883Y-111708676D01*
X145217602Y-111704838D01*
X145215379Y-111670650D01*
X145212856Y-111626653D01*
X145210322Y-111578107D01*
X145208066Y-111530271D01*
X145202990Y-111415393D01*
X145275220Y-111371819D01*
X145347450Y-111328244D01*
X145347477Y-111166787D01*
X145347504Y-111005330D01*
X145393060Y-111010066D01*
X145407673Y-111011465D01*
X145442008Y-111014326D01*
X145482708Y-111017356D01*
X145523783Y-111020094D01*
X145608952Y-111025385D01*
X145608952Y-110976767D01*
X145609139Y-110959924D01*
X145610816Y-110939968D01*
X145615049Y-110930478D01*
X145622816Y-110928014D01*
X145623530Y-110928042D01*
G37*
G36*
X125881566Y-112290845D02*
G01*
X125881566Y-113772380D01*
X125580505Y-113772380D01*
X125279445Y-113772380D01*
X125279445Y-113213833D01*
X125279445Y-112655287D01*
X125190315Y-112655404D01*
X125162891Y-112655660D01*
X125122668Y-112657662D01*
X125093873Y-112662446D01*
X125073672Y-112670956D01*
X125059232Y-112684137D01*
X125047720Y-112702933D01*
X125045298Y-112708437D01*
X125042870Y-112716392D01*
X125040810Y-112727187D01*
X125039087Y-112742005D01*
X125037673Y-112762028D01*
X125036536Y-112788439D01*
X125035648Y-112822419D01*
X125034978Y-112865151D01*
X125034496Y-112917817D01*
X125034173Y-112981599D01*
X125033978Y-113057680D01*
X125033882Y-113147241D01*
X125033855Y-113251466D01*
X125033843Y-113772380D01*
X124732257Y-113772380D01*
X124430670Y-113772380D01*
X124433650Y-113215814D01*
X124433735Y-113199919D01*
X124434333Y-113090698D01*
X124434932Y-112995957D01*
X124435612Y-112914495D01*
X124436457Y-112845110D01*
X124437547Y-112786598D01*
X124438965Y-112737759D01*
X124440792Y-112697389D01*
X124443110Y-112664287D01*
X124446001Y-112637251D01*
X124449547Y-112615077D01*
X124453828Y-112596565D01*
X124458928Y-112580511D01*
X124464928Y-112565714D01*
X124471910Y-112550971D01*
X124479955Y-112535080D01*
X124491454Y-112514734D01*
X124532783Y-112462475D01*
X124585790Y-112418731D01*
X124648210Y-112385516D01*
X124678516Y-112373060D01*
X124631053Y-112343764D01*
X124573603Y-112300626D01*
X124524183Y-112245158D01*
X124485704Y-112178748D01*
X124457673Y-112100702D01*
X124457244Y-112099113D01*
X124454165Y-112086265D01*
X124451583Y-112071779D01*
X124449456Y-112054234D01*
X124447742Y-112032209D01*
X124446397Y-112004284D01*
X124445381Y-111969037D01*
X124444650Y-111925049D01*
X124444162Y-111870899D01*
X124443875Y-111805165D01*
X124443755Y-111731900D01*
X125041765Y-111731900D01*
X125041788Y-111806978D01*
X125041959Y-111881893D01*
X125042430Y-111943536D01*
X125043352Y-111993301D01*
X125044876Y-112032580D01*
X125047154Y-112062764D01*
X125050336Y-112085246D01*
X125054575Y-112101419D01*
X125060022Y-112112673D01*
X125066827Y-112120401D01*
X125075142Y-112125996D01*
X125085118Y-112130850D01*
X125092808Y-112133242D01*
X125117288Y-112136951D01*
X125151825Y-112139419D01*
X125192668Y-112140315D01*
X125279445Y-112140315D01*
X125279445Y-111736260D01*
X125279445Y-111332205D01*
X125187542Y-111332205D01*
X125095639Y-111332205D01*
X125068702Y-111359142D01*
X125041765Y-111386079D01*
X125041765Y-111731900D01*
X124443755Y-111731900D01*
X124443746Y-111726428D01*
X124443733Y-111633266D01*
X124443860Y-111217327D01*
X124466009Y-111146197D01*
X124473837Y-111121965D01*
X124494270Y-111068328D01*
X124516972Y-111024251D01*
X124544501Y-110985238D01*
X124579415Y-110946791D01*
X124597976Y-110929318D01*
X124661425Y-110883665D01*
X124736015Y-110848824D01*
X124822149Y-110824593D01*
X124829119Y-110823188D01*
X124845182Y-110820283D01*
X124862323Y-110817818D01*
X124881885Y-110815757D01*
X124905210Y-110814062D01*
X124933641Y-110812699D01*
X124968520Y-110811632D01*
X125011190Y-110810824D01*
X125062992Y-110810239D01*
X125125270Y-110809842D01*
X125199366Y-110809596D01*
X125286622Y-110809466D01*
X125388381Y-110809415D01*
X125881566Y-110809311D01*
X125881566Y-111332205D01*
X125881566Y-112290845D01*
G37*
G36*
X143747130Y-112290845D02*
G01*
X143747130Y-113772380D01*
X143450031Y-113772380D01*
X143152932Y-113772380D01*
X143152932Y-113213833D01*
X143152932Y-112655287D01*
X143062194Y-112655287D01*
X143037395Y-112655572D01*
X142998368Y-112657351D01*
X142968323Y-112660507D01*
X142950683Y-112664752D01*
X142943340Y-112668098D01*
X142936015Y-112672073D01*
X142929756Y-112677282D01*
X142924481Y-112684848D01*
X142920105Y-112695896D01*
X142916544Y-112711549D01*
X142913715Y-112732932D01*
X142911533Y-112761168D01*
X142909914Y-112797381D01*
X142908775Y-112842696D01*
X142908031Y-112898236D01*
X142907598Y-112965126D01*
X142907393Y-113044489D01*
X142907332Y-113137449D01*
X142907330Y-113245131D01*
X142907330Y-113772380D01*
X142606269Y-113772380D01*
X142305209Y-113772380D01*
X142305346Y-113227698D01*
X142305394Y-113120805D01*
X142305536Y-113021892D01*
X142305856Y-112936488D01*
X142306435Y-112863391D01*
X142307358Y-112801399D01*
X142308707Y-112749310D01*
X142310565Y-112705923D01*
X142313015Y-112670036D01*
X142316141Y-112640447D01*
X142320025Y-112615954D01*
X142324751Y-112595355D01*
X142330401Y-112577450D01*
X142337060Y-112561035D01*
X142344809Y-112544910D01*
X142353732Y-112527872D01*
X142357861Y-112520412D01*
X142395878Y-112468373D01*
X142444139Y-112424699D01*
X142498723Y-112393039D01*
X142518638Y-112383904D01*
X142536014Y-112374685D01*
X142542753Y-112369294D01*
X142541144Y-112367085D01*
X142529198Y-112359333D01*
X142509400Y-112349488D01*
X142487322Y-112336854D01*
X142453630Y-112310440D01*
X142419515Y-112277147D01*
X142389060Y-112241061D01*
X142366344Y-112206267D01*
X142365868Y-112205366D01*
X142352641Y-112176212D01*
X142338910Y-112139614D01*
X142327573Y-112103273D01*
X142326045Y-112097580D01*
X142322135Y-112081598D01*
X142318906Y-112064975D01*
X142316270Y-112046021D01*
X142314142Y-112023047D01*
X142312434Y-111994364D01*
X142311059Y-111958282D01*
X142309930Y-111913112D01*
X142308961Y-111857165D01*
X142308065Y-111788752D01*
X142307154Y-111706183D01*
X142306769Y-111666280D01*
X142306296Y-111581179D01*
X142908255Y-111581179D01*
X142908575Y-111658686D01*
X142909191Y-111750780D01*
X142911291Y-112094090D01*
X142937165Y-112117203D01*
X142947646Y-112126192D01*
X142958305Y-112133001D01*
X142971289Y-112137171D01*
X142989976Y-112139349D01*
X143017748Y-112140181D01*
X143057985Y-112140315D01*
X143152932Y-112140315D01*
X143152932Y-111736260D01*
X143152932Y-111332205D01*
X143063802Y-111332322D01*
X143057068Y-111332321D01*
X143023494Y-111332231D01*
X142995321Y-111332916D01*
X142972085Y-111335633D01*
X142953322Y-111341636D01*
X142938568Y-111352183D01*
X142927360Y-111368527D01*
X142919232Y-111391926D01*
X142913722Y-111423635D01*
X142910365Y-111464910D01*
X142908698Y-111517006D01*
X142908255Y-111581179D01*
X142306296Y-111581179D01*
X142306194Y-111562763D01*
X142306512Y-111473075D01*
X142307871Y-111395733D01*
X142310422Y-111329257D01*
X142314315Y-111272164D01*
X142319700Y-111222973D01*
X142326727Y-111180201D01*
X142335547Y-111142368D01*
X142346308Y-111107992D01*
X142359162Y-111075591D01*
X142374259Y-111043684D01*
X142376260Y-111039844D01*
X142401842Y-111000897D01*
X142436531Y-110960103D01*
X142475809Y-110922315D01*
X142515159Y-110892384D01*
X142541463Y-110877179D01*
X142597593Y-110852099D01*
X142660025Y-110831691D01*
X142722665Y-110818135D01*
X142733009Y-110816934D01*
X142764148Y-110814941D01*
X142810665Y-110813241D01*
X142872260Y-110811839D01*
X142948630Y-110810740D01*
X143039476Y-110809949D01*
X143144495Y-110809471D01*
X143263386Y-110809311D01*
X143747130Y-110809311D01*
X143747130Y-111332205D01*
X143747130Y-112290845D01*
G37*
G36*
X142090533Y-112949852D02*
G01*
X142106729Y-113073633D01*
X142121872Y-113189580D01*
X142135860Y-113296903D01*
X142148592Y-113394816D01*
X142159963Y-113482532D01*
X142169873Y-113559263D01*
X142178218Y-113624223D01*
X142184896Y-113676622D01*
X142189805Y-113715676D01*
X142192841Y-113740595D01*
X142193903Y-113750593D01*
X142194292Y-113772380D01*
X141924922Y-113772380D01*
X141875369Y-113772346D01*
X141815740Y-113772209D01*
X141762832Y-113771979D01*
X141718469Y-113771670D01*
X141684477Y-113771295D01*
X141662680Y-113770867D01*
X141654903Y-113770399D01*
X141653987Y-113762469D01*
X141651699Y-113740818D01*
X141648256Y-113707522D01*
X141643869Y-113664651D01*
X141638751Y-113614276D01*
X141633116Y-113558469D01*
X141611977Y-113348518D01*
X141427776Y-113346392D01*
X141243574Y-113344265D01*
X141243055Y-113362237D01*
X141242520Y-113369741D01*
X141240429Y-113392129D01*
X141236997Y-113426173D01*
X141232471Y-113469481D01*
X141227100Y-113519659D01*
X141221131Y-113574314D01*
X141199726Y-113768419D01*
X140900132Y-113770495D01*
X140600539Y-113772572D01*
X140605002Y-113750689D01*
X140605078Y-113750276D01*
X140606828Y-113738294D01*
X140610483Y-113711730D01*
X140615919Y-113671532D01*
X140623011Y-113618647D01*
X140631634Y-113554020D01*
X140641666Y-113478598D01*
X140652980Y-113393328D01*
X140665453Y-113299156D01*
X140678961Y-113197029D01*
X140693378Y-113087893D01*
X140708581Y-112972696D01*
X140724446Y-112852383D01*
X140729925Y-112810797D01*
X141299033Y-112810797D01*
X141299495Y-112812702D01*
X141305038Y-112816384D01*
X141318446Y-112818950D01*
X141341712Y-112820571D01*
X141376831Y-112821418D01*
X141425795Y-112821663D01*
X141552558Y-112821663D01*
X141552257Y-112799875D01*
X141552036Y-112796189D01*
X141550465Y-112778054D01*
X141547510Y-112746805D01*
X141543321Y-112703885D01*
X141538047Y-112650738D01*
X141531836Y-112588809D01*
X141524839Y-112519541D01*
X141517202Y-112444378D01*
X141509076Y-112364764D01*
X141500609Y-112282143D01*
X141491951Y-112197960D01*
X141483249Y-112113658D01*
X141474654Y-112030680D01*
X141466314Y-111950472D01*
X141458377Y-111874477D01*
X141450993Y-111804139D01*
X141444311Y-111740901D01*
X141438479Y-111686209D01*
X141433647Y-111641506D01*
X141429964Y-111608235D01*
X141427577Y-111587841D01*
X141426637Y-111581769D01*
X141422253Y-111623024D01*
X141416079Y-111681440D01*
X141409036Y-111748358D01*
X141401272Y-111822351D01*
X141392935Y-111901992D01*
X141384173Y-111985853D01*
X141375134Y-112072508D01*
X141365967Y-112160530D01*
X141356820Y-112248491D01*
X141347841Y-112334965D01*
X141339178Y-112418523D01*
X141330979Y-112497740D01*
X141323392Y-112571187D01*
X141316567Y-112637438D01*
X141310650Y-112695065D01*
X141305790Y-112742642D01*
X141302135Y-112778741D01*
X141299833Y-112801935D01*
X141299033Y-112810797D01*
X140729925Y-112810797D01*
X140740847Y-112727901D01*
X140757660Y-112600197D01*
X140774762Y-112470217D01*
X140792027Y-112338908D01*
X140809332Y-112207216D01*
X140826551Y-112076088D01*
X140843561Y-111946471D01*
X140860237Y-111819310D01*
X140876455Y-111695553D01*
X140892090Y-111576147D01*
X140907018Y-111462037D01*
X140921115Y-111354170D01*
X140934256Y-111253493D01*
X140946317Y-111160952D01*
X140957173Y-111077494D01*
X140966701Y-111004066D01*
X140974775Y-110941614D01*
X140981271Y-110891084D01*
X140986065Y-110853423D01*
X140989033Y-110829579D01*
X140990050Y-110820496D01*
X140990501Y-110819128D01*
X140994411Y-110816807D01*
X141003333Y-110814898D01*
X141018471Y-110813374D01*
X141041030Y-110812210D01*
X141072211Y-110811376D01*
X141113220Y-110810846D01*
X141165259Y-110810593D01*
X141229532Y-110810589D01*
X141307242Y-110810807D01*
X141399593Y-110811220D01*
X141809136Y-110813272D01*
X142001325Y-112271039D01*
X142017279Y-112392116D01*
X142036659Y-112539367D01*
X142055396Y-112681931D01*
X142073388Y-112819022D01*
X142073734Y-112821663D01*
X142090533Y-112949852D01*
G37*
G36*
X146920150Y-113808032D02*
G01*
X146898565Y-113871413D01*
X146870656Y-113940213D01*
X146825013Y-114018875D01*
X146765743Y-114091850D01*
X146717080Y-114139048D01*
X146645099Y-114192773D01*
X146565820Y-114233900D01*
X146476481Y-114264073D01*
X146472646Y-114265067D01*
X146462188Y-114267485D01*
X146450505Y-114269595D01*
X146436552Y-114271415D01*
X146419284Y-114272963D01*
X146397658Y-114274257D01*
X146370629Y-114275313D01*
X146337154Y-114276151D01*
X146296187Y-114276788D01*
X146246684Y-114277242D01*
X146187602Y-114277531D01*
X146117896Y-114277672D01*
X146036521Y-114277683D01*
X145942434Y-114277582D01*
X145834591Y-114277388D01*
X145711946Y-114277117D01*
X145002869Y-114275468D01*
X144939488Y-114253883D01*
X144889580Y-114234769D01*
X144825296Y-114201760D01*
X144765576Y-114159549D01*
X144705770Y-114105176D01*
X144687627Y-114086624D01*
X144645174Y-114038277D01*
X144611998Y-113990745D01*
X144584798Y-113938858D01*
X144560269Y-113877444D01*
X144535433Y-113808032D01*
X144535433Y-112282923D01*
X144535433Y-111756059D01*
X144738580Y-111756059D01*
X144738639Y-111930552D01*
X144738814Y-112120660D01*
X144739104Y-112326497D01*
X144741422Y-113752573D01*
X144759855Y-113803643D01*
X144778443Y-113847328D01*
X144819256Y-113913510D01*
X144870794Y-113969685D01*
X144931499Y-114014556D01*
X144999812Y-114046826D01*
X145074173Y-114065198D01*
X145081928Y-114065939D01*
X145107301Y-114067165D01*
X145146101Y-114068259D01*
X145196786Y-114069221D01*
X145257818Y-114070051D01*
X145327655Y-114070749D01*
X145404756Y-114071315D01*
X145487581Y-114071749D01*
X145574590Y-114072050D01*
X145664241Y-114072219D01*
X145754994Y-114072255D01*
X145845308Y-114072158D01*
X145933644Y-114071929D01*
X146018459Y-114071566D01*
X146098214Y-114071071D01*
X146171368Y-114070442D01*
X146236381Y-114069680D01*
X146291711Y-114068784D01*
X146335818Y-114067755D01*
X146367162Y-114066593D01*
X146384201Y-114065296D01*
X146435829Y-114054084D01*
X146505158Y-114026183D01*
X146566980Y-113985780D01*
X146619859Y-113934358D01*
X146662356Y-113873399D01*
X146693035Y-113804388D01*
X146710456Y-113728805D01*
X146711135Y-113721271D01*
X146712258Y-113696586D01*
X146713260Y-113657438D01*
X146714142Y-113603713D01*
X146714905Y-113535295D01*
X146715549Y-113452069D01*
X146716075Y-113353920D01*
X146716483Y-113240732D01*
X146716773Y-113112391D01*
X146716946Y-112968781D01*
X146717003Y-112809787D01*
X146716944Y-112635293D01*
X146716769Y-112445186D01*
X146716479Y-112239348D01*
X146714161Y-110813272D01*
X146695727Y-110762202D01*
X146676274Y-110716535D01*
X146634893Y-110649789D01*
X146582705Y-110593767D01*
X146520929Y-110549463D01*
X146450783Y-110517867D01*
X146373487Y-110499973D01*
X146362396Y-110498897D01*
X146330837Y-110497265D01*
X146283717Y-110495919D01*
X146221214Y-110494861D01*
X146143508Y-110494093D01*
X146050777Y-110493617D01*
X145943199Y-110493433D01*
X145820953Y-110493544D01*
X145684217Y-110493951D01*
X145058328Y-110496366D01*
X145007258Y-110514800D01*
X144961149Y-110534473D01*
X144894500Y-110575895D01*
X144838573Y-110628092D01*
X144794368Y-110689835D01*
X144762886Y-110759895D01*
X144745127Y-110837040D01*
X144744447Y-110844574D01*
X144743325Y-110869259D01*
X144742323Y-110908407D01*
X144741441Y-110962132D01*
X144740678Y-111030550D01*
X144740034Y-111113776D01*
X144739508Y-111211926D01*
X144739100Y-111325113D01*
X144738810Y-111453455D01*
X144738636Y-111597065D01*
X144738580Y-111756059D01*
X144535433Y-111756059D01*
X144535433Y-110757814D01*
X144557018Y-110694432D01*
X144576132Y-110644524D01*
X144609141Y-110580240D01*
X144651353Y-110520520D01*
X144705726Y-110460714D01*
X144724277Y-110442572D01*
X144772624Y-110400118D01*
X144820156Y-110366942D01*
X144872044Y-110339742D01*
X144933457Y-110315213D01*
X145002869Y-110290377D01*
X145727791Y-110290377D01*
X146452713Y-110290377D01*
X146516095Y-110311962D01*
X146566003Y-110331076D01*
X146630287Y-110364085D01*
X146690007Y-110406297D01*
X146749813Y-110460670D01*
X146767955Y-110479222D01*
X146810409Y-110527568D01*
X146843585Y-110575100D01*
X146870785Y-110626988D01*
X146895314Y-110688402D01*
X146920150Y-110757814D01*
X146920150Y-112282923D01*
X146920150Y-112809787D01*
X146920150Y-113808032D01*
G37*
G36*
X127153150Y-110789641D02*
G01*
X127216531Y-110811079D01*
X127282132Y-110837252D01*
X127352299Y-110877487D01*
X127410571Y-110927178D01*
X127457926Y-110987382D01*
X127495341Y-111059158D01*
X127523794Y-111143562D01*
X127541360Y-111209404D01*
X127541360Y-112290845D01*
X127541360Y-113372286D01*
X127523552Y-113439629D01*
X127513330Y-113474578D01*
X127480557Y-113555046D01*
X127437783Y-113623389D01*
X127384530Y-113680057D01*
X127320319Y-113725501D01*
X127244672Y-113760170D01*
X127157111Y-113784514D01*
X127146582Y-113786354D01*
X127124390Y-113788867D01*
X127094675Y-113790822D01*
X127056053Y-113792253D01*
X127007135Y-113793192D01*
X126946536Y-113793671D01*
X126872869Y-113793726D01*
X126784747Y-113793388D01*
X126726879Y-113793060D01*
X126657096Y-113792586D01*
X126600266Y-113792018D01*
X126554694Y-113791266D01*
X126518683Y-113790238D01*
X126490537Y-113788843D01*
X126468561Y-113786990D01*
X126451057Y-113784587D01*
X126436330Y-113781545D01*
X126422684Y-113777771D01*
X126408422Y-113773175D01*
X126333210Y-113743410D01*
X126263519Y-113703602D01*
X126205992Y-113655027D01*
X126159380Y-113596373D01*
X126122431Y-113526331D01*
X126093897Y-113443590D01*
X126090980Y-113432789D01*
X126087715Y-113419315D01*
X126084957Y-113405069D01*
X126082652Y-113388681D01*
X126080749Y-113368782D01*
X126079193Y-113344000D01*
X126077931Y-113312966D01*
X126076912Y-113274309D01*
X126076080Y-113226658D01*
X126075385Y-113168644D01*
X126074771Y-113098895D01*
X126074188Y-113016042D01*
X126073580Y-112918715D01*
X126070781Y-112457221D01*
X126368344Y-112457221D01*
X126665907Y-112457221D01*
X126665907Y-112837901D01*
X126665911Y-112902118D01*
X126665998Y-112983712D01*
X126666316Y-113051690D01*
X126667014Y-113107377D01*
X126668243Y-113152099D01*
X126670150Y-113187181D01*
X126672885Y-113213947D01*
X126676598Y-113233723D01*
X126681438Y-113247833D01*
X126687554Y-113257602D01*
X126695095Y-113264356D01*
X126704211Y-113269420D01*
X126715050Y-113274118D01*
X126736275Y-113279682D01*
X126768177Y-113283655D01*
X126804554Y-113285137D01*
X126839866Y-113283740D01*
X126871989Y-113279832D01*
X126894057Y-113274118D01*
X126895901Y-113273364D01*
X126903046Y-113270730D01*
X126909435Y-113268258D01*
X126915110Y-113265103D01*
X126920114Y-113260424D01*
X126924488Y-113253378D01*
X126928275Y-113243123D01*
X126931517Y-113228816D01*
X126934256Y-113209616D01*
X126936534Y-113184679D01*
X126938392Y-113153163D01*
X126939874Y-113114227D01*
X126941021Y-113067026D01*
X126941876Y-113010720D01*
X126942480Y-112944465D01*
X126942875Y-112867419D01*
X126943104Y-112778741D01*
X126943209Y-112677586D01*
X126943232Y-112563114D01*
X126943215Y-112434481D01*
X126943200Y-112290845D01*
X126943201Y-112254736D01*
X126943221Y-112114801D01*
X126943232Y-111989665D01*
X126943193Y-111878486D01*
X126943062Y-111780422D01*
X126942797Y-111694630D01*
X126942355Y-111620268D01*
X126941694Y-111556493D01*
X126940773Y-111502463D01*
X126939549Y-111457335D01*
X126937980Y-111420268D01*
X126936024Y-111390418D01*
X126933638Y-111366944D01*
X126930782Y-111349003D01*
X126927412Y-111335752D01*
X126923487Y-111326349D01*
X126918965Y-111319952D01*
X126913803Y-111315718D01*
X126907959Y-111312805D01*
X126901391Y-111310371D01*
X126894057Y-111307573D01*
X126890005Y-111306042D01*
X126861422Y-111300010D01*
X126824448Y-111297148D01*
X126785063Y-111297454D01*
X126749245Y-111300929D01*
X126722973Y-111307573D01*
X126713629Y-111311630D01*
X126703734Y-111317001D01*
X126695632Y-111324037D01*
X126689144Y-111334156D01*
X126684090Y-111348775D01*
X126680292Y-111369314D01*
X126677571Y-111397189D01*
X126675746Y-111433820D01*
X126674639Y-111480623D01*
X126674070Y-111539018D01*
X126673860Y-111610422D01*
X126673830Y-111696254D01*
X126673830Y-112029398D01*
X126376168Y-112029398D01*
X126078505Y-112029398D01*
X126081521Y-111615440D01*
X126082172Y-111528819D01*
X126082843Y-111450371D01*
X126083550Y-111384920D01*
X126084356Y-111330995D01*
X126085324Y-111287126D01*
X126086516Y-111251843D01*
X126087996Y-111223675D01*
X126089827Y-111201152D01*
X126092070Y-111182803D01*
X126094789Y-111167159D01*
X126098047Y-111152748D01*
X126101907Y-111138100D01*
X126119478Y-111083495D01*
X126155821Y-111005855D01*
X126202223Y-110940453D01*
X126258692Y-110887279D01*
X126325234Y-110846323D01*
X126345503Y-110836534D01*
X126370545Y-110825032D01*
X126393976Y-110815576D01*
X126417542Y-110807967D01*
X126442988Y-110802005D01*
X126472061Y-110797489D01*
X126506506Y-110794220D01*
X126548067Y-110791998D01*
X126598492Y-110790622D01*
X126659525Y-110789893D01*
X126732912Y-110789609D01*
X126820399Y-110789573D01*
X127153150Y-110789641D01*
G37*
G36*
X137969085Y-112892484D02*
G01*
X137984688Y-113011629D01*
X137999586Y-113125458D01*
X138013653Y-113233025D01*
X138026767Y-113333386D01*
X138038802Y-113425596D01*
X138049635Y-113508710D01*
X138059141Y-113581784D01*
X138067198Y-113643872D01*
X138073680Y-113694030D01*
X138078463Y-113731312D01*
X138081424Y-113754775D01*
X138082439Y-113763473D01*
X138079612Y-113765456D01*
X138066458Y-113767690D01*
X138041787Y-113769454D01*
X138004733Y-113770776D01*
X137954431Y-113771686D01*
X137890018Y-113772211D01*
X137810627Y-113772380D01*
X137538815Y-113772380D01*
X137520736Y-113576294D01*
X137516936Y-113535650D01*
X137511923Y-113483735D01*
X137507330Y-113438067D01*
X137503406Y-113401030D01*
X137500397Y-113375007D01*
X137498551Y-113362383D01*
X137494446Y-113344557D01*
X137313569Y-113344557D01*
X137132692Y-113344557D01*
X137128237Y-113378228D01*
X137128210Y-113378432D01*
X137125966Y-113397120D01*
X137122452Y-113428387D01*
X137118008Y-113469106D01*
X137112976Y-113516150D01*
X137107697Y-113566391D01*
X137107445Y-113568811D01*
X137102222Y-113618246D01*
X137097291Y-113663688D01*
X137092981Y-113702195D01*
X137089621Y-113730824D01*
X137087540Y-113746631D01*
X137083468Y-113772380D01*
X136786031Y-113772380D01*
X136488595Y-113772380D01*
X136493236Y-113742670D01*
X136493356Y-113741859D01*
X136495190Y-113728460D01*
X136498917Y-113700614D01*
X136504415Y-113659263D01*
X136511559Y-113605350D01*
X136520225Y-113539818D01*
X136530290Y-113463608D01*
X136541630Y-113377664D01*
X136554121Y-113282927D01*
X136567639Y-113180340D01*
X136582061Y-113070845D01*
X136597261Y-112955385D01*
X136613118Y-112834902D01*
X136617205Y-112803837D01*
X137187069Y-112803837D01*
X137187411Y-112809887D01*
X137189869Y-112814825D01*
X137196727Y-112818144D01*
X137210274Y-112820166D01*
X137232800Y-112821212D01*
X137266593Y-112821603D01*
X137313942Y-112821663D01*
X137329259Y-112821654D01*
X137372676Y-112821421D01*
X137403140Y-112820685D01*
X137422893Y-112819201D01*
X137434176Y-112816722D01*
X137439233Y-112813003D01*
X137440304Y-112807798D01*
X137440296Y-112807543D01*
X137439182Y-112790531D01*
X137436581Y-112760355D01*
X137432650Y-112718463D01*
X137427543Y-112666299D01*
X137421416Y-112605311D01*
X137414424Y-112536944D01*
X137406723Y-112462645D01*
X137398469Y-112383860D01*
X137389816Y-112302036D01*
X137380921Y-112218618D01*
X137371938Y-112135053D01*
X137363023Y-112052788D01*
X137354332Y-111973268D01*
X137346020Y-111897939D01*
X137338243Y-111828249D01*
X137331155Y-111765643D01*
X137324913Y-111711568D01*
X137319672Y-111667469D01*
X137315587Y-111634794D01*
X137312813Y-111614988D01*
X137311507Y-111609498D01*
X137310641Y-111615057D01*
X137308109Y-111635557D01*
X137304242Y-111669288D01*
X137299199Y-111714726D01*
X137293137Y-111770352D01*
X137286216Y-111834642D01*
X137278593Y-111906074D01*
X137270428Y-111983128D01*
X137261879Y-112064280D01*
X137253105Y-112148009D01*
X137244264Y-112232793D01*
X137235515Y-112317111D01*
X137227017Y-112399439D01*
X137218927Y-112478257D01*
X137211405Y-112552042D01*
X137204609Y-112619272D01*
X137198697Y-112678426D01*
X137193829Y-112727981D01*
X137190162Y-112766416D01*
X137187856Y-112792208D01*
X137187069Y-112803837D01*
X136617205Y-112803837D01*
X136629506Y-112710339D01*
X136646301Y-112582637D01*
X136663381Y-112452740D01*
X136680621Y-112321589D01*
X136697898Y-112190127D01*
X136715086Y-112059297D01*
X136732064Y-111930040D01*
X136748706Y-111803300D01*
X136764889Y-111680018D01*
X136780489Y-111561137D01*
X136795383Y-111447599D01*
X136809445Y-111340348D01*
X136822554Y-111240324D01*
X136834584Y-111148471D01*
X136845411Y-111065730D01*
X136854913Y-110993045D01*
X136862965Y-110931358D01*
X136869443Y-110881611D01*
X136874224Y-110844746D01*
X136877183Y-110821706D01*
X136878197Y-110813433D01*
X136879074Y-110813162D01*
X136891721Y-110812382D01*
X136918239Y-110811657D01*
X136957151Y-110811002D01*
X137006977Y-110810433D01*
X137066239Y-110809964D01*
X137133459Y-110809611D01*
X137207156Y-110809388D01*
X137285854Y-110809311D01*
X137693511Y-110809311D01*
X137697942Y-110835059D01*
X137698018Y-110835521D01*
X137699792Y-110848068D01*
X137703465Y-110875139D01*
X137708913Y-110915789D01*
X137716012Y-110969074D01*
X137724638Y-111034048D01*
X137734666Y-111109768D01*
X137745974Y-111195287D01*
X137758436Y-111289662D01*
X137771929Y-111391947D01*
X137786329Y-111501198D01*
X137801511Y-111616470D01*
X137817352Y-111736818D01*
X137833727Y-111861298D01*
X137850513Y-111988963D01*
X137867585Y-112118871D01*
X137884819Y-112250076D01*
X137902092Y-112381632D01*
X137919279Y-112512596D01*
X137936256Y-112642023D01*
X137952900Y-112768967D01*
X137957988Y-112807798D01*
X137969085Y-112892484D01*
G37*
G36*
X124245558Y-112133242D02*
G01*
X124245539Y-112290845D01*
X124245541Y-112330945D01*
X124245560Y-112484465D01*
X124245579Y-112623160D01*
X124245564Y-112747852D01*
X124245483Y-112859359D01*
X124245301Y-112958502D01*
X124244986Y-113046100D01*
X124244505Y-113122974D01*
X124243825Y-113189943D01*
X124242912Y-113247826D01*
X124241734Y-113297444D01*
X124240257Y-113339617D01*
X124238448Y-113375164D01*
X124236275Y-113404905D01*
X124233704Y-113429660D01*
X124230701Y-113450249D01*
X124227235Y-113467492D01*
X124223271Y-113482208D01*
X124218777Y-113495217D01*
X124213720Y-113507340D01*
X124208066Y-113519395D01*
X124201782Y-113532204D01*
X124194836Y-113546585D01*
X124193172Y-113550068D01*
X124152010Y-113617587D01*
X124098805Y-113674921D01*
X124033785Y-113721903D01*
X123957178Y-113758367D01*
X123869214Y-113784146D01*
X123865146Y-113784983D01*
X123847248Y-113787746D01*
X123824036Y-113789947D01*
X123794004Y-113791619D01*
X123755650Y-113792801D01*
X123707469Y-113793529D01*
X123647957Y-113793839D01*
X123575611Y-113793767D01*
X123488927Y-113793349D01*
X123433995Y-113793001D01*
X123362277Y-113792465D01*
X123303603Y-113791844D01*
X123256280Y-113791052D01*
X123218616Y-113790002D01*
X123188919Y-113788608D01*
X123165497Y-113786782D01*
X123146658Y-113784438D01*
X123130710Y-113781488D01*
X123115960Y-113777847D01*
X123100717Y-113773427D01*
X123090362Y-113770208D01*
X123010191Y-113737499D01*
X122941772Y-113694365D01*
X122884831Y-113640498D01*
X122839097Y-113575589D01*
X122804296Y-113499331D01*
X122780156Y-113411417D01*
X122778528Y-113402352D01*
X122776892Y-113390355D01*
X122775433Y-113375558D01*
X122774143Y-113357144D01*
X122773016Y-113334299D01*
X122772044Y-113306208D01*
X122771219Y-113272055D01*
X122770535Y-113231024D01*
X122769983Y-113182301D01*
X122769556Y-113125071D01*
X122769248Y-113058517D01*
X122769050Y-112981826D01*
X122768956Y-112894180D01*
X122768957Y-112794766D01*
X122769047Y-112682768D01*
X122769219Y-112557370D01*
X122769464Y-112417758D01*
X122769775Y-112263116D01*
X122770023Y-112148267D01*
X123362156Y-112148267D01*
X123362165Y-112290845D01*
X123362161Y-112390753D01*
X123362159Y-112522887D01*
X123362195Y-112640624D01*
X123362304Y-112744818D01*
X123362525Y-112836326D01*
X123362894Y-112916005D01*
X123363448Y-112984710D01*
X123364223Y-113043299D01*
X123365256Y-113092628D01*
X123366583Y-113133553D01*
X123368243Y-113166931D01*
X123370271Y-113193617D01*
X123372705Y-113214469D01*
X123375581Y-113230343D01*
X123378935Y-113242094D01*
X123382805Y-113250581D01*
X123387228Y-113256658D01*
X123392240Y-113261182D01*
X123397878Y-113265010D01*
X123404178Y-113268998D01*
X123415782Y-113274340D01*
X123446496Y-113281161D01*
X123490009Y-113285174D01*
X123517406Y-113286075D01*
X123563579Y-113284204D01*
X123597431Y-113277065D01*
X123620829Y-113264361D01*
X123622096Y-113263315D01*
X123627148Y-113259053D01*
X123631659Y-113254463D01*
X123635662Y-113248682D01*
X123639185Y-113240849D01*
X123642259Y-113230101D01*
X123644916Y-113215576D01*
X123647185Y-113196413D01*
X123649097Y-113171748D01*
X123650683Y-113140721D01*
X123651973Y-113102469D01*
X123652997Y-113056130D01*
X123653787Y-113000842D01*
X123654372Y-112935744D01*
X123654783Y-112859972D01*
X123655052Y-112772665D01*
X123655207Y-112672961D01*
X123655280Y-112559997D01*
X123655302Y-112432913D01*
X123655302Y-112290845D01*
X123655309Y-112174257D01*
X123655313Y-112043879D01*
X123655278Y-111927795D01*
X123655163Y-111825150D01*
X123654931Y-111735085D01*
X123654542Y-111656744D01*
X123653957Y-111589270D01*
X123653138Y-111531807D01*
X123652046Y-111483496D01*
X123650642Y-111443482D01*
X123648886Y-111410908D01*
X123646742Y-111384916D01*
X123644168Y-111364649D01*
X123641127Y-111349252D01*
X123637580Y-111337866D01*
X123633488Y-111329635D01*
X123628811Y-111323702D01*
X123623512Y-111319210D01*
X123617551Y-111315302D01*
X123610890Y-111311121D01*
X123602381Y-111306923D01*
X123574983Y-111300105D01*
X123539085Y-111296286D01*
X123499498Y-111295467D01*
X123461034Y-111297651D01*
X123428503Y-111302839D01*
X123406718Y-111311034D01*
X123401211Y-111314500D01*
X123395105Y-111318399D01*
X123389669Y-111322718D01*
X123384866Y-111328314D01*
X123380656Y-111336045D01*
X123377000Y-111346768D01*
X123373859Y-111361338D01*
X123371193Y-111380614D01*
X123368966Y-111405451D01*
X123367136Y-111436708D01*
X123365665Y-111475240D01*
X123364515Y-111521906D01*
X123363646Y-111577561D01*
X123363019Y-111643063D01*
X123362596Y-111719269D01*
X123362336Y-111807035D01*
X123362203Y-111907219D01*
X123362156Y-112020678D01*
X123362156Y-112148267D01*
X122770023Y-112148267D01*
X122770033Y-112143630D01*
X122770361Y-112001693D01*
X122770693Y-111874163D01*
X122771041Y-111760228D01*
X122771416Y-111659077D01*
X122771829Y-111569895D01*
X122772293Y-111491872D01*
X122772819Y-111424195D01*
X122773418Y-111366050D01*
X122774103Y-111316626D01*
X122774885Y-111275110D01*
X122775775Y-111240690D01*
X122776786Y-111212553D01*
X122777929Y-111189887D01*
X122779216Y-111171878D01*
X122780657Y-111157716D01*
X122782266Y-111146587D01*
X122784053Y-111137678D01*
X122786031Y-111130178D01*
X122792603Y-111109099D01*
X122826256Y-111028248D01*
X122870012Y-110959437D01*
X122924268Y-110902305D01*
X122989423Y-110856492D01*
X123065875Y-110821640D01*
X123154019Y-110797387D01*
X123180217Y-110793799D01*
X123220028Y-110790805D01*
X123270631Y-110788511D01*
X123329807Y-110786897D01*
X123395337Y-110785944D01*
X123465003Y-110785632D01*
X123536583Y-110785943D01*
X123607860Y-110786856D01*
X123676614Y-110788353D01*
X123740626Y-110790415D01*
X123797676Y-110793021D01*
X123845545Y-110796153D01*
X123882015Y-110799792D01*
X123904866Y-110803918D01*
X123949440Y-110818575D01*
X124026527Y-110854940D01*
X124092616Y-110901885D01*
X124147019Y-110958874D01*
X124189050Y-111025370D01*
X124192299Y-111031779D01*
X124199719Y-111046028D01*
X124206419Y-111058905D01*
X124212435Y-111071229D01*
X124217805Y-111083821D01*
X124222563Y-111097499D01*
X124226749Y-111113085D01*
X124230396Y-111131397D01*
X124233544Y-111153257D01*
X124236227Y-111179483D01*
X124238483Y-111210895D01*
X124240348Y-111248315D01*
X124241859Y-111292560D01*
X124243052Y-111344452D01*
X124243965Y-111404810D01*
X124244633Y-111474455D01*
X124245093Y-111554205D01*
X124245382Y-111644881D01*
X124245536Y-111747303D01*
X124245592Y-111862290D01*
X124245587Y-111990663D01*
X124245576Y-112043879D01*
X124245558Y-112133242D01*
G37*
G04 #@! TD*
M02*
