M48
INCH,TZ
T1C0.0079
T2C0.0118
T3C0.0177
T4C0.0236
T5C0.0394
%
G90
G05
T1
X39882Y-47087
X40236Y-46339
X40984Y-44882
X41152Y-43031
X41392Y-40998
X41417Y-49173
X41457Y-44803
X41496Y-43583
X41929Y-47520
X41969Y-40906
X42480Y-46299
X42874Y-45630
X42953Y-42402
X43150Y-39803
X43780Y-41969
X44016Y-42992
X44134Y-48071
X44291Y-42476
X44291Y-43976
X44429Y-45748
X44488Y-46575
X44606Y-42283
X45000Y-42244
X45039Y-45236
X45114Y-47382
X45197Y-45894
X45350Y-47697
X45433Y-46535
X45472Y-44409
X45551Y-46142
X45591Y-45787
X45661Y-46961
X45791Y-46685
X45827Y-44331
X46181Y-41890
X46228Y-44220
X46535Y-43701
X46835Y-43803
X46850Y-44262
X46929Y-45787
X46969Y-44961
X47008Y-45955
X47047Y-42087
X47244Y-49291
X47598Y-44094
X47677Y-43504
X47717Y-45630
X47795Y-44094
X47835Y-42244
X47835Y-49291
X47933Y-42882
X48137Y-43303
X48307Y-49094
X48382Y-48150
X48819Y-43346
X48976Y-48268
X48976Y-49646
X49124Y-48120
X49281Y-48055
X49331Y-49055
X49429Y-48110
X49592Y-48124
X49685Y-49646
X49768Y-43256
X49803Y-47992
X49961Y-47953
X49988Y-42957
X50118Y-47913
X50197Y-42874
X50276Y-47913
X50472Y-48858
X50551Y-42756
X50748Y-44094
X50866Y-46654
X50945Y-48701
X51024Y-42638
X51142Y-42244
X51378Y-48976
X51496Y-44134
X51496Y-45000
X51575Y-44685
X51654Y-45906
X51693Y-46260
X51762Y-49134
X51817Y-43986
X52008Y-49222
X52126Y-44488
X52228Y-46728
X52244Y-45591
X52283Y-45315
X52323Y-45866
X52402Y-44370
X52441Y-49724
X52638Y-44331
X52717Y-44094
X52992Y-49764
X53150Y-41772
X53209Y-47862
X53780Y-45630
X53884Y-49278
X54331Y-49843
X55433Y-49055
X56049Y-49100
X56083Y-48376
X56142Y-45630
X56467Y-48622
X56496Y-48976
X57480Y-49882
X58898Y-47205
X60512Y-45276
X62205Y-46496
T2
X39646Y-41260
X40339Y-41354
X40827Y-46496
X41378Y-43819
X41480Y-39996
X41535Y-44213
X41929Y-47165
X41969Y-42874
X41969Y-45394
X42598Y-48740
X42904Y-48081
X43110Y-49646
X43858Y-47402
X43976Y-49646
X44449Y-48740
X46169Y-46512
X46535Y-46457
X46602Y-48004
X48425Y-44882
X48425Y-45669
X48425Y-46457
X49213Y-44882
X49213Y-45669
X49213Y-46457
X50000Y-44882
X50000Y-45669
X50000Y-46457
X51602Y-47161
X51890Y-40835
X51996Y-47433
X53031Y-40866
X54055Y-41021
X55094Y-41000
X56969Y-40828
T5
X44559Y-40339
X44559Y-41339
X45559Y-40339
X45559Y-41339
X46559Y-40339
X46559Y-41339
X47559Y-40339
X47559Y-41339
X48559Y-40339
X48559Y-41339
X49559Y-40339
X49559Y-41339
X50559Y-40339
X50559Y-41339
X51559Y-40339
X51559Y-41339
X52386Y-42677
X52559Y-40339
X52559Y-41339
X53386Y-42677
X53559Y-40339
X53559Y-41339
X54386Y-42677
X54559Y-40339
X54559Y-41339
X55386Y-42677
X55559Y-40339
X55559Y-41339
X56559Y-40339
X56559Y-41339
X57559Y-40339
X57559Y-41339
T3
G00X42128Y-49795
M15
G01X42128Y-49480
M16
G05
G00X44943Y-49480
M15
G01X44943Y-49795
M16
G05
T4
G00X40197Y-42425
M15
G01X39961Y-42425
M16
G05
G00X40197Y-45827
M15
G01X39961Y-45827
M16
G05
G00X41941Y-42425
M15
G01X41508Y-42425
M16
G05
G00X41941Y-45827
M15
G01X41508Y-45827
M16
G05
T0
M30
