G04 #@! TF.GenerationSoftware,KiCad,Pcbnew,7.0.7*
G04 #@! TF.CreationDate,2023-09-27T05:56:11+07:00*
G04 #@! TF.ProjectId,Radianite-Micro-F1C200s,52616469-616e-4697-9465-2d4d6963726f,rev?*
G04 #@! TF.SameCoordinates,Original*
G04 #@! TF.FileFunction,Legend,Top*
G04 #@! TF.FilePolarity,Positive*
%FSLAX46Y46*%
G04 Gerber Fmt 4.6, Leading zero omitted, Abs format (unit mm)*
G04 Created by KiCad (PCBNEW 7.0.7) date 2023-09-27 05:56:11*
%MOMM*%
%LPD*%
G01*
G04 APERTURE LIST*
%ADD10C,0.150000*%
%ADD11C,0.250000*%
%ADD12C,0.125000*%
%ADD13C,0.200000*%
%ADD14C,0.120000*%
%ADD15C,0.100000*%
G04 APERTURE END LIST*
D10*
X142800000Y-108300000D02*
X142400000Y-108700000D01*
X147700000Y-126700000D02*
X148100000Y-127100000D01*
X147300000Y-127100000D02*
X147700000Y-126700000D01*
X142400000Y-107900000D02*
X142800000Y-108300000D01*
D11*
X107764619Y-113397431D02*
X108574142Y-113397431D01*
X108574142Y-113397431D02*
X108669380Y-113349812D01*
X108669380Y-113349812D02*
X108717000Y-113302193D01*
X108717000Y-113302193D02*
X108764619Y-113206955D01*
X108764619Y-113206955D02*
X108764619Y-113016479D01*
X108764619Y-113016479D02*
X108717000Y-112921241D01*
X108717000Y-112921241D02*
X108669380Y-112873622D01*
X108669380Y-112873622D02*
X108574142Y-112826003D01*
X108574142Y-112826003D02*
X107764619Y-112826003D01*
X108717000Y-112397431D02*
X108764619Y-112254574D01*
X108764619Y-112254574D02*
X108764619Y-112016479D01*
X108764619Y-112016479D02*
X108717000Y-111921241D01*
X108717000Y-111921241D02*
X108669380Y-111873622D01*
X108669380Y-111873622D02*
X108574142Y-111826003D01*
X108574142Y-111826003D02*
X108478904Y-111826003D01*
X108478904Y-111826003D02*
X108383666Y-111873622D01*
X108383666Y-111873622D02*
X108336047Y-111921241D01*
X108336047Y-111921241D02*
X108288428Y-112016479D01*
X108288428Y-112016479D02*
X108240809Y-112206955D01*
X108240809Y-112206955D02*
X108193190Y-112302193D01*
X108193190Y-112302193D02*
X108145571Y-112349812D01*
X108145571Y-112349812D02*
X108050333Y-112397431D01*
X108050333Y-112397431D02*
X107955095Y-112397431D01*
X107955095Y-112397431D02*
X107859857Y-112349812D01*
X107859857Y-112349812D02*
X107812238Y-112302193D01*
X107812238Y-112302193D02*
X107764619Y-112206955D01*
X107764619Y-112206955D02*
X107764619Y-111968860D01*
X107764619Y-111968860D02*
X107812238Y-111826003D01*
X108240809Y-111064098D02*
X108288428Y-110921241D01*
X108288428Y-110921241D02*
X108336047Y-110873622D01*
X108336047Y-110873622D02*
X108431285Y-110826003D01*
X108431285Y-110826003D02*
X108574142Y-110826003D01*
X108574142Y-110826003D02*
X108669380Y-110873622D01*
X108669380Y-110873622D02*
X108717000Y-110921241D01*
X108717000Y-110921241D02*
X108764619Y-111016479D01*
X108764619Y-111016479D02*
X108764619Y-111397431D01*
X108764619Y-111397431D02*
X107764619Y-111397431D01*
X107764619Y-111397431D02*
X107764619Y-111064098D01*
X107764619Y-111064098D02*
X107812238Y-110968860D01*
X107812238Y-110968860D02*
X107859857Y-110921241D01*
X107859857Y-110921241D02*
X107955095Y-110873622D01*
X107955095Y-110873622D02*
X108050333Y-110873622D01*
X108050333Y-110873622D02*
X108145571Y-110921241D01*
X108145571Y-110921241D02*
X108193190Y-110968860D01*
X108193190Y-110968860D02*
X108240809Y-111064098D01*
X108240809Y-111064098D02*
X108240809Y-111397431D01*
X107764619Y-109445050D02*
X107764619Y-109254574D01*
X107764619Y-109254574D02*
X107812238Y-109159336D01*
X107812238Y-109159336D02*
X107907476Y-109064098D01*
X107907476Y-109064098D02*
X108097952Y-109016479D01*
X108097952Y-109016479D02*
X108431285Y-109016479D01*
X108431285Y-109016479D02*
X108621761Y-109064098D01*
X108621761Y-109064098D02*
X108717000Y-109159336D01*
X108717000Y-109159336D02*
X108764619Y-109254574D01*
X108764619Y-109254574D02*
X108764619Y-109445050D01*
X108764619Y-109445050D02*
X108717000Y-109540288D01*
X108717000Y-109540288D02*
X108621761Y-109635526D01*
X108621761Y-109635526D02*
X108431285Y-109683145D01*
X108431285Y-109683145D02*
X108097952Y-109683145D01*
X108097952Y-109683145D02*
X107907476Y-109635526D01*
X107907476Y-109635526D02*
X107812238Y-109540288D01*
X107812238Y-109540288D02*
X107764619Y-109445050D01*
X107764619Y-108730764D02*
X107764619Y-108159336D01*
X108764619Y-108445050D02*
X107764619Y-108445050D01*
X107812238Y-107302193D02*
X107764619Y-107397431D01*
X107764619Y-107397431D02*
X107764619Y-107540288D01*
X107764619Y-107540288D02*
X107812238Y-107683145D01*
X107812238Y-107683145D02*
X107907476Y-107778383D01*
X107907476Y-107778383D02*
X108002714Y-107826002D01*
X108002714Y-107826002D02*
X108193190Y-107873621D01*
X108193190Y-107873621D02*
X108336047Y-107873621D01*
X108336047Y-107873621D02*
X108526523Y-107826002D01*
X108526523Y-107826002D02*
X108621761Y-107778383D01*
X108621761Y-107778383D02*
X108717000Y-107683145D01*
X108717000Y-107683145D02*
X108764619Y-107540288D01*
X108764619Y-107540288D02*
X108764619Y-107445050D01*
X108764619Y-107445050D02*
X108717000Y-107302193D01*
X108717000Y-107302193D02*
X108669380Y-107254574D01*
X108669380Y-107254574D02*
X108336047Y-107254574D01*
X108336047Y-107254574D02*
X108336047Y-107445050D01*
D10*
X140541541Y-110304485D02*
X140341541Y-110304485D01*
X140341541Y-110618771D02*
X140341541Y-110018771D01*
X140341541Y-110018771D02*
X140627255Y-110018771D01*
X140855827Y-110618771D02*
X140855827Y-110018771D01*
X140855827Y-110018771D02*
X141055827Y-110447342D01*
X141055827Y-110447342D02*
X141255827Y-110018771D01*
X141255827Y-110018771D02*
X141255827Y-110618771D01*
X141541541Y-110618771D02*
X141541541Y-110018771D01*
X141827255Y-110618771D02*
X141827255Y-110018771D01*
X141827255Y-110018771D02*
X142170112Y-110618771D01*
X142170112Y-110618771D02*
X142170112Y-110018771D01*
X142798683Y-110618771D02*
X142598683Y-110333057D01*
X142455826Y-110618771D02*
X142455826Y-110018771D01*
X142455826Y-110018771D02*
X142684397Y-110018771D01*
X142684397Y-110018771D02*
X142741540Y-110047342D01*
X142741540Y-110047342D02*
X142770111Y-110075914D01*
X142770111Y-110075914D02*
X142798683Y-110133057D01*
X142798683Y-110133057D02*
X142798683Y-110218771D01*
X142798683Y-110218771D02*
X142770111Y-110275914D01*
X142770111Y-110275914D02*
X142741540Y-110304485D01*
X142741540Y-110304485D02*
X142684397Y-110333057D01*
X142684397Y-110333057D02*
X142455826Y-110333057D01*
D12*
X107077474Y-101189452D02*
X107315569Y-101189452D01*
X107029855Y-101332309D02*
X107196521Y-100832309D01*
X107196521Y-100832309D02*
X107363188Y-101332309D01*
X107815568Y-101284690D02*
X107791759Y-101308500D01*
X107791759Y-101308500D02*
X107720330Y-101332309D01*
X107720330Y-101332309D02*
X107672711Y-101332309D01*
X107672711Y-101332309D02*
X107601283Y-101308500D01*
X107601283Y-101308500D02*
X107553664Y-101260880D01*
X107553664Y-101260880D02*
X107529854Y-101213261D01*
X107529854Y-101213261D02*
X107506045Y-101118023D01*
X107506045Y-101118023D02*
X107506045Y-101046595D01*
X107506045Y-101046595D02*
X107529854Y-100951357D01*
X107529854Y-100951357D02*
X107553664Y-100903738D01*
X107553664Y-100903738D02*
X107601283Y-100856119D01*
X107601283Y-100856119D02*
X107672711Y-100832309D01*
X107672711Y-100832309D02*
X107720330Y-100832309D01*
X107720330Y-100832309D02*
X107791759Y-100856119D01*
X107791759Y-100856119D02*
X107815568Y-100879928D01*
X107958426Y-100832309D02*
X108244140Y-100832309D01*
X108101283Y-101332309D02*
X108101283Y-100832309D01*
D10*
X151858207Y-123819819D02*
X151524874Y-123343628D01*
X151286779Y-123819819D02*
X151286779Y-122819819D01*
X151286779Y-122819819D02*
X151667731Y-122819819D01*
X151667731Y-122819819D02*
X151762969Y-122867438D01*
X151762969Y-122867438D02*
X151810588Y-122915057D01*
X151810588Y-122915057D02*
X151858207Y-123010295D01*
X151858207Y-123010295D02*
X151858207Y-123153152D01*
X151858207Y-123153152D02*
X151810588Y-123248390D01*
X151810588Y-123248390D02*
X151762969Y-123296009D01*
X151762969Y-123296009D02*
X151667731Y-123343628D01*
X151667731Y-123343628D02*
X151286779Y-123343628D01*
X152286779Y-123296009D02*
X152620112Y-123296009D01*
X152762969Y-123819819D02*
X152286779Y-123819819D01*
X152286779Y-123819819D02*
X152286779Y-122819819D01*
X152286779Y-122819819D02*
X152762969Y-122819819D01*
X153143922Y-123772200D02*
X153286779Y-123819819D01*
X153286779Y-123819819D02*
X153524874Y-123819819D01*
X153524874Y-123819819D02*
X153620112Y-123772200D01*
X153620112Y-123772200D02*
X153667731Y-123724580D01*
X153667731Y-123724580D02*
X153715350Y-123629342D01*
X153715350Y-123629342D02*
X153715350Y-123534104D01*
X153715350Y-123534104D02*
X153667731Y-123438866D01*
X153667731Y-123438866D02*
X153620112Y-123391247D01*
X153620112Y-123391247D02*
X153524874Y-123343628D01*
X153524874Y-123343628D02*
X153334398Y-123296009D01*
X153334398Y-123296009D02*
X153239160Y-123248390D01*
X153239160Y-123248390D02*
X153191541Y-123200771D01*
X153191541Y-123200771D02*
X153143922Y-123105533D01*
X153143922Y-123105533D02*
X153143922Y-123010295D01*
X153143922Y-123010295D02*
X153191541Y-122915057D01*
X153191541Y-122915057D02*
X153239160Y-122867438D01*
X153239160Y-122867438D02*
X153334398Y-122819819D01*
X153334398Y-122819819D02*
X153572493Y-122819819D01*
X153572493Y-122819819D02*
X153715350Y-122867438D01*
X154143922Y-123296009D02*
X154477255Y-123296009D01*
X154620112Y-123819819D02*
X154143922Y-123819819D01*
X154143922Y-123819819D02*
X154143922Y-122819819D01*
X154143922Y-122819819D02*
X154620112Y-122819819D01*
X154905827Y-122819819D02*
X155477255Y-122819819D01*
X155191541Y-123819819D02*
X155191541Y-122819819D01*
X134241541Y-110618771D02*
X134241541Y-110018771D01*
X134241541Y-110018771D02*
X134441541Y-110447342D01*
X134441541Y-110447342D02*
X134641541Y-110018771D01*
X134641541Y-110018771D02*
X134641541Y-110618771D01*
X134927255Y-110618771D02*
X134927255Y-110018771D01*
X135555826Y-110561628D02*
X135527254Y-110590200D01*
X135527254Y-110590200D02*
X135441540Y-110618771D01*
X135441540Y-110618771D02*
X135384397Y-110618771D01*
X135384397Y-110618771D02*
X135298683Y-110590200D01*
X135298683Y-110590200D02*
X135241540Y-110533057D01*
X135241540Y-110533057D02*
X135212969Y-110475914D01*
X135212969Y-110475914D02*
X135184397Y-110361628D01*
X135184397Y-110361628D02*
X135184397Y-110275914D01*
X135184397Y-110275914D02*
X135212969Y-110161628D01*
X135212969Y-110161628D02*
X135241540Y-110104485D01*
X135241540Y-110104485D02*
X135298683Y-110047342D01*
X135298683Y-110047342D02*
X135384397Y-110018771D01*
X135384397Y-110018771D02*
X135441540Y-110018771D01*
X135441540Y-110018771D02*
X135527254Y-110047342D01*
X135527254Y-110047342D02*
X135555826Y-110075914D01*
X135812969Y-110618771D02*
X135812969Y-110018771D01*
X136098683Y-110618771D02*
X136098683Y-110018771D01*
X136098683Y-110018771D02*
X136441540Y-110618771D01*
X136441540Y-110618771D02*
X136441540Y-110018771D01*
X135232017Y-113873200D02*
X135165350Y-113839866D01*
X135165350Y-113839866D02*
X135032017Y-113839866D01*
X135032017Y-113839866D02*
X134965350Y-113873200D01*
X134965350Y-113873200D02*
X134898684Y-113939866D01*
X134898684Y-113939866D02*
X134865350Y-114006533D01*
X134865350Y-114006533D02*
X134865350Y-114139866D01*
X134865350Y-114139866D02*
X134898684Y-114206533D01*
X134898684Y-114206533D02*
X134965350Y-114273200D01*
X134965350Y-114273200D02*
X135032017Y-114306533D01*
X135032017Y-114306533D02*
X135165350Y-114306533D01*
X135165350Y-114306533D02*
X135232017Y-114273200D01*
X135098684Y-113606533D02*
X134932017Y-113639866D01*
X134932017Y-113639866D02*
X134765350Y-113739866D01*
X134765350Y-113739866D02*
X134665350Y-113906533D01*
X134665350Y-113906533D02*
X134632017Y-114073200D01*
X134632017Y-114073200D02*
X134665350Y-114239866D01*
X134665350Y-114239866D02*
X134765350Y-114406533D01*
X134765350Y-114406533D02*
X134932017Y-114506533D01*
X134932017Y-114506533D02*
X135098684Y-114539866D01*
X135098684Y-114539866D02*
X135265350Y-114506533D01*
X135265350Y-114506533D02*
X135432017Y-114406533D01*
X135432017Y-114406533D02*
X135532017Y-114239866D01*
X135532017Y-114239866D02*
X135565350Y-114073200D01*
X135565350Y-114073200D02*
X135532017Y-113906533D01*
X135532017Y-113906533D02*
X135432017Y-113739866D01*
X135432017Y-113739866D02*
X135265350Y-113639866D01*
X135265350Y-113639866D02*
X135098684Y-113606533D01*
X136365350Y-113773200D02*
X136398683Y-113739866D01*
X136398683Y-113739866D02*
X136465350Y-113706533D01*
X136465350Y-113706533D02*
X136632017Y-113706533D01*
X136632017Y-113706533D02*
X136698683Y-113739866D01*
X136698683Y-113739866D02*
X136732017Y-113773200D01*
X136732017Y-113773200D02*
X136765350Y-113839866D01*
X136765350Y-113839866D02*
X136765350Y-113906533D01*
X136765350Y-113906533D02*
X136732017Y-114006533D01*
X136732017Y-114006533D02*
X136332017Y-114406533D01*
X136332017Y-114406533D02*
X136765350Y-114406533D01*
X137198684Y-113706533D02*
X137265350Y-113706533D01*
X137265350Y-113706533D02*
X137332017Y-113739866D01*
X137332017Y-113739866D02*
X137365350Y-113773200D01*
X137365350Y-113773200D02*
X137398684Y-113839866D01*
X137398684Y-113839866D02*
X137432017Y-113973200D01*
X137432017Y-113973200D02*
X137432017Y-114139866D01*
X137432017Y-114139866D02*
X137398684Y-114273200D01*
X137398684Y-114273200D02*
X137365350Y-114339866D01*
X137365350Y-114339866D02*
X137332017Y-114373200D01*
X137332017Y-114373200D02*
X137265350Y-114406533D01*
X137265350Y-114406533D02*
X137198684Y-114406533D01*
X137198684Y-114406533D02*
X137132017Y-114373200D01*
X137132017Y-114373200D02*
X137098684Y-114339866D01*
X137098684Y-114339866D02*
X137065350Y-114273200D01*
X137065350Y-114273200D02*
X137032017Y-114139866D01*
X137032017Y-114139866D02*
X137032017Y-113973200D01*
X137032017Y-113973200D02*
X137065350Y-113839866D01*
X137065350Y-113839866D02*
X137098684Y-113773200D01*
X137098684Y-113773200D02*
X137132017Y-113739866D01*
X137132017Y-113739866D02*
X137198684Y-113706533D01*
X137698684Y-113773200D02*
X137732017Y-113739866D01*
X137732017Y-113739866D02*
X137798684Y-113706533D01*
X137798684Y-113706533D02*
X137965351Y-113706533D01*
X137965351Y-113706533D02*
X138032017Y-113739866D01*
X138032017Y-113739866D02*
X138065351Y-113773200D01*
X138065351Y-113773200D02*
X138098684Y-113839866D01*
X138098684Y-113839866D02*
X138098684Y-113906533D01*
X138098684Y-113906533D02*
X138065351Y-114006533D01*
X138065351Y-114006533D02*
X137665351Y-114406533D01*
X137665351Y-114406533D02*
X138098684Y-114406533D01*
X138332018Y-113706533D02*
X138765351Y-113706533D01*
X138765351Y-113706533D02*
X138532018Y-113973200D01*
X138532018Y-113973200D02*
X138632018Y-113973200D01*
X138632018Y-113973200D02*
X138698684Y-114006533D01*
X138698684Y-114006533D02*
X138732018Y-114039866D01*
X138732018Y-114039866D02*
X138765351Y-114106533D01*
X138765351Y-114106533D02*
X138765351Y-114273200D01*
X138765351Y-114273200D02*
X138732018Y-114339866D01*
X138732018Y-114339866D02*
X138698684Y-114373200D01*
X138698684Y-114373200D02*
X138632018Y-114406533D01*
X138632018Y-114406533D02*
X138432018Y-114406533D01*
X138432018Y-114406533D02*
X138365351Y-114373200D01*
X138365351Y-114373200D02*
X138332018Y-114339866D01*
X139998684Y-114339866D02*
X139965351Y-114373200D01*
X139965351Y-114373200D02*
X139865351Y-114406533D01*
X139865351Y-114406533D02*
X139798684Y-114406533D01*
X139798684Y-114406533D02*
X139698684Y-114373200D01*
X139698684Y-114373200D02*
X139632018Y-114306533D01*
X139632018Y-114306533D02*
X139598684Y-114239866D01*
X139598684Y-114239866D02*
X139565351Y-114106533D01*
X139565351Y-114106533D02*
X139565351Y-114006533D01*
X139565351Y-114006533D02*
X139598684Y-113873200D01*
X139598684Y-113873200D02*
X139632018Y-113806533D01*
X139632018Y-113806533D02*
X139698684Y-113739866D01*
X139698684Y-113739866D02*
X139798684Y-113706533D01*
X139798684Y-113706533D02*
X139865351Y-113706533D01*
X139865351Y-113706533D02*
X139965351Y-113739866D01*
X139965351Y-113739866D02*
X139998684Y-113773200D01*
X140298684Y-114406533D02*
X140298684Y-113706533D01*
X140598684Y-114406533D02*
X140598684Y-114039866D01*
X140598684Y-114039866D02*
X140565351Y-113973200D01*
X140565351Y-113973200D02*
X140498684Y-113939866D01*
X140498684Y-113939866D02*
X140398684Y-113939866D01*
X140398684Y-113939866D02*
X140332018Y-113973200D01*
X140332018Y-113973200D02*
X140298684Y-114006533D01*
X141032017Y-114406533D02*
X140965351Y-114373200D01*
X140965351Y-114373200D02*
X140932017Y-114339866D01*
X140932017Y-114339866D02*
X140898684Y-114273200D01*
X140898684Y-114273200D02*
X140898684Y-114073200D01*
X140898684Y-114073200D02*
X140932017Y-114006533D01*
X140932017Y-114006533D02*
X140965351Y-113973200D01*
X140965351Y-113973200D02*
X141032017Y-113939866D01*
X141032017Y-113939866D02*
X141132017Y-113939866D01*
X141132017Y-113939866D02*
X141198684Y-113973200D01*
X141198684Y-113973200D02*
X141232017Y-114006533D01*
X141232017Y-114006533D02*
X141265351Y-114073200D01*
X141265351Y-114073200D02*
X141265351Y-114273200D01*
X141265351Y-114273200D02*
X141232017Y-114339866D01*
X141232017Y-114339866D02*
X141198684Y-114373200D01*
X141198684Y-114373200D02*
X141132017Y-114406533D01*
X141132017Y-114406533D02*
X141032017Y-114406533D01*
X141865350Y-114373200D02*
X141798684Y-114406533D01*
X141798684Y-114406533D02*
X141665350Y-114406533D01*
X141665350Y-114406533D02*
X141598684Y-114373200D01*
X141598684Y-114373200D02*
X141565350Y-114339866D01*
X141565350Y-114339866D02*
X141532017Y-114273200D01*
X141532017Y-114273200D02*
X141532017Y-114073200D01*
X141532017Y-114073200D02*
X141565350Y-114006533D01*
X141565350Y-114006533D02*
X141598684Y-113973200D01*
X141598684Y-113973200D02*
X141665350Y-113939866D01*
X141665350Y-113939866D02*
X141798684Y-113939866D01*
X141798684Y-113939866D02*
X141865350Y-113973200D01*
X142265350Y-114406533D02*
X142198684Y-114373200D01*
X142198684Y-114373200D02*
X142165350Y-114339866D01*
X142165350Y-114339866D02*
X142132017Y-114273200D01*
X142132017Y-114273200D02*
X142132017Y-114073200D01*
X142132017Y-114073200D02*
X142165350Y-114006533D01*
X142165350Y-114006533D02*
X142198684Y-113973200D01*
X142198684Y-113973200D02*
X142265350Y-113939866D01*
X142265350Y-113939866D02*
X142365350Y-113939866D01*
X142365350Y-113939866D02*
X142432017Y-113973200D01*
X142432017Y-113973200D02*
X142465350Y-114006533D01*
X142465350Y-114006533D02*
X142498684Y-114073200D01*
X142498684Y-114073200D02*
X142498684Y-114273200D01*
X142498684Y-114273200D02*
X142465350Y-114339866D01*
X142465350Y-114339866D02*
X142432017Y-114373200D01*
X142432017Y-114373200D02*
X142365350Y-114406533D01*
X142365350Y-114406533D02*
X142265350Y-114406533D01*
X142798683Y-114406533D02*
X142798683Y-113706533D01*
X142798683Y-113973200D02*
X142865350Y-113939866D01*
X142865350Y-113939866D02*
X142998683Y-113939866D01*
X142998683Y-113939866D02*
X143065350Y-113973200D01*
X143065350Y-113973200D02*
X143098683Y-114006533D01*
X143098683Y-114006533D02*
X143132017Y-114073200D01*
X143132017Y-114073200D02*
X143132017Y-114273200D01*
X143132017Y-114273200D02*
X143098683Y-114339866D01*
X143098683Y-114339866D02*
X143065350Y-114373200D01*
X143065350Y-114373200D02*
X142998683Y-114406533D01*
X142998683Y-114406533D02*
X142865350Y-114406533D01*
X142865350Y-114406533D02*
X142798683Y-114373200D01*
X143732016Y-114406533D02*
X143732016Y-114039866D01*
X143732016Y-114039866D02*
X143698683Y-113973200D01*
X143698683Y-113973200D02*
X143632016Y-113939866D01*
X143632016Y-113939866D02*
X143498683Y-113939866D01*
X143498683Y-113939866D02*
X143432016Y-113973200D01*
X143732016Y-114373200D02*
X143665350Y-114406533D01*
X143665350Y-114406533D02*
X143498683Y-114406533D01*
X143498683Y-114406533D02*
X143432016Y-114373200D01*
X143432016Y-114373200D02*
X143398683Y-114306533D01*
X143398683Y-114306533D02*
X143398683Y-114239866D01*
X143398683Y-114239866D02*
X143432016Y-114173200D01*
X143432016Y-114173200D02*
X143498683Y-114139866D01*
X143498683Y-114139866D02*
X143665350Y-114139866D01*
X143665350Y-114139866D02*
X143732016Y-114106533D01*
X144065349Y-114406533D02*
X144065349Y-113939866D01*
X144065349Y-114073200D02*
X144098683Y-114006533D01*
X144098683Y-114006533D02*
X144132016Y-113973200D01*
X144132016Y-113973200D02*
X144198683Y-113939866D01*
X144198683Y-113939866D02*
X144265349Y-113939866D01*
X145365349Y-114406533D02*
X145032015Y-114406533D01*
X145032015Y-114406533D02*
X145032015Y-113706533D01*
X145498682Y-113939866D02*
X145765349Y-113939866D01*
X145598682Y-113706533D02*
X145598682Y-114306533D01*
X145598682Y-114306533D02*
X145632016Y-114373200D01*
X145632016Y-114373200D02*
X145698682Y-114406533D01*
X145698682Y-114406533D02*
X145765349Y-114406533D01*
X146298682Y-114406533D02*
X146298682Y-113706533D01*
X146298682Y-114373200D02*
X146232016Y-114406533D01*
X146232016Y-114406533D02*
X146098682Y-114406533D01*
X146098682Y-114406533D02*
X146032016Y-114373200D01*
X146032016Y-114373200D02*
X145998682Y-114339866D01*
X145998682Y-114339866D02*
X145965349Y-114273200D01*
X145965349Y-114273200D02*
X145965349Y-114073200D01*
X145965349Y-114073200D02*
X145998682Y-114006533D01*
X145998682Y-114006533D02*
X146032016Y-113973200D01*
X146032016Y-113973200D02*
X146098682Y-113939866D01*
X146098682Y-113939866D02*
X146232016Y-113939866D01*
X146232016Y-113939866D02*
X146298682Y-113973200D01*
X146632015Y-114339866D02*
X146665349Y-114373200D01*
X146665349Y-114373200D02*
X146632015Y-114406533D01*
X146632015Y-114406533D02*
X146598682Y-114373200D01*
X146598682Y-114373200D02*
X146632015Y-114339866D01*
X146632015Y-114339866D02*
X146632015Y-114406533D01*
D13*
X150822054Y-107081504D02*
X151298244Y-107081504D01*
X150726816Y-107367219D02*
X151060149Y-106367219D01*
X151060149Y-106367219D02*
X151393482Y-107367219D01*
X152441101Y-106319600D02*
X151583959Y-107605314D01*
X152631578Y-106367219D02*
X152964911Y-107367219D01*
X152964911Y-107367219D02*
X153298244Y-106367219D01*
X154583959Y-106367219D02*
X154774435Y-106367219D01*
X154774435Y-106367219D02*
X154869673Y-106414838D01*
X154869673Y-106414838D02*
X154964911Y-106510076D01*
X154964911Y-106510076D02*
X155012530Y-106700552D01*
X155012530Y-106700552D02*
X155012530Y-107033885D01*
X155012530Y-107033885D02*
X154964911Y-107224361D01*
X154964911Y-107224361D02*
X154869673Y-107319600D01*
X154869673Y-107319600D02*
X154774435Y-107367219D01*
X154774435Y-107367219D02*
X154583959Y-107367219D01*
X154583959Y-107367219D02*
X154488721Y-107319600D01*
X154488721Y-107319600D02*
X154393483Y-107224361D01*
X154393483Y-107224361D02*
X154345864Y-107033885D01*
X154345864Y-107033885D02*
X154345864Y-106700552D01*
X154345864Y-106700552D02*
X154393483Y-106510076D01*
X154393483Y-106510076D02*
X154488721Y-106414838D01*
X154488721Y-106414838D02*
X154583959Y-106367219D01*
X155869673Y-106700552D02*
X155869673Y-107367219D01*
X155441102Y-106700552D02*
X155441102Y-107224361D01*
X155441102Y-107224361D02*
X155488721Y-107319600D01*
X155488721Y-107319600D02*
X155583959Y-107367219D01*
X155583959Y-107367219D02*
X155726816Y-107367219D01*
X155726816Y-107367219D02*
X155822054Y-107319600D01*
X155822054Y-107319600D02*
X155869673Y-107271980D01*
X156203007Y-106700552D02*
X156583959Y-106700552D01*
X156345864Y-106367219D02*
X156345864Y-107224361D01*
X156345864Y-107224361D02*
X156393483Y-107319600D01*
X156393483Y-107319600D02*
X156488721Y-107367219D01*
X156488721Y-107367219D02*
X156583959Y-107367219D01*
D12*
X100739378Y-106332309D02*
X100501283Y-106332309D01*
X100501283Y-106332309D02*
X100501283Y-105832309D01*
X100906045Y-106070404D02*
X101072712Y-106070404D01*
X101144140Y-106332309D02*
X100906045Y-106332309D01*
X100906045Y-106332309D02*
X100906045Y-105832309D01*
X100906045Y-105832309D02*
X101144140Y-105832309D01*
X101358426Y-106332309D02*
X101358426Y-105832309D01*
X101358426Y-105832309D02*
X101477474Y-105832309D01*
X101477474Y-105832309D02*
X101548902Y-105856119D01*
X101548902Y-105856119D02*
X101596521Y-105903738D01*
X101596521Y-105903738D02*
X101620331Y-105951357D01*
X101620331Y-105951357D02*
X101644140Y-106046595D01*
X101644140Y-106046595D02*
X101644140Y-106118023D01*
X101644140Y-106118023D02*
X101620331Y-106213261D01*
X101620331Y-106213261D02*
X101596521Y-106260880D01*
X101596521Y-106260880D02*
X101548902Y-106308500D01*
X101548902Y-106308500D02*
X101477474Y-106332309D01*
X101477474Y-106332309D02*
X101358426Y-106332309D01*
X102001283Y-106522785D02*
X101977474Y-106498976D01*
X101977474Y-106498976D02*
X101929855Y-106427547D01*
X101929855Y-106427547D02*
X101906045Y-106379928D01*
X101906045Y-106379928D02*
X101882236Y-106308500D01*
X101882236Y-106308500D02*
X101858426Y-106189452D01*
X101858426Y-106189452D02*
X101858426Y-106094214D01*
X101858426Y-106094214D02*
X101882236Y-105975166D01*
X101882236Y-105975166D02*
X101906045Y-105903738D01*
X101906045Y-105903738D02*
X101929855Y-105856119D01*
X101929855Y-105856119D02*
X101977474Y-105784690D01*
X101977474Y-105784690D02*
X102001283Y-105760880D01*
X102191759Y-106070404D02*
X102358426Y-106070404D01*
X102429854Y-106332309D02*
X102191759Y-106332309D01*
X102191759Y-106332309D02*
X102191759Y-105832309D01*
X102191759Y-105832309D02*
X102429854Y-105832309D01*
X102858426Y-105998976D02*
X102858426Y-106332309D01*
X102739378Y-105808500D02*
X102620331Y-106165642D01*
X102620331Y-106165642D02*
X102929854Y-106165642D01*
X103072711Y-106522785D02*
X103096521Y-106498976D01*
X103096521Y-106498976D02*
X103144140Y-106427547D01*
X103144140Y-106427547D02*
X103167949Y-106379928D01*
X103167949Y-106379928D02*
X103191759Y-106308500D01*
X103191759Y-106308500D02*
X103215568Y-106189452D01*
X103215568Y-106189452D02*
X103215568Y-106094214D01*
X103215568Y-106094214D02*
X103191759Y-105975166D01*
X103191759Y-105975166D02*
X103167949Y-105903738D01*
X103167949Y-105903738D02*
X103144140Y-105856119D01*
X103144140Y-105856119D02*
X103096521Y-105784690D01*
X103096521Y-105784690D02*
X103072711Y-105760880D01*
D10*
X119112969Y-108482057D02*
X119112969Y-107582057D01*
X119112969Y-107582057D02*
X119412969Y-108224914D01*
X119412969Y-108224914D02*
X119712969Y-107582057D01*
X119712969Y-107582057D02*
X119712969Y-108482057D01*
X120527255Y-108482057D02*
X120527255Y-108010628D01*
X120527255Y-108010628D02*
X120484397Y-107924914D01*
X120484397Y-107924914D02*
X120398683Y-107882057D01*
X120398683Y-107882057D02*
X120227255Y-107882057D01*
X120227255Y-107882057D02*
X120141540Y-107924914D01*
X120527255Y-108439200D02*
X120441540Y-108482057D01*
X120441540Y-108482057D02*
X120227255Y-108482057D01*
X120227255Y-108482057D02*
X120141540Y-108439200D01*
X120141540Y-108439200D02*
X120098683Y-108353485D01*
X120098683Y-108353485D02*
X120098683Y-108267771D01*
X120098683Y-108267771D02*
X120141540Y-108182057D01*
X120141540Y-108182057D02*
X120227255Y-108139200D01*
X120227255Y-108139200D02*
X120441540Y-108139200D01*
X120441540Y-108139200D02*
X120527255Y-108096342D01*
X121341541Y-108482057D02*
X121341541Y-107582057D01*
X121341541Y-108439200D02*
X121255826Y-108482057D01*
X121255826Y-108482057D02*
X121084398Y-108482057D01*
X121084398Y-108482057D02*
X120998683Y-108439200D01*
X120998683Y-108439200D02*
X120955826Y-108396342D01*
X120955826Y-108396342D02*
X120912969Y-108310628D01*
X120912969Y-108310628D02*
X120912969Y-108053485D01*
X120912969Y-108053485D02*
X120955826Y-107967771D01*
X120955826Y-107967771D02*
X120998683Y-107924914D01*
X120998683Y-107924914D02*
X121084398Y-107882057D01*
X121084398Y-107882057D02*
X121255826Y-107882057D01*
X121255826Y-107882057D02*
X121341541Y-107924914D01*
X122112969Y-108439200D02*
X122027255Y-108482057D01*
X122027255Y-108482057D02*
X121855827Y-108482057D01*
X121855827Y-108482057D02*
X121770112Y-108439200D01*
X121770112Y-108439200D02*
X121727255Y-108353485D01*
X121727255Y-108353485D02*
X121727255Y-108010628D01*
X121727255Y-108010628D02*
X121770112Y-107924914D01*
X121770112Y-107924914D02*
X121855827Y-107882057D01*
X121855827Y-107882057D02*
X122027255Y-107882057D01*
X122027255Y-107882057D02*
X122112969Y-107924914D01*
X122112969Y-107924914D02*
X122155827Y-108010628D01*
X122155827Y-108010628D02*
X122155827Y-108096342D01*
X122155827Y-108096342D02*
X121727255Y-108182057D01*
X123227255Y-108482057D02*
X123227255Y-107882057D01*
X123227255Y-107582057D02*
X123184398Y-107624914D01*
X123184398Y-107624914D02*
X123227255Y-107667771D01*
X123227255Y-107667771D02*
X123270112Y-107624914D01*
X123270112Y-107624914D02*
X123227255Y-107582057D01*
X123227255Y-107582057D02*
X123227255Y-107667771D01*
X123655826Y-107882057D02*
X123655826Y-108482057D01*
X123655826Y-107967771D02*
X123698683Y-107924914D01*
X123698683Y-107924914D02*
X123784398Y-107882057D01*
X123784398Y-107882057D02*
X123912969Y-107882057D01*
X123912969Y-107882057D02*
X123998683Y-107924914D01*
X123998683Y-107924914D02*
X124041541Y-108010628D01*
X124041541Y-108010628D02*
X124041541Y-108482057D01*
X125155826Y-108482057D02*
X125155826Y-107582057D01*
X125584397Y-107882057D02*
X125584397Y-108482057D01*
X125584397Y-107967771D02*
X125627254Y-107924914D01*
X125627254Y-107924914D02*
X125712969Y-107882057D01*
X125712969Y-107882057D02*
X125841540Y-107882057D01*
X125841540Y-107882057D02*
X125927254Y-107924914D01*
X125927254Y-107924914D02*
X125970112Y-108010628D01*
X125970112Y-108010628D02*
X125970112Y-108482057D01*
X126784398Y-108482057D02*
X126784398Y-107582057D01*
X126784398Y-108439200D02*
X126698683Y-108482057D01*
X126698683Y-108482057D02*
X126527255Y-108482057D01*
X126527255Y-108482057D02*
X126441540Y-108439200D01*
X126441540Y-108439200D02*
X126398683Y-108396342D01*
X126398683Y-108396342D02*
X126355826Y-108310628D01*
X126355826Y-108310628D02*
X126355826Y-108053485D01*
X126355826Y-108053485D02*
X126398683Y-107967771D01*
X126398683Y-107967771D02*
X126441540Y-107924914D01*
X126441540Y-107924914D02*
X126527255Y-107882057D01*
X126527255Y-107882057D02*
X126698683Y-107882057D01*
X126698683Y-107882057D02*
X126784398Y-107924914D01*
X127341541Y-108482057D02*
X127255826Y-108439200D01*
X127255826Y-108439200D02*
X127212969Y-108396342D01*
X127212969Y-108396342D02*
X127170112Y-108310628D01*
X127170112Y-108310628D02*
X127170112Y-108053485D01*
X127170112Y-108053485D02*
X127212969Y-107967771D01*
X127212969Y-107967771D02*
X127255826Y-107924914D01*
X127255826Y-107924914D02*
X127341541Y-107882057D01*
X127341541Y-107882057D02*
X127470112Y-107882057D01*
X127470112Y-107882057D02*
X127555826Y-107924914D01*
X127555826Y-107924914D02*
X127598684Y-107967771D01*
X127598684Y-107967771D02*
X127641541Y-108053485D01*
X127641541Y-108053485D02*
X127641541Y-108310628D01*
X127641541Y-108310628D02*
X127598684Y-108396342D01*
X127598684Y-108396342D02*
X127555826Y-108439200D01*
X127555826Y-108439200D02*
X127470112Y-108482057D01*
X127470112Y-108482057D02*
X127341541Y-108482057D01*
X128027255Y-107882057D02*
X128027255Y-108482057D01*
X128027255Y-107967771D02*
X128070112Y-107924914D01*
X128070112Y-107924914D02*
X128155827Y-107882057D01*
X128155827Y-107882057D02*
X128284398Y-107882057D01*
X128284398Y-107882057D02*
X128370112Y-107924914D01*
X128370112Y-107924914D02*
X128412970Y-108010628D01*
X128412970Y-108010628D02*
X128412970Y-108482057D01*
X129184398Y-108439200D02*
X129098684Y-108482057D01*
X129098684Y-108482057D02*
X128927256Y-108482057D01*
X128927256Y-108482057D02*
X128841541Y-108439200D01*
X128841541Y-108439200D02*
X128798684Y-108353485D01*
X128798684Y-108353485D02*
X128798684Y-108010628D01*
X128798684Y-108010628D02*
X128841541Y-107924914D01*
X128841541Y-107924914D02*
X128927256Y-107882057D01*
X128927256Y-107882057D02*
X129098684Y-107882057D01*
X129098684Y-107882057D02*
X129184398Y-107924914D01*
X129184398Y-107924914D02*
X129227256Y-108010628D01*
X129227256Y-108010628D02*
X129227256Y-108096342D01*
X129227256Y-108096342D02*
X128798684Y-108182057D01*
X129570113Y-108439200D02*
X129655827Y-108482057D01*
X129655827Y-108482057D02*
X129827256Y-108482057D01*
X129827256Y-108482057D02*
X129912970Y-108439200D01*
X129912970Y-108439200D02*
X129955827Y-108353485D01*
X129955827Y-108353485D02*
X129955827Y-108310628D01*
X129955827Y-108310628D02*
X129912970Y-108224914D01*
X129912970Y-108224914D02*
X129827256Y-108182057D01*
X129827256Y-108182057D02*
X129698685Y-108182057D01*
X129698685Y-108182057D02*
X129612970Y-108139200D01*
X129612970Y-108139200D02*
X129570113Y-108053485D01*
X129570113Y-108053485D02*
X129570113Y-108010628D01*
X129570113Y-108010628D02*
X129612970Y-107924914D01*
X129612970Y-107924914D02*
X129698685Y-107882057D01*
X129698685Y-107882057D02*
X129827256Y-107882057D01*
X129827256Y-107882057D02*
X129912970Y-107924914D01*
X130341541Y-108482057D02*
X130341541Y-107882057D01*
X130341541Y-107582057D02*
X130298684Y-107624914D01*
X130298684Y-107624914D02*
X130341541Y-107667771D01*
X130341541Y-107667771D02*
X130384398Y-107624914D01*
X130384398Y-107624914D02*
X130341541Y-107582057D01*
X130341541Y-107582057D02*
X130341541Y-107667771D01*
X131155827Y-108482057D02*
X131155827Y-108010628D01*
X131155827Y-108010628D02*
X131112969Y-107924914D01*
X131112969Y-107924914D02*
X131027255Y-107882057D01*
X131027255Y-107882057D02*
X130855827Y-107882057D01*
X130855827Y-107882057D02*
X130770112Y-107924914D01*
X131155827Y-108439200D02*
X131070112Y-108482057D01*
X131070112Y-108482057D02*
X130855827Y-108482057D01*
X130855827Y-108482057D02*
X130770112Y-108439200D01*
X130770112Y-108439200D02*
X130727255Y-108353485D01*
X130727255Y-108353485D02*
X130727255Y-108267771D01*
X130727255Y-108267771D02*
X130770112Y-108182057D01*
X130770112Y-108182057D02*
X130855827Y-108139200D01*
X130855827Y-108139200D02*
X131070112Y-108139200D01*
X131070112Y-108139200D02*
X131155827Y-108096342D01*
D11*
X115464619Y-126497431D02*
X116274142Y-126497431D01*
X116274142Y-126497431D02*
X116369380Y-126449812D01*
X116369380Y-126449812D02*
X116417000Y-126402193D01*
X116417000Y-126402193D02*
X116464619Y-126306955D01*
X116464619Y-126306955D02*
X116464619Y-126116479D01*
X116464619Y-126116479D02*
X116417000Y-126021241D01*
X116417000Y-126021241D02*
X116369380Y-125973622D01*
X116369380Y-125973622D02*
X116274142Y-125926003D01*
X116274142Y-125926003D02*
X115464619Y-125926003D01*
X116417000Y-125497431D02*
X116464619Y-125354574D01*
X116464619Y-125354574D02*
X116464619Y-125116479D01*
X116464619Y-125116479D02*
X116417000Y-125021241D01*
X116417000Y-125021241D02*
X116369380Y-124973622D01*
X116369380Y-124973622D02*
X116274142Y-124926003D01*
X116274142Y-124926003D02*
X116178904Y-124926003D01*
X116178904Y-124926003D02*
X116083666Y-124973622D01*
X116083666Y-124973622D02*
X116036047Y-125021241D01*
X116036047Y-125021241D02*
X115988428Y-125116479D01*
X115988428Y-125116479D02*
X115940809Y-125306955D01*
X115940809Y-125306955D02*
X115893190Y-125402193D01*
X115893190Y-125402193D02*
X115845571Y-125449812D01*
X115845571Y-125449812D02*
X115750333Y-125497431D01*
X115750333Y-125497431D02*
X115655095Y-125497431D01*
X115655095Y-125497431D02*
X115559857Y-125449812D01*
X115559857Y-125449812D02*
X115512238Y-125402193D01*
X115512238Y-125402193D02*
X115464619Y-125306955D01*
X115464619Y-125306955D02*
X115464619Y-125068860D01*
X115464619Y-125068860D02*
X115512238Y-124926003D01*
X115940809Y-124164098D02*
X115988428Y-124021241D01*
X115988428Y-124021241D02*
X116036047Y-123973622D01*
X116036047Y-123973622D02*
X116131285Y-123926003D01*
X116131285Y-123926003D02*
X116274142Y-123926003D01*
X116274142Y-123926003D02*
X116369380Y-123973622D01*
X116369380Y-123973622D02*
X116417000Y-124021241D01*
X116417000Y-124021241D02*
X116464619Y-124116479D01*
X116464619Y-124116479D02*
X116464619Y-124497431D01*
X116464619Y-124497431D02*
X115464619Y-124497431D01*
X115464619Y-124497431D02*
X115464619Y-124164098D01*
X115464619Y-124164098D02*
X115512238Y-124068860D01*
X115512238Y-124068860D02*
X115559857Y-124021241D01*
X115559857Y-124021241D02*
X115655095Y-123973622D01*
X115655095Y-123973622D02*
X115750333Y-123973622D01*
X115750333Y-123973622D02*
X115845571Y-124021241D01*
X115845571Y-124021241D02*
X115893190Y-124068860D01*
X115893190Y-124068860D02*
X115940809Y-124164098D01*
X115940809Y-124164098D02*
X115940809Y-124497431D01*
X115464619Y-122878383D02*
X115464619Y-122306955D01*
X116464619Y-122592669D02*
X115464619Y-122592669D01*
X115464619Y-122116478D02*
X115464619Y-121545050D01*
X116464619Y-121830764D02*
X115464619Y-121830764D01*
X116464619Y-120735526D02*
X116464619Y-121211716D01*
X116464619Y-121211716D02*
X115464619Y-121211716D01*
D10*
X132327255Y-110618771D02*
X132041541Y-110618771D01*
X132041541Y-110618771D02*
X132041541Y-110018771D01*
X132527255Y-110618771D02*
X132527255Y-110018771D01*
X132812969Y-110618771D02*
X132812969Y-110018771D01*
X132812969Y-110018771D02*
X133155826Y-110618771D01*
X133155826Y-110618771D02*
X133155826Y-110018771D01*
X133727254Y-110618771D02*
X133441540Y-110618771D01*
X133441540Y-110618771D02*
X133441540Y-110018771D01*
X137441541Y-110304485D02*
X137241541Y-110304485D01*
X137241541Y-110618771D02*
X137241541Y-110018771D01*
X137241541Y-110018771D02*
X137527255Y-110018771D01*
X137755827Y-110618771D02*
X137755827Y-110018771D01*
X137755827Y-110018771D02*
X137955827Y-110447342D01*
X137955827Y-110447342D02*
X138155827Y-110018771D01*
X138155827Y-110018771D02*
X138155827Y-110618771D01*
X138441541Y-110618771D02*
X138441541Y-110018771D01*
X138727255Y-110618771D02*
X138727255Y-110018771D01*
X138727255Y-110018771D02*
X139070112Y-110618771D01*
X139070112Y-110618771D02*
X139070112Y-110018771D01*
X139641540Y-110618771D02*
X139355826Y-110618771D01*
X139355826Y-110618771D02*
X139355826Y-110018771D01*
D13*
X132567219Y-125393183D02*
X132567219Y-124821755D01*
X133567219Y-125107469D02*
X132567219Y-125107469D01*
X133043409Y-124155088D02*
X133043409Y-124488421D01*
X133567219Y-124488421D02*
X132567219Y-124488421D01*
X132567219Y-124488421D02*
X132567219Y-124012231D01*
X133471980Y-122297945D02*
X133519600Y-122345564D01*
X133519600Y-122345564D02*
X133567219Y-122488421D01*
X133567219Y-122488421D02*
X133567219Y-122583659D01*
X133567219Y-122583659D02*
X133519600Y-122726516D01*
X133519600Y-122726516D02*
X133424361Y-122821754D01*
X133424361Y-122821754D02*
X133329123Y-122869373D01*
X133329123Y-122869373D02*
X133138647Y-122916992D01*
X133138647Y-122916992D02*
X132995790Y-122916992D01*
X132995790Y-122916992D02*
X132805314Y-122869373D01*
X132805314Y-122869373D02*
X132710076Y-122821754D01*
X132710076Y-122821754D02*
X132614838Y-122726516D01*
X132614838Y-122726516D02*
X132567219Y-122583659D01*
X132567219Y-122583659D02*
X132567219Y-122488421D01*
X132567219Y-122488421D02*
X132614838Y-122345564D01*
X132614838Y-122345564D02*
X132662457Y-122297945D01*
X133567219Y-121440802D02*
X133043409Y-121440802D01*
X133043409Y-121440802D02*
X132948171Y-121488421D01*
X132948171Y-121488421D02*
X132900552Y-121583659D01*
X132900552Y-121583659D02*
X132900552Y-121774135D01*
X132900552Y-121774135D02*
X132948171Y-121869373D01*
X133519600Y-121440802D02*
X133567219Y-121536040D01*
X133567219Y-121536040D02*
X133567219Y-121774135D01*
X133567219Y-121774135D02*
X133519600Y-121869373D01*
X133519600Y-121869373D02*
X133424361Y-121916992D01*
X133424361Y-121916992D02*
X133329123Y-121916992D01*
X133329123Y-121916992D02*
X133233885Y-121869373D01*
X133233885Y-121869373D02*
X133186266Y-121774135D01*
X133186266Y-121774135D02*
X133186266Y-121536040D01*
X133186266Y-121536040D02*
X133138647Y-121440802D01*
X133567219Y-120964611D02*
X132900552Y-120964611D01*
X133091028Y-120964611D02*
X132995790Y-120916992D01*
X132995790Y-120916992D02*
X132948171Y-120869373D01*
X132948171Y-120869373D02*
X132900552Y-120774135D01*
X132900552Y-120774135D02*
X132900552Y-120678897D01*
X133567219Y-119916992D02*
X132567219Y-119916992D01*
X133519600Y-119916992D02*
X133567219Y-120012230D01*
X133567219Y-120012230D02*
X133567219Y-120202706D01*
X133567219Y-120202706D02*
X133519600Y-120297944D01*
X133519600Y-120297944D02*
X133471980Y-120345563D01*
X133471980Y-120345563D02*
X133376742Y-120393182D01*
X133376742Y-120393182D02*
X133091028Y-120393182D01*
X133091028Y-120393182D02*
X132995790Y-120345563D01*
X132995790Y-120345563D02*
X132948171Y-120297944D01*
X132948171Y-120297944D02*
X132900552Y-120202706D01*
X132900552Y-120202706D02*
X132900552Y-120012230D01*
X132900552Y-120012230D02*
X132948171Y-119916992D01*
D14*
G04 #@! TO.C,J4*
X142010000Y-107070000D02*
X142010000Y-108400000D01*
X140680000Y-107070000D02*
X142010000Y-107070000D01*
X139410000Y-107070000D02*
X131730000Y-107070000D01*
X139410000Y-107070000D02*
X139410000Y-109730000D01*
X131730000Y-107070000D02*
X131730000Y-109730000D01*
X139410000Y-109730000D02*
X131730000Y-109730000D01*
G04 #@! TO.C,U3*
X103337500Y-118290000D02*
X101537500Y-118290000D01*
X103337500Y-118290000D02*
X104137500Y-118290000D01*
X103337500Y-121410000D02*
X102537500Y-121410000D01*
X103337500Y-121410000D02*
X104137500Y-121410000D01*
G04 #@! TO.C,SW1*
X154050000Y-120475000D02*
X154050000Y-120375000D01*
X154050000Y-122175000D02*
X158450000Y-122175000D01*
X158450000Y-118675000D02*
X154050000Y-118675000D01*
X158450000Y-120475000D02*
X158450000Y-120375000D01*
G04 #@! TO.C,U4*
X110062500Y-114290000D02*
X108262500Y-114290000D01*
X110062500Y-114290000D02*
X110862500Y-114290000D01*
X110062500Y-117410000D02*
X109262500Y-117410000D01*
X110062500Y-117410000D02*
X110862500Y-117410000D01*
G04 #@! TO.C,J5*
X146430000Y-125600000D02*
X146430000Y-121150000D01*
X146430000Y-119750000D02*
X146430000Y-117450000D01*
X146430000Y-116050000D02*
X146430000Y-115330000D01*
X146430000Y-115330000D02*
X143750000Y-115330000D01*
X144950000Y-126970000D02*
X144090000Y-126970000D01*
X141450000Y-115330000D02*
X137780000Y-115330000D01*
X135480000Y-115330000D02*
X134250000Y-115330000D01*
X134250000Y-115330000D02*
X134250000Y-125150000D01*
G04 #@! TO.C,RN1*
X149530000Y-121420000D02*
X148470000Y-121420000D01*
X149530000Y-125060000D02*
X148470000Y-125060000D01*
G04 #@! TO.C,U6*
X112200000Y-112405000D02*
X118200000Y-112405000D01*
X115200000Y-107185000D02*
X118200000Y-107185000D01*
G04 #@! TO.C,U1*
X129600000Y-110950000D02*
X130150000Y-110950000D01*
X119850000Y-110950000D02*
X120400000Y-110950000D01*
X130150000Y-111500000D02*
X130150000Y-110950000D01*
X119850000Y-111500000D02*
X119850000Y-110950000D01*
X130150000Y-120700000D02*
X130150000Y-121250000D01*
X119850000Y-120700000D02*
X119850000Y-121250000D01*
X130150000Y-121250000D02*
X129600000Y-121250000D01*
X119850000Y-121250000D02*
X120400000Y-121250000D01*
D10*
X129300000Y-112100000D02*
G75*
G03*
X129300000Y-112100000I-300000J0D01*
G01*
G04 #@! TO.C,U2*
X108575000Y-118275000D02*
X108575000Y-118500000D01*
X108575000Y-118275000D02*
X111925000Y-118275000D01*
X108575000Y-118500000D02*
X107350000Y-118500000D01*
X108575000Y-121625000D02*
X108575000Y-121325000D01*
X108575000Y-121625000D02*
X111925000Y-121625000D01*
X111925000Y-118275000D02*
X111925000Y-118575000D01*
X111925000Y-121625000D02*
X111925000Y-121325000D01*
G04 #@! TO.C,G\u002A\u002A\u002A*
G36*
X151412793Y-103325080D02*
G01*
X151404403Y-103441031D01*
X151049731Y-103515023D01*
X150913833Y-103542725D01*
X150794385Y-103565869D01*
X150703017Y-103582287D01*
X150651362Y-103589810D01*
X150647314Y-103590050D01*
X150622002Y-103583387D01*
X150607486Y-103554565D01*
X150600952Y-103492387D01*
X150599570Y-103400107D01*
X150599570Y-103209130D01*
X151010376Y-103209130D01*
X151421182Y-103209130D01*
X151412793Y-103325080D01*
G37*
G36*
X151404403Y-102636197D02*
G01*
X151404403Y-103031793D01*
X151015060Y-103039367D01*
X150853932Y-103041380D01*
X150740128Y-103039800D01*
X150666492Y-103034119D01*
X150625872Y-103023827D01*
X150611814Y-103010708D01*
X150607217Y-102971138D01*
X150604427Y-102888334D01*
X150603620Y-102773602D01*
X150604971Y-102638247D01*
X150605561Y-102607538D01*
X150613211Y-102240601D01*
X151008807Y-102240601D01*
X151404403Y-102240601D01*
X151404403Y-102636197D01*
G37*
G36*
X152386573Y-101654028D02*
G01*
X152386573Y-102049624D01*
X151997230Y-102057197D01*
X151836102Y-102059210D01*
X151722297Y-102057631D01*
X151648662Y-102051949D01*
X151608042Y-102041657D01*
X151593984Y-102028538D01*
X151589386Y-101988969D01*
X151586597Y-101906165D01*
X151585790Y-101791432D01*
X151587141Y-101656077D01*
X151587731Y-101625369D01*
X151595381Y-101258431D01*
X151990977Y-101258431D01*
X152386573Y-101258431D01*
X152386573Y-101654028D01*
G37*
G36*
X152386573Y-102636197D02*
G01*
X152386573Y-103031793D01*
X151997230Y-103039367D01*
X151836102Y-103041380D01*
X151722297Y-103039800D01*
X151648662Y-103034119D01*
X151608042Y-103023827D01*
X151593984Y-103010708D01*
X151589386Y-102971138D01*
X151586597Y-102888334D01*
X151585790Y-102773602D01*
X151587141Y-102638247D01*
X151587731Y-102607538D01*
X151595381Y-102240601D01*
X151990977Y-102240601D01*
X152386573Y-102240601D01*
X152386573Y-102636197D01*
G37*
G36*
X153368743Y-101654028D02*
G01*
X153368743Y-102049624D01*
X152979400Y-102057197D01*
X152818272Y-102059210D01*
X152704467Y-102057631D01*
X152630832Y-102051949D01*
X152590212Y-102041657D01*
X152576153Y-102028538D01*
X152571556Y-101988969D01*
X152568766Y-101906165D01*
X152567959Y-101791432D01*
X152569311Y-101656077D01*
X152569900Y-101625369D01*
X152577551Y-101258431D01*
X152973147Y-101258431D01*
X153368743Y-101258431D01*
X153368743Y-101654028D01*
G37*
G36*
X153368743Y-102636197D02*
G01*
X153368743Y-103031793D01*
X152979400Y-103039367D01*
X152818272Y-103041380D01*
X152704467Y-103039800D01*
X152630832Y-103034119D01*
X152590212Y-103023827D01*
X152576153Y-103010708D01*
X152571556Y-102971138D01*
X152568766Y-102888334D01*
X152567959Y-102773602D01*
X152569311Y-102638247D01*
X152569900Y-102607538D01*
X152577551Y-102240601D01*
X152973147Y-102240601D01*
X153368743Y-102240601D01*
X153368743Y-102636197D01*
G37*
G36*
X152156421Y-103210212D02*
G01*
X152273698Y-103213822D01*
X152349173Y-103220505D01*
X152389209Y-103230808D01*
X152400214Y-103244221D01*
X152373120Y-103265790D01*
X152291992Y-103292983D01*
X152157066Y-103325733D01*
X152023509Y-103353351D01*
X151885050Y-103380129D01*
X151764675Y-103402593D01*
X151673059Y-103418813D01*
X151620876Y-103426857D01*
X151614272Y-103427390D01*
X151592080Y-103402320D01*
X151582009Y-103334536D01*
X151581740Y-103318260D01*
X151581740Y-103209130D01*
X151990977Y-103209130D01*
X152156421Y-103210212D01*
G37*
G36*
X150242862Y-101518296D02*
G01*
X150335303Y-101576168D01*
X150408208Y-101627341D01*
X150449574Y-101663191D01*
X150454272Y-101670223D01*
X150452683Y-101721157D01*
X150426169Y-101777135D01*
X150388345Y-101813421D01*
X150373530Y-101816895D01*
X150336552Y-101802702D01*
X150266759Y-101765593D01*
X150176977Y-101712554D01*
X150142588Y-101691131D01*
X150053119Y-101632304D01*
X149984728Y-101582930D01*
X149948131Y-101550929D01*
X149944790Y-101544928D01*
X149960369Y-101510283D01*
X149994665Y-101462068D01*
X150044539Y-101400475D01*
X150242862Y-101518296D01*
G37*
G36*
X150356834Y-100990701D02*
G01*
X150415871Y-101033938D01*
X150487864Y-101096951D01*
X150561573Y-101168879D01*
X150625760Y-101238863D01*
X150669182Y-101296046D01*
X150681417Y-101325334D01*
X150657656Y-101391039D01*
X150600007Y-101431337D01*
X150570984Y-101435768D01*
X150532320Y-101417016D01*
X150469063Y-101367147D01*
X150392968Y-101295742D01*
X150369067Y-101271210D01*
X150292788Y-101189588D01*
X150249361Y-101135906D01*
X150233136Y-101099436D01*
X150238464Y-101069453D01*
X150251298Y-101047625D01*
X150292571Y-100998694D01*
X150321994Y-100978096D01*
X150356834Y-100990701D01*
G37*
G36*
X150916582Y-100719800D02*
G01*
X150943251Y-100759585D01*
X150970856Y-100834930D01*
X150998763Y-100934648D01*
X151023497Y-101039372D01*
X151038586Y-101124542D01*
X151041710Y-101176065D01*
X151039686Y-101183334D01*
X150993896Y-101218563D01*
X150932753Y-101230974D01*
X150883765Y-101215763D01*
X150879560Y-101211303D01*
X150860488Y-101169434D01*
X150834978Y-101089716D01*
X150807883Y-100987682D01*
X150802076Y-100963288D01*
X150778244Y-100854833D01*
X150768258Y-100787216D01*
X150771619Y-100748627D01*
X150787824Y-100727258D01*
X150791942Y-100724410D01*
X150851641Y-100705957D01*
X150886036Y-100705805D01*
X150916582Y-100719800D01*
G37*
G36*
X151389743Y-101335475D02*
G01*
X151405613Y-101382588D01*
X151414365Y-101476137D01*
X151417777Y-101619454D01*
X151418045Y-101694951D01*
X151418045Y-102063265D01*
X150995166Y-102063265D01*
X150839628Y-102061684D01*
X150713040Y-102057247D01*
X150622914Y-102050409D01*
X150576758Y-102041626D01*
X150572287Y-102037582D01*
X150594632Y-102012973D01*
X150653395Y-101972487D01*
X150736173Y-101924614D01*
X150741747Y-101921632D01*
X150888922Y-101829138D01*
X151036106Y-101712246D01*
X151167489Y-101585076D01*
X151267264Y-101461746D01*
X151281632Y-101439440D01*
X151329531Y-101367233D01*
X151364975Y-101331467D01*
X151389743Y-101335475D01*
G37*
G36*
X153350909Y-103595705D02*
G01*
X153360302Y-103613076D01*
X153367645Y-103648459D01*
X153373184Y-103707116D01*
X153377163Y-103794308D01*
X153379828Y-103915299D01*
X153381423Y-104075351D01*
X153382194Y-104279725D01*
X153382384Y-104518689D01*
X153382384Y-105446294D01*
X151990977Y-105446294D01*
X150599570Y-105446294D01*
X150599570Y-104682384D01*
X150599570Y-103918474D01*
X150701879Y-103918683D01*
X150754009Y-103920849D01*
X150852980Y-103926886D01*
X150991250Y-103936259D01*
X151161273Y-103948435D01*
X151355505Y-103962882D01*
X151566401Y-103979064D01*
X151663587Y-103986681D01*
X151933023Y-104008310D01*
X152153997Y-104026074D01*
X152332521Y-104039252D01*
X152474608Y-104047122D01*
X152586270Y-104048963D01*
X152673519Y-104044057D01*
X152742368Y-104031680D01*
X152798829Y-104011114D01*
X152848914Y-103981636D01*
X152898635Y-103942526D01*
X152954006Y-103893064D01*
X153021037Y-103832529D01*
X153032295Y-103822602D01*
X153135054Y-103735224D01*
X153226175Y-103662940D01*
X153296472Y-103612678D01*
X153336761Y-103591368D01*
X153339223Y-103591084D01*
X153350909Y-103595705D01*
G37*
G36*
X153358635Y-103268524D02*
G01*
X153378532Y-103275814D01*
X153380577Y-103293129D01*
X153360585Y-103325706D01*
X153314372Y-103378781D01*
X153237752Y-103457591D01*
X153126540Y-103567372D01*
X153095918Y-103597272D01*
X152973410Y-103715779D01*
X152882113Y-103800851D01*
X152814867Y-103857849D01*
X152764514Y-103892134D01*
X152723895Y-103909066D01*
X152685851Y-103914006D01*
X152673039Y-103913929D01*
X152623984Y-103911592D01*
X152527420Y-103906116D01*
X152390287Y-103897927D01*
X152219527Y-103887450D01*
X152022078Y-103875110D01*
X151804881Y-103861332D01*
X151609022Y-103848750D01*
X151384424Y-103834220D01*
X151177112Y-103820769D01*
X150993372Y-103808808D01*
X150839487Y-103798750D01*
X150721742Y-103791003D01*
X150646423Y-103785980D01*
X150620032Y-103784119D01*
X150600974Y-103760250D01*
X150599570Y-103747593D01*
X150625489Y-103736853D01*
X150699149Y-103718596D01*
X150814407Y-103693889D01*
X150965117Y-103663799D01*
X151145137Y-103629393D01*
X151348322Y-103591737D01*
X151568528Y-103551899D01*
X151799610Y-103510945D01*
X152035425Y-103469942D01*
X152269828Y-103429958D01*
X152496676Y-103392058D01*
X152709823Y-103357309D01*
X152903127Y-103326779D01*
X153070443Y-103301535D01*
X153205626Y-103282642D01*
X153302532Y-103271169D01*
X153355019Y-103268181D01*
X153358635Y-103268524D01*
G37*
D14*
G04 #@! TO.C,J2*
X106770000Y-123170000D02*
X107430000Y-123170000D01*
X106770000Y-124900000D02*
X106770000Y-123170000D01*
X106770000Y-127470000D02*
X106770000Y-127260000D01*
X108820000Y-122470000D02*
X108820000Y-122860000D01*
X108820000Y-122470000D02*
X109270000Y-122470000D01*
X114390000Y-123170000D02*
X113740000Y-123170000D01*
X114390000Y-124900000D02*
X114390000Y-123170000D01*
X114390000Y-127470000D02*
X114390000Y-127260000D01*
G04 #@! TO.C,G\u002A\u002A\u002A*
G36*
X141075071Y-112208066D02*
G01*
X141075071Y-112962242D01*
X140923833Y-112962242D01*
X140772594Y-112962242D01*
X140772594Y-112208066D01*
X140772594Y-111453890D01*
X140923833Y-111453890D01*
X141075071Y-111453890D01*
X141075071Y-112208066D01*
G37*
G36*
X144313591Y-112208066D02*
G01*
X144313591Y-112962242D01*
X144162353Y-112962242D01*
X144011114Y-112962242D01*
X144011114Y-112208066D01*
X144011114Y-111453890D01*
X144162353Y-111453890D01*
X144313591Y-111453890D01*
X144313591Y-112208066D01*
G37*
G36*
X141821181Y-111588997D02*
G01*
X141821181Y-111724103D01*
X141730438Y-111724103D01*
X141639695Y-111724103D01*
X141639695Y-112343173D01*
X141639695Y-112962242D01*
X141488456Y-112962242D01*
X141337218Y-112962242D01*
X141337218Y-112343173D01*
X141337218Y-111724103D01*
X141244458Y-111724103D01*
X141151699Y-111724103D01*
X141151699Y-111588997D01*
X141151699Y-111453890D01*
X141486440Y-111453890D01*
X141821181Y-111453890D01*
X141821181Y-111588997D01*
G37*
G36*
X142458399Y-111588997D02*
G01*
X142458399Y-111724103D01*
X142329342Y-111724103D01*
X142200286Y-111724103D01*
X142200286Y-111893490D01*
X142200286Y-112062877D01*
X142323293Y-112062877D01*
X142446300Y-112062877D01*
X142446300Y-112197984D01*
X142446300Y-112333090D01*
X142323293Y-112333090D01*
X142200286Y-112333090D01*
X142200286Y-112512560D01*
X142200286Y-112692029D01*
X142331359Y-112692029D01*
X142462432Y-112692029D01*
X142462432Y-112827136D01*
X142462432Y-112962242D01*
X142180120Y-112962242D01*
X141897809Y-112962242D01*
X141897809Y-112208066D01*
X141897809Y-111453890D01*
X142178104Y-111453890D01*
X142458399Y-111453890D01*
X142458399Y-111588997D01*
G37*
G36*
X138987980Y-112208066D02*
G01*
X138987980Y-112960226D01*
X138837642Y-112961283D01*
X138797133Y-112961513D01*
X138764045Y-112961566D01*
X138737736Y-112961424D01*
X138717562Y-112961072D01*
X138702880Y-112960492D01*
X138693047Y-112959666D01*
X138687420Y-112958578D01*
X138685369Y-112957250D01*
X138685175Y-112952753D01*
X138684997Y-112940589D01*
X138684836Y-112921160D01*
X138684693Y-112894864D01*
X138684567Y-112862103D01*
X138684459Y-112823276D01*
X138684370Y-112778783D01*
X138684300Y-112729025D01*
X138684250Y-112674400D01*
X138684220Y-112615310D01*
X138684211Y-112552155D01*
X138684222Y-112485334D01*
X138684255Y-112415247D01*
X138684310Y-112342295D01*
X138684388Y-112266878D01*
X138684468Y-112204033D01*
X138685503Y-111455907D01*
X138836742Y-111455907D01*
X138987980Y-111455907D01*
X138987980Y-112208066D01*
G37*
G36*
X143902223Y-112208031D02*
G01*
X143902223Y-112962242D01*
X143753017Y-112962242D01*
X143603812Y-112962242D01*
X143602787Y-112484740D01*
X143601762Y-112007239D01*
X143547896Y-112475666D01*
X143540901Y-112536421D01*
X143534137Y-112595034D01*
X143527663Y-112650997D01*
X143521538Y-112703800D01*
X143515823Y-112752934D01*
X143510576Y-112797891D01*
X143505858Y-112838160D01*
X143501728Y-112873234D01*
X143498245Y-112902603D01*
X143495469Y-112925758D01*
X143493460Y-112942191D01*
X143492277Y-112951391D01*
X143492005Y-112953168D01*
X143489980Y-112962242D01*
X143347244Y-112962242D01*
X143314228Y-112962160D01*
X143283918Y-112961926D01*
X143257221Y-112961560D01*
X143235044Y-112961080D01*
X143218293Y-112960507D01*
X143207874Y-112959858D01*
X143204659Y-112959217D01*
X143204230Y-112954903D01*
X143202941Y-112943064D01*
X143200848Y-112924192D01*
X143198006Y-112898776D01*
X143194471Y-112867307D01*
X143190297Y-112830275D01*
X143185541Y-112788169D01*
X143180256Y-112741481D01*
X143174500Y-112690701D01*
X143168327Y-112636317D01*
X143161793Y-112578822D01*
X143154952Y-112518704D01*
X143149205Y-112468248D01*
X143093601Y-111980304D01*
X143092577Y-112471273D01*
X143091552Y-112962242D01*
X142970577Y-112962242D01*
X142849603Y-112962242D01*
X142849603Y-112208031D01*
X142849603Y-111453821D01*
X143068355Y-111454864D01*
X143287108Y-111455907D01*
X143330320Y-111899540D01*
X143336071Y-111958537D01*
X143341609Y-112015270D01*
X143346885Y-112069226D01*
X143351846Y-112119889D01*
X143356443Y-112166746D01*
X143360625Y-112209282D01*
X143364342Y-112246983D01*
X143367542Y-112279334D01*
X143370175Y-112305821D01*
X143372191Y-112325931D01*
X143373538Y-112339148D01*
X143374167Y-112344958D01*
X143374202Y-112345189D01*
X143374686Y-112341532D01*
X143375923Y-112330356D01*
X143377861Y-112312168D01*
X143380447Y-112287474D01*
X143383630Y-112256782D01*
X143387358Y-112220597D01*
X143391578Y-112179427D01*
X143396239Y-112133778D01*
X143401288Y-112084158D01*
X143406674Y-112031072D01*
X143412344Y-111975028D01*
X143418247Y-111916532D01*
X143419756Y-111901556D01*
X143464639Y-111455907D01*
X143683431Y-111454864D01*
X143902223Y-111453821D01*
X143902223Y-112208031D01*
G37*
G36*
X140121871Y-111453947D02*
G01*
X140155791Y-111454130D01*
X140182872Y-111454459D01*
X140203728Y-111454954D01*
X140218972Y-111455635D01*
X140229217Y-111456521D01*
X140235076Y-111457633D01*
X140237145Y-111458932D01*
X140238301Y-111463513D01*
X140241151Y-111475395D01*
X140245561Y-111494019D01*
X140251403Y-111518829D01*
X140258546Y-111549266D01*
X140266860Y-111584773D01*
X140276212Y-111624793D01*
X140286475Y-111668768D01*
X140297516Y-111716141D01*
X140309205Y-111766355D01*
X140321412Y-111818852D01*
X140323278Y-111826880D01*
X140335498Y-111879335D01*
X140347209Y-111929348D01*
X140358284Y-111976387D01*
X140368594Y-112019921D01*
X140378013Y-112059419D01*
X140386411Y-112094348D01*
X140393661Y-112124178D01*
X140399636Y-112148376D01*
X140404206Y-112166412D01*
X140407245Y-112177753D01*
X140408624Y-112181868D01*
X140408688Y-112181786D01*
X140408810Y-112176641D01*
X140408853Y-112164022D01*
X140408820Y-112144519D01*
X140408714Y-112118724D01*
X140408540Y-112087229D01*
X140408302Y-112050623D01*
X140408003Y-112009500D01*
X140407646Y-111964448D01*
X140407237Y-111916061D01*
X140406779Y-111864929D01*
X140406325Y-111816863D01*
X140405832Y-111763895D01*
X140405395Y-111713234D01*
X140405017Y-111665462D01*
X140404702Y-111621158D01*
X140404452Y-111580904D01*
X140404270Y-111545278D01*
X140404160Y-111514862D01*
X140404124Y-111490237D01*
X140404165Y-111471981D01*
X140404287Y-111460677D01*
X140404472Y-111456915D01*
X140408744Y-111456179D01*
X140420111Y-111455507D01*
X140437601Y-111454923D01*
X140460243Y-111454449D01*
X140487067Y-111454106D01*
X140517101Y-111453919D01*
X140534884Y-111453890D01*
X140663702Y-111453890D01*
X140663702Y-112208066D01*
X140663702Y-112962242D01*
X140517357Y-112962242D01*
X140371012Y-112962242D01*
X140278824Y-112563981D01*
X140266017Y-112508711D01*
X140253702Y-112455675D01*
X140242003Y-112405401D01*
X140231043Y-112358414D01*
X140220946Y-112315240D01*
X140211835Y-112276406D01*
X140203834Y-112242437D01*
X140197067Y-112213861D01*
X140191658Y-112191202D01*
X140187729Y-112174987D01*
X140185404Y-112165743D01*
X140184800Y-112163703D01*
X140184572Y-112167359D01*
X140184411Y-112178542D01*
X140184315Y-112196715D01*
X140184282Y-112221338D01*
X140184311Y-112251874D01*
X140184401Y-112287784D01*
X140184549Y-112328529D01*
X140184754Y-112373573D01*
X140185016Y-112422375D01*
X140185331Y-112474399D01*
X140185699Y-112529105D01*
X140185937Y-112561964D01*
X140188909Y-112962242D01*
X140057284Y-112962242D01*
X139925659Y-112962242D01*
X139925659Y-112208066D01*
X139925659Y-111453890D01*
X140080499Y-111453890D01*
X140121871Y-111453947D01*
G37*
G36*
X138063409Y-111453914D02*
G01*
X138117751Y-111453964D01*
X138164746Y-111454129D01*
X138205109Y-111454448D01*
X138239559Y-111454962D01*
X138268812Y-111455710D01*
X138293586Y-111456732D01*
X138314599Y-111458069D01*
X138332567Y-111459760D01*
X138348209Y-111461845D01*
X138362241Y-111464364D01*
X138375380Y-111467356D01*
X138388345Y-111470863D01*
X138393109Y-111472259D01*
X138433301Y-111488138D01*
X138470056Y-111510428D01*
X138502313Y-111538247D01*
X138529016Y-111570711D01*
X138545795Y-111599698D01*
X138558203Y-111628172D01*
X138567316Y-111655919D01*
X138573993Y-111686002D01*
X138578425Y-111715931D01*
X138579092Y-111725461D01*
X138579703Y-111742413D01*
X138580259Y-111766143D01*
X138580760Y-111796007D01*
X138581205Y-111831362D01*
X138581595Y-111871563D01*
X138581929Y-111915967D01*
X138582208Y-111963929D01*
X138582431Y-112014807D01*
X138582599Y-112067956D01*
X138582711Y-112122731D01*
X138582768Y-112178491D01*
X138582770Y-112234589D01*
X138582716Y-112290383D01*
X138582606Y-112345229D01*
X138582442Y-112398483D01*
X138582221Y-112449501D01*
X138581945Y-112497639D01*
X138581614Y-112542253D01*
X138581228Y-112582700D01*
X138580786Y-112618335D01*
X138580288Y-112648515D01*
X138579735Y-112672596D01*
X138579127Y-112689933D01*
X138578463Y-112699884D01*
X138578425Y-112700201D01*
X138570030Y-112748675D01*
X138557457Y-112790897D01*
X138540332Y-112827730D01*
X138518279Y-112860036D01*
X138500408Y-112879730D01*
X138472000Y-112904287D01*
X138440827Y-112923863D01*
X138405083Y-112939452D01*
X138373906Y-112949200D01*
X138334630Y-112959867D01*
X138083574Y-112961303D01*
X137832518Y-112962738D01*
X137832518Y-112705272D01*
X138134963Y-112705272D01*
X138178334Y-112703190D01*
X138198874Y-112701689D01*
X138217263Y-112699403D01*
X138231173Y-112696660D01*
X138236009Y-112695101D01*
X138251041Y-112685669D01*
X138264492Y-112671866D01*
X138273675Y-112656623D01*
X138275144Y-112652397D01*
X138275550Y-112646979D01*
X138275941Y-112634031D01*
X138276312Y-112614088D01*
X138276659Y-112587686D01*
X138276980Y-112555359D01*
X138277270Y-112517644D01*
X138277526Y-112475077D01*
X138277744Y-112428192D01*
X138277921Y-112377525D01*
X138278053Y-112323611D01*
X138278136Y-112266987D01*
X138278167Y-112208188D01*
X138278167Y-112204033D01*
X138278161Y-112134911D01*
X138278136Y-112073398D01*
X138278087Y-112019038D01*
X138278005Y-111971372D01*
X138277885Y-111929946D01*
X138277718Y-111894300D01*
X138277499Y-111863980D01*
X138277219Y-111838527D01*
X138276873Y-111817485D01*
X138276452Y-111800397D01*
X138275951Y-111786807D01*
X138275361Y-111776256D01*
X138274676Y-111768289D01*
X138273889Y-111762448D01*
X138272993Y-111758277D01*
X138271981Y-111755318D01*
X138271254Y-111753823D01*
X138257842Y-111736179D01*
X138239418Y-111723569D01*
X138215474Y-111715797D01*
X138185506Y-111712663D01*
X138166730Y-111712826D01*
X138137011Y-111714020D01*
X138135987Y-112209646D01*
X138134963Y-112705272D01*
X137832518Y-112705272D01*
X137832518Y-112208314D01*
X137832518Y-111453890D01*
X138063409Y-111453914D01*
G37*
G36*
X135218022Y-111518067D02*
G01*
X135218820Y-111527709D01*
X135219117Y-111540921D01*
X135219117Y-111567456D01*
X135230208Y-111565329D01*
X135238651Y-111564263D01*
X135253014Y-111563005D01*
X135271159Y-111561727D01*
X135287678Y-111560765D01*
X135307344Y-111559600D01*
X135325015Y-111558314D01*
X135338553Y-111557076D01*
X135345149Y-111556202D01*
X135356240Y-111554075D01*
X135356240Y-111636420D01*
X135356240Y-111718765D01*
X135391529Y-111740762D01*
X135426818Y-111762760D01*
X135426762Y-111786786D01*
X135426535Y-111799193D01*
X135425946Y-111817620D01*
X135425070Y-111840034D01*
X135423986Y-111864402D01*
X135423332Y-111877831D01*
X135419957Y-111944849D01*
X135456660Y-111965852D01*
X135473139Y-111975458D01*
X135483791Y-111982372D01*
X135489877Y-111987755D01*
X135492658Y-111992766D01*
X135493395Y-111998566D01*
X135493407Y-111999660D01*
X135493288Y-112006667D01*
X135492930Y-112020692D01*
X135492364Y-112040690D01*
X135491620Y-112065619D01*
X135490730Y-112094432D01*
X135489724Y-112126088D01*
X135488961Y-112149587D01*
X135484471Y-112286710D01*
X135452592Y-112460130D01*
X135445871Y-112496584D01*
X135439551Y-112530655D01*
X135433788Y-112561509D01*
X135428741Y-112588312D01*
X135424567Y-112610231D01*
X135421423Y-112626431D01*
X135419468Y-112636079D01*
X135418906Y-112638450D01*
X135414639Y-112642509D01*
X135405009Y-112648770D01*
X135391947Y-112655999D01*
X135389454Y-112657270D01*
X135371251Y-112668107D01*
X135350980Y-112682860D01*
X135331752Y-112699263D01*
X135331594Y-112699410D01*
X135301378Y-112727628D01*
X135271674Y-112808638D01*
X135262789Y-112832515D01*
X135254691Y-112853604D01*
X135247824Y-112870805D01*
X135242630Y-112883019D01*
X135239554Y-112889145D01*
X135239044Y-112889648D01*
X135235779Y-112886549D01*
X135228743Y-112878017D01*
X135218833Y-112865197D01*
X135206946Y-112849233D01*
X135200950Y-112840997D01*
X135179771Y-112809994D01*
X135161509Y-112779157D01*
X135144154Y-112745005D01*
X135138604Y-112733114D01*
X135111426Y-112673881D01*
X135029634Y-112633506D01*
X135005812Y-112621657D01*
X134984298Y-112610788D01*
X134966196Y-112601468D01*
X134952606Y-112594269D01*
X134944630Y-112589760D01*
X134943114Y-112588714D01*
X134940531Y-112583808D01*
X134935772Y-112572357D01*
X134929254Y-112555455D01*
X134921390Y-112534196D01*
X134912595Y-112509674D01*
X134905689Y-112489949D01*
X134872991Y-112395602D01*
X134848436Y-112163122D01*
X134843953Y-112120609D01*
X134839735Y-112080457D01*
X134835855Y-112043390D01*
X134832389Y-112010131D01*
X134829412Y-111981402D01*
X134826999Y-111957926D01*
X134825225Y-111940427D01*
X134824165Y-111929628D01*
X134823880Y-111926272D01*
X134827319Y-111922942D01*
X134836675Y-111917133D01*
X134850506Y-111909673D01*
X134866851Y-111901633D01*
X134909822Y-111881364D01*
X134907529Y-111724079D01*
X134905236Y-111566794D01*
X134913963Y-111564800D01*
X134919636Y-111563743D01*
X134932024Y-111561585D01*
X134950057Y-111558504D01*
X134972662Y-111554678D01*
X134998769Y-111550286D01*
X135027307Y-111545506D01*
X135057203Y-111540517D01*
X135087387Y-111535496D01*
X135116787Y-111530622D01*
X135144333Y-111526074D01*
X135168952Y-111522029D01*
X135189574Y-111518666D01*
X135205127Y-111516162D01*
X135214540Y-111514698D01*
X135216898Y-111514386D01*
X135218022Y-111518067D01*
G37*
G36*
X136430033Y-111454840D02*
G01*
X136482205Y-111455125D01*
X136526967Y-111455397D01*
X136564974Y-111455680D01*
X136596883Y-111455996D01*
X136623349Y-111456369D01*
X136645028Y-111456821D01*
X136662575Y-111457377D01*
X136676647Y-111458059D01*
X136687899Y-111458891D01*
X136696986Y-111459895D01*
X136704566Y-111461096D01*
X136711293Y-111462516D01*
X136717823Y-111464178D01*
X136721419Y-111465163D01*
X136764540Y-111480326D01*
X136801225Y-111500210D01*
X136831699Y-111524987D01*
X136856186Y-111554830D01*
X136869929Y-111578914D01*
X136876024Y-111591504D01*
X136881184Y-111602689D01*
X136885492Y-111613249D01*
X136889031Y-111623967D01*
X136891882Y-111635623D01*
X136894129Y-111648999D01*
X136895855Y-111664877D01*
X136897141Y-111684038D01*
X136898071Y-111707263D01*
X136898727Y-111735334D01*
X136899192Y-111769033D01*
X136899547Y-111809140D01*
X136899877Y-111856437D01*
X136899919Y-111862664D01*
X136900222Y-111912975D01*
X136900360Y-111955970D01*
X136900274Y-111992399D01*
X136899905Y-112023013D01*
X136899192Y-112048560D01*
X136898078Y-112069790D01*
X136896502Y-112087454D01*
X136894404Y-112102301D01*
X136891726Y-112115081D01*
X136888408Y-112126543D01*
X136884391Y-112137437D01*
X136879615Y-112148514D01*
X136876780Y-112154663D01*
X136861808Y-112179929D01*
X136841920Y-112203760D01*
X136819333Y-112223780D01*
X136801857Y-112234916D01*
X136788056Y-112242820D01*
X136780840Y-112248562D01*
X136780545Y-112251811D01*
X136784185Y-112252429D01*
X136789879Y-112254098D01*
X136800269Y-112258423D01*
X136810398Y-112263166D01*
X136837008Y-112280255D01*
X136860628Y-112303298D01*
X136879204Y-112330237D01*
X136881286Y-112334205D01*
X136885674Y-112343139D01*
X136889483Y-112351766D01*
X136892754Y-112360704D01*
X136895527Y-112370568D01*
X136897845Y-112381975D01*
X136899747Y-112395540D01*
X136901274Y-112411880D01*
X136902468Y-112431611D01*
X136903369Y-112455349D01*
X136904019Y-112483711D01*
X136904457Y-112517313D01*
X136904726Y-112556770D01*
X136904865Y-112602700D01*
X136904916Y-112655718D01*
X136904922Y-112690368D01*
X136904922Y-112962242D01*
X136753683Y-112962242D01*
X136602445Y-112962242D01*
X136602422Y-112701104D01*
X136602351Y-112643217D01*
X136602150Y-112591521D01*
X136601824Y-112546274D01*
X136601376Y-112507738D01*
X136600810Y-112476173D01*
X136600131Y-112451839D01*
X136599341Y-112434996D01*
X136598446Y-112425906D01*
X136598250Y-112425025D01*
X136593965Y-112413131D01*
X136587900Y-112404612D01*
X136578781Y-112398933D01*
X136565331Y-112395559D01*
X136546276Y-112393956D01*
X136523257Y-112393585D01*
X136473388Y-112393585D01*
X136473388Y-112677914D01*
X136473388Y-112962242D01*
X136322150Y-112962242D01*
X136170911Y-112962242D01*
X136170911Y-112207849D01*
X136170911Y-111720070D01*
X136473388Y-111720070D01*
X136473388Y-111927771D01*
X136473388Y-112135472D01*
X136512710Y-112135449D01*
X136531701Y-112134997D01*
X136549421Y-112133805D01*
X136563117Y-112132090D01*
X136567366Y-112131169D01*
X136582865Y-112123166D01*
X136590541Y-112114051D01*
X136592437Y-112110595D01*
X136594001Y-112106522D01*
X136595265Y-112101068D01*
X136596260Y-112093472D01*
X136597019Y-112082972D01*
X136597573Y-112068805D01*
X136597955Y-112050210D01*
X136598196Y-112026425D01*
X136598329Y-111996687D01*
X136598385Y-111960235D01*
X136598397Y-111926952D01*
X136598329Y-111880400D01*
X136598108Y-111841447D01*
X136597721Y-111809626D01*
X136597158Y-111784470D01*
X136596405Y-111765514D01*
X136595451Y-111752291D01*
X136594283Y-111744336D01*
X136593594Y-111742139D01*
X136588124Y-111733408D01*
X136580096Y-111727221D01*
X136568237Y-111723197D01*
X136551272Y-111720953D01*
X136527927Y-111720108D01*
X136519968Y-111720070D01*
X136473388Y-111720070D01*
X136170911Y-111720070D01*
X136170911Y-111453456D01*
X136430033Y-111454840D01*
G37*
G36*
X137365877Y-111454862D02*
G01*
X137572030Y-111455907D01*
X137669840Y-112197984D01*
X137679928Y-112274567D01*
X137689730Y-112349086D01*
X137699194Y-112421141D01*
X137708269Y-112490331D01*
X137716902Y-112556254D01*
X137725042Y-112618511D01*
X137732635Y-112676700D01*
X137739630Y-112730420D01*
X137745975Y-112779271D01*
X137751618Y-112822852D01*
X137756506Y-112860762D01*
X137760587Y-112892601D01*
X137763810Y-112917967D01*
X137766121Y-112936460D01*
X137767470Y-112947679D01*
X137767820Y-112951151D01*
X137767990Y-112962242D01*
X137619122Y-112962242D01*
X137470255Y-112962242D01*
X137467919Y-112947118D01*
X137466776Y-112938405D01*
X137464994Y-112923211D01*
X137462744Y-112903082D01*
X137460200Y-112879561D01*
X137457534Y-112854195D01*
X137457447Y-112853350D01*
X137454779Y-112827950D01*
X137452229Y-112804344D01*
X137449967Y-112784080D01*
X137448166Y-112768700D01*
X137446999Y-112759749D01*
X137446974Y-112759583D01*
X137444638Y-112744459D01*
X137350217Y-112744459D01*
X137320177Y-112744498D01*
X137297251Y-112744662D01*
X137280488Y-112745022D01*
X137268937Y-112745650D01*
X137261645Y-112746617D01*
X137257663Y-112747993D01*
X137256037Y-112749850D01*
X137255792Y-112751516D01*
X137255394Y-112757366D01*
X137254278Y-112770051D01*
X137252557Y-112788383D01*
X137250344Y-112811176D01*
X137247752Y-112837242D01*
X137245713Y-112857383D01*
X137242930Y-112884793D01*
X137240441Y-112909527D01*
X137238358Y-112930459D01*
X137236792Y-112946463D01*
X137235856Y-112956411D01*
X137235633Y-112959217D01*
X137231754Y-112959930D01*
X137220733Y-112960582D01*
X137203494Y-112961155D01*
X137180964Y-112961627D01*
X137154065Y-112961979D01*
X137123722Y-112962189D01*
X137098049Y-112962242D01*
X136960468Y-112962242D01*
X136962918Y-112945102D01*
X136963694Y-112939355D01*
X136965464Y-112926022D01*
X136968176Y-112905514D01*
X136971774Y-112878242D01*
X136976205Y-112844617D01*
X136981416Y-112805050D01*
X136987351Y-112759952D01*
X136993956Y-112709735D01*
X137001179Y-112654810D01*
X137008963Y-112595587D01*
X137017257Y-112532479D01*
X137024965Y-112473807D01*
X137285233Y-112473807D01*
X137287126Y-112475674D01*
X137292143Y-112476937D01*
X137301369Y-112477712D01*
X137315890Y-112478116D01*
X137336793Y-112478264D01*
X137351441Y-112478279D01*
X137419399Y-112478279D01*
X137386498Y-112164711D01*
X137381281Y-112115040D01*
X137376280Y-112067539D01*
X137371564Y-112022840D01*
X137367199Y-111981578D01*
X137363253Y-111944387D01*
X137359793Y-111911900D01*
X137356887Y-111884751D01*
X137354602Y-111863573D01*
X137353006Y-111849001D01*
X137352165Y-111841667D01*
X137352084Y-111841061D01*
X137351460Y-111843371D01*
X137350109Y-111853130D01*
X137348095Y-111869756D01*
X137345482Y-111892672D01*
X137342330Y-111921296D01*
X137338704Y-111955049D01*
X137334666Y-111993353D01*
X137330278Y-112035626D01*
X137325604Y-112081290D01*
X137320705Y-112129765D01*
X137318921Y-112147571D01*
X137313924Y-112197406D01*
X137309123Y-112245006D01*
X137304582Y-112289747D01*
X137300365Y-112331006D01*
X137296538Y-112368159D01*
X137293164Y-112400585D01*
X137290309Y-112427659D01*
X137288037Y-112448759D01*
X137286413Y-112463262D01*
X137285500Y-112470544D01*
X137285377Y-112471221D01*
X137285233Y-112473807D01*
X137024965Y-112473807D01*
X137026004Y-112465895D01*
X137035152Y-112396248D01*
X137044647Y-112323949D01*
X137054433Y-112249408D01*
X137060124Y-112206050D01*
X137070050Y-112130448D01*
X137079714Y-112056873D01*
X137089063Y-111985733D01*
X137098042Y-111917440D01*
X137106598Y-111852403D01*
X137114676Y-111791030D01*
X137122223Y-111733733D01*
X137129185Y-111680920D01*
X137135507Y-111633001D01*
X137141135Y-111590386D01*
X137146016Y-111553485D01*
X137150095Y-111522707D01*
X137153318Y-111498462D01*
X137155632Y-111481160D01*
X137156983Y-111471210D01*
X137157302Y-111468978D01*
X137159724Y-111453817D01*
X137365877Y-111454862D01*
G37*
G36*
X139763862Y-112201008D02*
G01*
X139773939Y-112277793D01*
X139783750Y-112352476D01*
X139793243Y-112424660D01*
X139802366Y-112493948D01*
X139811066Y-112559945D01*
X139819290Y-112622254D01*
X139826985Y-112680477D01*
X139834100Y-112734218D01*
X139840581Y-112783082D01*
X139846377Y-112826670D01*
X139851433Y-112864586D01*
X139855699Y-112896434D01*
X139859121Y-112921817D01*
X139861648Y-112940339D01*
X139863225Y-112951602D01*
X139863784Y-112955184D01*
X139863875Y-112957000D01*
X139862566Y-112958476D01*
X139859111Y-112959646D01*
X139852766Y-112960546D01*
X139842788Y-112961212D01*
X139828433Y-112961677D01*
X139808955Y-112961978D01*
X139783612Y-112962149D01*
X139751660Y-112962225D01*
X139714197Y-112962242D01*
X139680136Y-112962167D01*
X139648749Y-112961954D01*
X139620916Y-112961618D01*
X139597518Y-112961179D01*
X139579437Y-112960651D01*
X139567552Y-112960053D01*
X139562746Y-112959401D01*
X139562686Y-112959319D01*
X139562256Y-112953561D01*
X139561066Y-112941159D01*
X139559266Y-112923484D01*
X139557003Y-112901906D01*
X139554428Y-112877797D01*
X139551690Y-112852528D01*
X139548937Y-112827468D01*
X139546320Y-112803989D01*
X139543988Y-112783461D01*
X139542089Y-112767256D01*
X139540772Y-112756744D01*
X139540284Y-112753533D01*
X139538334Y-112744459D01*
X139444417Y-112744459D01*
X139350500Y-112744459D01*
X139341465Y-112842260D01*
X139338847Y-112870110D01*
X139336347Y-112895802D01*
X139334093Y-112918076D01*
X139332216Y-112935670D01*
X139330845Y-112947324D01*
X139330280Y-112951151D01*
X139328130Y-112962242D01*
X139190879Y-112962242D01*
X139053627Y-112962242D01*
X139055966Y-112949135D01*
X139056724Y-112943852D01*
X139058460Y-112931108D01*
X139061109Y-112911383D01*
X139064610Y-112885156D01*
X139068899Y-112852911D01*
X139073912Y-112815126D01*
X139079587Y-112772283D01*
X139085860Y-112724862D01*
X139092668Y-112673345D01*
X139099947Y-112618211D01*
X139107635Y-112559942D01*
X139115668Y-112499019D01*
X139118401Y-112478279D01*
X139381200Y-112478279D01*
X139447928Y-112478279D01*
X139514655Y-112478279D01*
X139512457Y-112465172D01*
X139511695Y-112459094D01*
X139510183Y-112445653D01*
X139507993Y-112425513D01*
X139505193Y-112399336D01*
X139501855Y-112367783D01*
X139498046Y-112331518D01*
X139493838Y-112291202D01*
X139489300Y-112247497D01*
X139484502Y-112201067D01*
X139479828Y-112155637D01*
X139474852Y-112107345D01*
X139470064Y-112061229D01*
X139465534Y-112017942D01*
X139461332Y-111978138D01*
X139457529Y-111942470D01*
X139454195Y-111911592D01*
X139451399Y-111886157D01*
X139449212Y-111866820D01*
X139447703Y-111854234D01*
X139446963Y-111849127D01*
X139446265Y-111851758D01*
X139444832Y-111861683D01*
X139442742Y-111878171D01*
X139440072Y-111900492D01*
X139436901Y-111927915D01*
X139433305Y-111959708D01*
X139429363Y-111995141D01*
X139425153Y-112033484D01*
X139420753Y-112074004D01*
X139416239Y-112115973D01*
X139411691Y-112158658D01*
X139407185Y-112201328D01*
X139402801Y-112243254D01*
X139398614Y-112283704D01*
X139394704Y-112321948D01*
X139391148Y-112357253D01*
X139388024Y-112388891D01*
X139385410Y-112416129D01*
X139383383Y-112438238D01*
X139382021Y-112454485D01*
X139381403Y-112464141D01*
X139381376Y-112465172D01*
X139381200Y-112478279D01*
X139118401Y-112478279D01*
X139123983Y-112435921D01*
X139132517Y-112371131D01*
X139141206Y-112305128D01*
X139149988Y-112238393D01*
X139158799Y-112171407D01*
X139167575Y-112104651D01*
X139176255Y-112038606D01*
X139184773Y-111973752D01*
X139193068Y-111910569D01*
X139201076Y-111849540D01*
X139208733Y-111791143D01*
X139215977Y-111735861D01*
X139222744Y-111684174D01*
X139228971Y-111636562D01*
X139234595Y-111593507D01*
X139239553Y-111555489D01*
X139243781Y-111522988D01*
X139247215Y-111496486D01*
X139249794Y-111476464D01*
X139251454Y-111463401D01*
X139252130Y-111457779D01*
X139252143Y-111457604D01*
X139256087Y-111456797D01*
X139267561Y-111456069D01*
X139286032Y-111455429D01*
X139310963Y-111454887D01*
X139341819Y-111454453D01*
X139378067Y-111454136D01*
X139419170Y-111453945D01*
X139459003Y-111453890D01*
X139665863Y-111453890D01*
X139763862Y-112201008D01*
G37*
G36*
X145524507Y-111454960D02*
G01*
X145579635Y-111455275D01*
X145627360Y-111455599D01*
X145668344Y-111455991D01*
X145703252Y-111456508D01*
X145732745Y-111457211D01*
X145757487Y-111458159D01*
X145778141Y-111459411D01*
X145795370Y-111461025D01*
X145809836Y-111463061D01*
X145822203Y-111465578D01*
X145833133Y-111468636D01*
X145843290Y-111472293D01*
X145853337Y-111476608D01*
X145863935Y-111481641D01*
X145872843Y-111486019D01*
X145906615Y-111506817D01*
X145935206Y-111533458D01*
X145958778Y-111566158D01*
X145977498Y-111605132D01*
X145988117Y-111637393D01*
X145990137Y-111644932D01*
X145991828Y-111652205D01*
X145993220Y-111659982D01*
X145994343Y-111669031D01*
X145995226Y-111680121D01*
X145995901Y-111694021D01*
X145996395Y-111711500D01*
X145996740Y-111733326D01*
X145996965Y-111760267D01*
X145997100Y-111793094D01*
X145997176Y-111832574D01*
X145997214Y-111871308D01*
X145997229Y-111917638D01*
X145997174Y-111956666D01*
X145997027Y-111989159D01*
X145996764Y-112015882D01*
X145996362Y-112037599D01*
X145995796Y-112055075D01*
X145995045Y-112069077D01*
X145994083Y-112080368D01*
X145992889Y-112089715D01*
X145991438Y-112097882D01*
X145990084Y-112104047D01*
X145978328Y-112140942D01*
X145961616Y-112173953D01*
X145940683Y-112202054D01*
X145916261Y-112224220D01*
X145895131Y-112236790D01*
X145883935Y-112242476D01*
X145876446Y-112247103D01*
X145874538Y-112249084D01*
X145877876Y-112251743D01*
X145886147Y-112254374D01*
X145886275Y-112254403D01*
X145898665Y-112259105D01*
X145914382Y-112267771D01*
X145930949Y-112278764D01*
X145945889Y-112290447D01*
X145956325Y-112300700D01*
X145965015Y-112312573D01*
X145974020Y-112327187D01*
X145977467Y-112333588D01*
X145981524Y-112341747D01*
X145985044Y-112349507D01*
X145988066Y-112357481D01*
X145990626Y-112366279D01*
X145992765Y-112376512D01*
X145994519Y-112388792D01*
X145995928Y-112403729D01*
X145997029Y-112421936D01*
X145997861Y-112444022D01*
X145998461Y-112470599D01*
X145998869Y-112502279D01*
X145999123Y-112539673D01*
X145999260Y-112583391D01*
X145999319Y-112634045D01*
X145999337Y-112682955D01*
X145999396Y-112962242D01*
X145848241Y-112962242D01*
X145697085Y-112962242D01*
X145695994Y-112689681D01*
X145694903Y-112417119D01*
X145681732Y-112405352D01*
X145676013Y-112400471D01*
X145670672Y-112397169D01*
X145664041Y-112395139D01*
X145654452Y-112394071D01*
X145640236Y-112393656D01*
X145619726Y-112393585D01*
X145618212Y-112393585D01*
X145567863Y-112393585D01*
X145567863Y-112677914D01*
X145567863Y-112962242D01*
X145416624Y-112962242D01*
X145265386Y-112962242D01*
X145265386Y-112207874D01*
X145265386Y-111720070D01*
X145567863Y-111720070D01*
X145567863Y-111925082D01*
X145567914Y-111965002D01*
X145568061Y-112002459D01*
X145568295Y-112036683D01*
X145568605Y-112066904D01*
X145568981Y-112092351D01*
X145569413Y-112112253D01*
X145569892Y-112125840D01*
X145570406Y-112132341D01*
X145570551Y-112132783D01*
X145576117Y-112134307D01*
X145587650Y-112135129D01*
X145603091Y-112135305D01*
X145620375Y-112134892D01*
X145637442Y-112133947D01*
X145652230Y-112132527D01*
X145662676Y-112130689D01*
X145664277Y-112130203D01*
X145676395Y-112123508D01*
X145686384Y-112114110D01*
X145686459Y-112114009D01*
X145688592Y-112110876D01*
X145690342Y-112107253D01*
X145691753Y-112102341D01*
X145692872Y-112095340D01*
X145693745Y-112085453D01*
X145694418Y-112071878D01*
X145694937Y-112053818D01*
X145695347Y-112030473D01*
X145695694Y-112001044D01*
X145696025Y-111964732D01*
X145696191Y-111944622D01*
X145696523Y-111899564D01*
X145696684Y-111861843D01*
X145696623Y-111830733D01*
X145696286Y-111805506D01*
X145695620Y-111785435D01*
X145694573Y-111769793D01*
X145693092Y-111757852D01*
X145691124Y-111748885D01*
X145688617Y-111742164D01*
X145685516Y-111736962D01*
X145681771Y-111732553D01*
X145680722Y-111731483D01*
X145675748Y-111726763D01*
X145670913Y-111723566D01*
X145664601Y-111721594D01*
X145655202Y-111720551D01*
X145641100Y-111720142D01*
X145620684Y-111720070D01*
X145618586Y-111720070D01*
X145567863Y-111720070D01*
X145265386Y-111720070D01*
X145265386Y-111453505D01*
X145524507Y-111454960D01*
G37*
G36*
X144831980Y-111443823D02*
G01*
X144865278Y-111443897D01*
X144892287Y-111444072D01*
X144913898Y-111444391D01*
X144930999Y-111444895D01*
X144944479Y-111445628D01*
X144955227Y-111446631D01*
X144964131Y-111447947D01*
X144972082Y-111449619D01*
X144979968Y-111451689D01*
X144984602Y-111453012D01*
X145019849Y-111465006D01*
X145049020Y-111479100D01*
X145074030Y-111496288D01*
X145083353Y-111504303D01*
X145109193Y-111532104D01*
X145129566Y-111563754D01*
X145144824Y-111600061D01*
X145155323Y-111641835D01*
X145160625Y-111680694D01*
X145161642Y-111696169D01*
X145162490Y-111718746D01*
X145163153Y-111747461D01*
X145163620Y-111781349D01*
X145163875Y-111819448D01*
X145163906Y-111860795D01*
X145163733Y-111899540D01*
X145162543Y-112072960D01*
X145013321Y-112072960D01*
X144864099Y-112072960D01*
X144862083Y-111899147D01*
X144861586Y-111855973D01*
X144861122Y-111820138D01*
X144860588Y-111790916D01*
X144859883Y-111767581D01*
X144858905Y-111749407D01*
X144857553Y-111735668D01*
X144855726Y-111725638D01*
X144853322Y-111718590D01*
X144850239Y-111713800D01*
X144846377Y-111710540D01*
X144841632Y-111708086D01*
X144835905Y-111705710D01*
X144834990Y-111705330D01*
X144821354Y-111701929D01*
X144803003Y-111700269D01*
X144783097Y-111700343D01*
X144764795Y-111702144D01*
X144751572Y-111705528D01*
X144747604Y-111706978D01*
X144744049Y-111708115D01*
X144740884Y-111709367D01*
X144738088Y-111711160D01*
X144735637Y-111713923D01*
X144733508Y-111718082D01*
X144731680Y-111724063D01*
X144730130Y-111732295D01*
X144728834Y-111743203D01*
X144727772Y-111757216D01*
X144726918Y-111774759D01*
X144726253Y-111796261D01*
X144725751Y-111822147D01*
X144725392Y-111852845D01*
X144725153Y-111888783D01*
X144725010Y-111930386D01*
X144724941Y-111978082D01*
X144724924Y-112032299D01*
X144724936Y-112093462D01*
X144724955Y-112162000D01*
X144724960Y-112208420D01*
X144724962Y-112280551D01*
X144724971Y-112345053D01*
X144724996Y-112402363D01*
X144725044Y-112452918D01*
X144725121Y-112497155D01*
X144725237Y-112535511D01*
X144725397Y-112568423D01*
X144725610Y-112596327D01*
X144725882Y-112619662D01*
X144726222Y-112638864D01*
X144726636Y-112654369D01*
X144727133Y-112666616D01*
X144727718Y-112676040D01*
X144728401Y-112683080D01*
X144729187Y-112688171D01*
X144730086Y-112691751D01*
X144731103Y-112694258D01*
X144732247Y-112696127D01*
X144733242Y-112697438D01*
X144744841Y-112707236D01*
X144761714Y-112713309D01*
X144784655Y-112715859D01*
X144804736Y-112715657D01*
X144827903Y-112713280D01*
X144844583Y-112708124D01*
X144856084Y-112699491D01*
X144863712Y-112686685D01*
X144864880Y-112683586D01*
X144866144Y-112677147D01*
X144867207Y-112665364D01*
X144868079Y-112647824D01*
X144868770Y-112624110D01*
X144869291Y-112593808D01*
X144869652Y-112556503D01*
X144869864Y-112511781D01*
X144869921Y-112483320D01*
X144870149Y-112296793D01*
X145019371Y-112296793D01*
X145168593Y-112296793D01*
X145168560Y-112501469D01*
X145168473Y-112542751D01*
X145168237Y-112582709D01*
X145167867Y-112620394D01*
X145167380Y-112654859D01*
X145166792Y-112685156D01*
X145166118Y-112710337D01*
X145165375Y-112729455D01*
X145164579Y-112741561D01*
X145164486Y-112742442D01*
X145156249Y-112790785D01*
X145142904Y-112833000D01*
X145124313Y-112869312D01*
X145100337Y-112899948D01*
X145070837Y-112925134D01*
X145041553Y-112942309D01*
X145026986Y-112949366D01*
X145014105Y-112955195D01*
X145001960Y-112959920D01*
X144989600Y-112963662D01*
X144976072Y-112966546D01*
X144960428Y-112968692D01*
X144941714Y-112970224D01*
X144918981Y-112971264D01*
X144891277Y-112971936D01*
X144857652Y-112972361D01*
X144817154Y-112972663D01*
X144805621Y-112972734D01*
X144770046Y-112972853D01*
X144736205Y-112972778D01*
X144705137Y-112972524D01*
X144677880Y-112972108D01*
X144655472Y-112971546D01*
X144638951Y-112970854D01*
X144629356Y-112970049D01*
X144628828Y-112969965D01*
X144582842Y-112958695D01*
X144542608Y-112941782D01*
X144508109Y-112919209D01*
X144479330Y-112890957D01*
X144456255Y-112857009D01*
X144438867Y-112817347D01*
X144427151Y-112771952D01*
X144422673Y-112740391D01*
X144422071Y-112730372D01*
X144421516Y-112712910D01*
X144421008Y-112688627D01*
X144420547Y-112658145D01*
X144420133Y-112622087D01*
X144419766Y-112581076D01*
X144419447Y-112535733D01*
X144419175Y-112486681D01*
X144418950Y-112434543D01*
X144418774Y-112379941D01*
X144418645Y-112323498D01*
X144418563Y-112265835D01*
X144418530Y-112207576D01*
X144418546Y-112149343D01*
X144418609Y-112091758D01*
X144418721Y-112035443D01*
X144418881Y-111981022D01*
X144419090Y-111929117D01*
X144419348Y-111880349D01*
X144419655Y-111835342D01*
X144420011Y-111794718D01*
X144420416Y-111759099D01*
X144420870Y-111729108D01*
X144421374Y-111705368D01*
X144421927Y-111688500D01*
X144422464Y-111679740D01*
X144428509Y-111636780D01*
X144437759Y-111600066D01*
X144450756Y-111568233D01*
X144468042Y-111539911D01*
X144486971Y-111517088D01*
X144505031Y-111499465D01*
X144523068Y-111486070D01*
X144544923Y-111474052D01*
X144545003Y-111474013D01*
X144559703Y-111466904D01*
X144572774Y-111461008D01*
X144585143Y-111456212D01*
X144597733Y-111452401D01*
X144611472Y-111449463D01*
X144627284Y-111447285D01*
X144646095Y-111445752D01*
X144668830Y-111444752D01*
X144696414Y-111444171D01*
X144729774Y-111443896D01*
X144769834Y-111443813D01*
X144791505Y-111443808D01*
X144831980Y-111443823D01*
G37*
G36*
X146419385Y-111442193D02*
G01*
X146453496Y-111442441D01*
X146487385Y-111442760D01*
X146527358Y-111443183D01*
X146560183Y-111443614D01*
X146586775Y-111444103D01*
X146608053Y-111444701D01*
X146624934Y-111445458D01*
X146638334Y-111446424D01*
X146649171Y-111447650D01*
X146658362Y-111449187D01*
X146666825Y-111451084D01*
X146674178Y-111453031D01*
X146716447Y-111468281D01*
X146752831Y-111489021D01*
X146783390Y-111515317D01*
X146808184Y-111547236D01*
X146827274Y-111584843D01*
X146840721Y-111628205D01*
X146842513Y-111636461D01*
X146843654Y-111642225D01*
X146844681Y-111648052D01*
X146845598Y-111654372D01*
X146846411Y-111661617D01*
X146847124Y-111670216D01*
X146847743Y-111680599D01*
X146848273Y-111693196D01*
X146848718Y-111708438D01*
X146849085Y-111726755D01*
X146849378Y-111748577D01*
X146849602Y-111774335D01*
X146849762Y-111804457D01*
X146849864Y-111839375D01*
X146849912Y-111879519D01*
X146849911Y-111925319D01*
X146849867Y-111977205D01*
X146849785Y-112035607D01*
X146849670Y-112100955D01*
X146849526Y-112173681D01*
X146849428Y-112221247D01*
X146848296Y-112766640D01*
X146839347Y-112798154D01*
X146823782Y-112840591D01*
X146802836Y-112877048D01*
X146776413Y-112907617D01*
X146744413Y-112932388D01*
X146706737Y-112951451D01*
X146663288Y-112964896D01*
X146655651Y-112966562D01*
X146644837Y-112968627D01*
X146633848Y-112970287D01*
X146621683Y-112971580D01*
X146607339Y-112972547D01*
X146589816Y-112973229D01*
X146568110Y-112973666D01*
X146541221Y-112973899D01*
X146508146Y-112973969D01*
X146473277Y-112973926D01*
X146428442Y-112973717D01*
X146391016Y-112973282D01*
X146360347Y-112972600D01*
X146335781Y-112971649D01*
X146316663Y-112970406D01*
X146302340Y-112968850D01*
X146297283Y-112968042D01*
X146252504Y-112956717D01*
X146213584Y-112939902D01*
X146180289Y-112917390D01*
X146152383Y-112888972D01*
X146129631Y-112854442D01*
X146111796Y-112813592D01*
X146107620Y-112800892D01*
X146098316Y-112770673D01*
X146097412Y-112344358D01*
X146398666Y-112344358D01*
X146398683Y-112402922D01*
X146398744Y-112454704D01*
X146398870Y-112500130D01*
X146399084Y-112539630D01*
X146399406Y-112573631D01*
X146399856Y-112602560D01*
X146400458Y-112626846D01*
X146401231Y-112646916D01*
X146402197Y-112663198D01*
X146403377Y-112676120D01*
X146404793Y-112686110D01*
X146406465Y-112693596D01*
X146408415Y-112699005D01*
X146410664Y-112702765D01*
X146413233Y-112705304D01*
X146416143Y-112707051D01*
X146419416Y-112708431D01*
X146423073Y-112709875D01*
X146423721Y-112710151D01*
X146435819Y-112713261D01*
X146453217Y-112715140D01*
X146473239Y-112715766D01*
X146493211Y-112715116D01*
X146510458Y-112713167D01*
X146519657Y-112710959D01*
X146533563Y-112702424D01*
X146540824Y-112692029D01*
X146541901Y-112689499D01*
X146542863Y-112686163D01*
X146543716Y-112681579D01*
X146544467Y-112675304D01*
X146545123Y-112666895D01*
X146545689Y-112655910D01*
X146546172Y-112641905D01*
X146546580Y-112624438D01*
X146546917Y-112603067D01*
X146547191Y-112577348D01*
X146547409Y-112546838D01*
X146547575Y-112511095D01*
X146547698Y-112469676D01*
X146547784Y-112422139D01*
X146547838Y-112368039D01*
X146547868Y-112306936D01*
X146547880Y-112238385D01*
X146547882Y-112208945D01*
X146547890Y-112135662D01*
X146547897Y-112070017D01*
X146547882Y-112011582D01*
X146547821Y-111959927D01*
X146547694Y-111914625D01*
X146547478Y-111875247D01*
X146547151Y-111841366D01*
X146546691Y-111812551D01*
X146546075Y-111788376D01*
X146545282Y-111768412D01*
X146544290Y-111752231D01*
X146543076Y-111739403D01*
X146541619Y-111729502D01*
X146539896Y-111722098D01*
X146537885Y-111716763D01*
X146535565Y-111713069D01*
X146532912Y-111710588D01*
X146529906Y-111708890D01*
X146526524Y-111707549D01*
X146522744Y-111706134D01*
X146521948Y-111705809D01*
X146508951Y-111702510D01*
X146490781Y-111700568D01*
X146470226Y-111700031D01*
X146450073Y-111700948D01*
X146433109Y-111703368D01*
X146429712Y-111704208D01*
X146414213Y-111712210D01*
X146406537Y-111721326D01*
X146405346Y-111723457D01*
X146404281Y-111726019D01*
X146403337Y-111729456D01*
X146402505Y-111734210D01*
X146401779Y-111740724D01*
X146401152Y-111749441D01*
X146400615Y-111760803D01*
X146400163Y-111775253D01*
X146399788Y-111793234D01*
X146399482Y-111815189D01*
X146399239Y-111841560D01*
X146399051Y-111872790D01*
X146398911Y-111909322D01*
X146398812Y-111951598D01*
X146398747Y-112000061D01*
X146398708Y-112055155D01*
X146398689Y-112117321D01*
X146398682Y-112187003D01*
X146398681Y-112205171D01*
X146398672Y-112278584D01*
X146398666Y-112344358D01*
X146097412Y-112344358D01*
X146097155Y-112223262D01*
X146096993Y-112145735D01*
X146096856Y-112075845D01*
X146096750Y-112013162D01*
X146096680Y-111957258D01*
X146096649Y-111907702D01*
X146096665Y-111864066D01*
X146096731Y-111825921D01*
X146096852Y-111792837D01*
X146097034Y-111764384D01*
X146097282Y-111740134D01*
X146097600Y-111719658D01*
X146097994Y-111702525D01*
X146098469Y-111688308D01*
X146099029Y-111676575D01*
X146099681Y-111666899D01*
X146100428Y-111658851D01*
X146101276Y-111651999D01*
X146102230Y-111645916D01*
X146103295Y-111640173D01*
X146104041Y-111636460D01*
X146116424Y-111592100D01*
X146134295Y-111553634D01*
X146157755Y-111520964D01*
X146186901Y-111493991D01*
X146221832Y-111472618D01*
X146262647Y-111456746D01*
X146291787Y-111449453D01*
X146302639Y-111447338D01*
X146313014Y-111445634D01*
X146323877Y-111444309D01*
X146336197Y-111443328D01*
X146350940Y-111442659D01*
X146369075Y-111442269D01*
X146391567Y-111442125D01*
X146419385Y-111442193D01*
G37*
G36*
X135553858Y-111199172D02*
G01*
X135601456Y-111218003D01*
X135644025Y-111243074D01*
X135681283Y-111274103D01*
X135712952Y-111310811D01*
X135738750Y-111352916D01*
X135758397Y-111400138D01*
X135760172Y-111405636D01*
X135769625Y-111435742D01*
X135769625Y-112204033D01*
X135769625Y-112972325D01*
X135760180Y-113002572D01*
X135741374Y-113050191D01*
X135716367Y-113092690D01*
X135685319Y-113129906D01*
X135648391Y-113161676D01*
X135605745Y-113187840D01*
X135557541Y-113208232D01*
X135555875Y-113208799D01*
X135527643Y-113218334D01*
X135172737Y-113219088D01*
X135108339Y-113219203D01*
X135051530Y-113219253D01*
X135001832Y-113219234D01*
X134958769Y-113219138D01*
X134921863Y-113218960D01*
X134890638Y-113218694D01*
X134864615Y-113218335D01*
X134843319Y-113217875D01*
X134826271Y-113217310D01*
X134812996Y-113216634D01*
X134803015Y-113215840D01*
X134795851Y-113214923D01*
X134793089Y-113214397D01*
X134746460Y-113200366D01*
X134703861Y-113179540D01*
X134664657Y-113151568D01*
X134642656Y-113131367D01*
X134616146Y-113102021D01*
X134595451Y-113072196D01*
X134578670Y-113039056D01*
X134575150Y-113030630D01*
X134572575Y-113024374D01*
X134570212Y-113018661D01*
X134568054Y-113013135D01*
X134566090Y-113007445D01*
X134564312Y-113001235D01*
X134562712Y-112994153D01*
X134561281Y-112985844D01*
X134560011Y-112975955D01*
X134558892Y-112964132D01*
X134557916Y-112950022D01*
X134557075Y-112933270D01*
X134556359Y-112913524D01*
X134555761Y-112890429D01*
X134555271Y-112863632D01*
X134554881Y-112832778D01*
X134554582Y-112797515D01*
X134554366Y-112757489D01*
X134554223Y-112712346D01*
X134554146Y-112661732D01*
X134554125Y-112605293D01*
X134554153Y-112542676D01*
X134554219Y-112473528D01*
X134554316Y-112397494D01*
X134554435Y-112314220D01*
X134554568Y-112223354D01*
X134554593Y-112205592D01*
X134658586Y-112205592D01*
X134658588Y-112297458D01*
X134658587Y-112381616D01*
X134658593Y-112458421D01*
X134658618Y-112528231D01*
X134658672Y-112591403D01*
X134658767Y-112648294D01*
X134658914Y-112699260D01*
X134659123Y-112744659D01*
X134659406Y-112784847D01*
X134659774Y-112820182D01*
X134660238Y-112851020D01*
X134660809Y-112877719D01*
X134661497Y-112900635D01*
X134662315Y-112920126D01*
X134663272Y-112936548D01*
X134664381Y-112950258D01*
X134665652Y-112961613D01*
X134667096Y-112970970D01*
X134668724Y-112978687D01*
X134670547Y-112985119D01*
X134672577Y-112990625D01*
X134674824Y-112995560D01*
X134677300Y-113000282D01*
X134680015Y-113005148D01*
X134682981Y-113010515D01*
X134683528Y-113011536D01*
X134702005Y-113038906D01*
X134726271Y-113063924D01*
X134754488Y-113085204D01*
X134784815Y-113101363D01*
X134815415Y-113111017D01*
X134815814Y-113111095D01*
X134822621Y-113111648D01*
X134836849Y-113112183D01*
X134857853Y-113112693D01*
X134884987Y-113113172D01*
X134917606Y-113113611D01*
X134955066Y-113114004D01*
X134996720Y-113114343D01*
X135041924Y-113114621D01*
X135090033Y-113114831D01*
X135140401Y-113114965D01*
X135160638Y-113114996D01*
X135221078Y-113115049D01*
X135273991Y-113115051D01*
X135319916Y-113114994D01*
X135359391Y-113114869D01*
X135392956Y-113114667D01*
X135421148Y-113114380D01*
X135444507Y-113113999D01*
X135463572Y-113113514D01*
X135478881Y-113112918D01*
X135490974Y-113112202D01*
X135500388Y-113111357D01*
X135507662Y-113110373D01*
X135513152Y-113109287D01*
X135548831Y-113096957D01*
X135581484Y-113078014D01*
X135610144Y-113053462D01*
X135633840Y-113024304D01*
X135651603Y-112991540D01*
X135662461Y-112956175D01*
X135662755Y-112954634D01*
X135663300Y-112947579D01*
X135663808Y-112932583D01*
X135664277Y-112909770D01*
X135664708Y-112879264D01*
X135665098Y-112841190D01*
X135665449Y-112795672D01*
X135665758Y-112742834D01*
X135666026Y-112682802D01*
X135666251Y-112615699D01*
X135666433Y-112541650D01*
X135666572Y-112460780D01*
X135666667Y-112373212D01*
X135666716Y-112279071D01*
X135666723Y-112202474D01*
X135666721Y-112110608D01*
X135666722Y-112026451D01*
X135666716Y-111949645D01*
X135666691Y-111879835D01*
X135666637Y-111816663D01*
X135666542Y-111759773D01*
X135666395Y-111708807D01*
X135666186Y-111663408D01*
X135665903Y-111623219D01*
X135665535Y-111587884D01*
X135665071Y-111557046D01*
X135664500Y-111530347D01*
X135663812Y-111507431D01*
X135662994Y-111487940D01*
X135662037Y-111471519D01*
X135660928Y-111457809D01*
X135659657Y-111446453D01*
X135658213Y-111437096D01*
X135656585Y-111429380D01*
X135654762Y-111422947D01*
X135652732Y-111417442D01*
X135650485Y-111412506D01*
X135648009Y-111407784D01*
X135645294Y-111402918D01*
X135642328Y-111397551D01*
X135641781Y-111396530D01*
X135622229Y-111367699D01*
X135596646Y-111341921D01*
X135566785Y-111320487D01*
X135534401Y-111304687D01*
X135505920Y-111296597D01*
X135497719Y-111295845D01*
X135481844Y-111295160D01*
X135458687Y-111294547D01*
X135428638Y-111294010D01*
X135392090Y-111293555D01*
X135349434Y-111293185D01*
X135301061Y-111292905D01*
X135247363Y-111292720D01*
X135188732Y-111292634D01*
X135161096Y-111292629D01*
X135099822Y-111292643D01*
X135046052Y-111292685D01*
X134999220Y-111292790D01*
X134958765Y-111292994D01*
X134924122Y-111293331D01*
X134894728Y-111293837D01*
X134870020Y-111294547D01*
X134849434Y-111295496D01*
X134832408Y-111296720D01*
X134818377Y-111298254D01*
X134806778Y-111300133D01*
X134797048Y-111302392D01*
X134788624Y-111305067D01*
X134780942Y-111308193D01*
X134773438Y-111311805D01*
X134765550Y-111315938D01*
X134762487Y-111317571D01*
X134733656Y-111337123D01*
X134707878Y-111362706D01*
X134686444Y-111392567D01*
X134670644Y-111424951D01*
X134662554Y-111453432D01*
X134662009Y-111460487D01*
X134661501Y-111475483D01*
X134661032Y-111498297D01*
X134660601Y-111528802D01*
X134660211Y-111566877D01*
X134659860Y-111612395D01*
X134659551Y-111665232D01*
X134659283Y-111725264D01*
X134659058Y-111792367D01*
X134658876Y-111866416D01*
X134658737Y-111947287D01*
X134658642Y-112034855D01*
X134658593Y-112128995D01*
X134658586Y-112205592D01*
X134554593Y-112205592D01*
X134554614Y-112190888D01*
X134555684Y-111431709D01*
X134565221Y-111403477D01*
X134585429Y-111355089D01*
X134611409Y-111312257D01*
X134643000Y-111275140D01*
X134680041Y-111243899D01*
X134722370Y-111218693D01*
X134769825Y-111199684D01*
X134771451Y-111199172D01*
X134801699Y-111189727D01*
X135162655Y-111189727D01*
X135523610Y-111189727D01*
X135553858Y-111199172D01*
G37*
G04 #@! TO.C,J1*
X104725000Y-107500000D02*
X102805000Y-107500000D01*
X99090000Y-107500000D02*
X100795000Y-107500000D01*
X102805000Y-116660000D02*
X104725000Y-116660000D01*
X100795000Y-116660000D02*
X99090000Y-116660000D01*
X99090000Y-116660000D02*
X99090000Y-107500000D01*
D15*
G04 #@! TO.C,D2*
X104945000Y-101100000D02*
G75*
G03*
X104945000Y-101100000I-50000J0D01*
G01*
D14*
G04 #@! TO.C,J3*
X162020000Y-114370000D02*
X160020000Y-114370000D01*
X162020000Y-109130000D02*
X162020000Y-114370000D01*
X160020000Y-114920000D02*
X157500000Y-114920000D01*
X160020000Y-114370000D02*
X160020000Y-114920000D01*
X160020000Y-109130000D02*
X162020000Y-109130000D01*
X160020000Y-108580000D02*
X160020000Y-109130000D01*
X155900000Y-114920000D02*
X154500000Y-114920000D01*
X152900000Y-114920000D02*
X150500000Y-114920000D01*
X149400000Y-108580000D02*
X160020000Y-108580000D01*
X149400000Y-107250000D02*
X149400000Y-108580000D01*
X147680000Y-114920000D02*
X148900000Y-114920000D01*
X147680000Y-114920000D02*
X147680000Y-107250000D01*
D15*
G04 #@! TO.C,D1*
X100645000Y-105000000D02*
G75*
G03*
X100645000Y-105000000I-50000J0D01*
G01*
D14*
G04 #@! TO.C,U5*
X107700000Y-102340000D02*
X105900000Y-102340000D01*
X107700000Y-102340000D02*
X108500000Y-102340000D01*
X107700000Y-105460000D02*
X106900000Y-105460000D01*
X107700000Y-105460000D02*
X108500000Y-105460000D01*
G04 #@! TO.C,Y1*
X121875000Y-124000000D02*
X121875000Y-126800000D01*
X121875000Y-126800000D02*
X125175000Y-126800000D01*
G04 #@! TO.C,J6*
X147530000Y-101130000D02*
X147530000Y-102460000D01*
X146200000Y-101130000D02*
X147530000Y-101130000D01*
X144930000Y-101130000D02*
X111850000Y-101130000D01*
X144930000Y-101130000D02*
X144930000Y-103730000D01*
X111850000Y-101130000D02*
X111850000Y-106330000D01*
X147530000Y-103730000D02*
X147530000Y-106330000D01*
X144930000Y-103730000D02*
X147530000Y-103730000D01*
X147530000Y-106330000D02*
X111850000Y-106330000D01*
G04 #@! TD*
M02*
